<mxfile host="Electron" modified="2023-04-14T07:29:48.105Z" agent="Mozilla/5.0 (Windows NT 10.0; Win64; x64) AppleWebKit/537.36 (KHTML, like Gecko) draw.io/21.1.2 Chrome/106.0.5249.199 Electron/21.4.3 Safari/537.36" etag="_n3AIeOqqXCvZqWelo2x" version="21.1.2" type="device">
  <diagram name="第 1 页" id="NyLYULQWfYbU4EUyg3AN">
    <mxGraphModel dx="1419" dy="814" grid="0" gridSize="10" guides="1" tooltips="1" connect="1" arrows="1" fold="1" page="1" pageScale="1" pageWidth="1250" pageHeight="500" math="1" shadow="0">
      <root>
        <mxCell id="0" />
        <mxCell id="1" parent="0" />
        <mxCell id="1XD5un0cPilmK_VXMZru-65" value="" style="endArrow=none;dashed=1;html=1;rounded=0;strokeColor=#c2dfa7;" edge="1" parent="1">
          <mxGeometry width="50" height="50" relative="1" as="geometry">
            <mxPoint x="412" y="494" as="sourcePoint" />
            <mxPoint x="412" y="10" as="targetPoint" />
          </mxGeometry>
        </mxCell>
        <mxCell id="1XD5un0cPilmK_VXMZru-44" value="" style="endArrow=none;dashed=1;html=1;rounded=0;strokeColor=#c2dfa7;" edge="1" parent="1">
          <mxGeometry width="50" height="50" relative="1" as="geometry">
            <mxPoint x="856" y="494" as="sourcePoint" />
            <mxPoint x="856" y="10" as="targetPoint" />
          </mxGeometry>
        </mxCell>
        <mxCell id="1XD5un0cPilmK_VXMZru-4" value="&lt;font style=&quot;font-size: 36px;&quot; face=&quot;Times New Roman&quot;&gt;Original Observation Set&lt;/font&gt;" style="text;html=1;align=center;verticalAlign=middle;resizable=0;points=[];autosize=1;strokeColor=none;fillColor=none;fontSize=36;" vertex="1" parent="1">
          <mxGeometry y="3" width="378" height="56" as="geometry" />
        </mxCell>
        <mxCell id="1XD5un0cPilmK_VXMZru-5" value="&lt;font style=&quot;font-size: 36px;&quot; face=&quot;Times New Roman&quot;&gt;Altered Observation Set&lt;/font&gt;" style="text;html=1;align=center;verticalAlign=middle;resizable=0;points=[];autosize=1;strokeColor=none;fillColor=none;fontSize=36;" vertex="1" parent="1">
          <mxGeometry x="884" width="366" height="56" as="geometry" />
        </mxCell>
        <mxCell id="1XD5un0cPilmK_VXMZru-10" value="&lt;font style=&quot;font-size: 36px;&quot; face=&quot;Times New Roman&quot;&gt;Generated Mapping Function&lt;/font&gt;" style="text;html=1;align=center;verticalAlign=middle;resizable=0;points=[];autosize=1;strokeColor=none;fillColor=none;fontSize=36;" vertex="1" parent="1">
          <mxGeometry x="411" width="442" height="56" as="geometry" />
        </mxCell>
        <mxCell id="1XD5un0cPilmK_VXMZru-36" value="" style="edgeStyle=none;orthogonalLoop=1;jettySize=auto;html=1;shape=flexArrow;rounded=1;startSize=11.67;endSize=9;startWidth=48;endWidth=30;width=16;fillColor=#ebebeb;" edge="1" parent="1">
          <mxGeometry width="100" relative="1" as="geometry">
            <mxPoint x="372" y="269" as="sourcePoint" />
            <mxPoint x="902" y="269" as="targetPoint" />
            <Array as="points" />
          </mxGeometry>
        </mxCell>
        <mxCell id="1XD5un0cPilmK_VXMZru-38" value="" style="group" vertex="1" connectable="0" parent="1">
          <mxGeometry x="473" y="293" width="320" height="150" as="geometry" />
        </mxCell>
        <mxCell id="1XD5un0cPilmK_VXMZru-11" value="" style="rounded=1;whiteSpace=wrap;html=1;fillColor=#ff4000;" vertex="1" parent="1XD5un0cPilmK_VXMZru-38">
          <mxGeometry width="75" height="22" as="geometry" />
        </mxCell>
        <mxCell id="1XD5un0cPilmK_VXMZru-12" value="" style="rounded=1;whiteSpace=wrap;html=1;fillColor=#078807;" vertex="1" parent="1XD5un0cPilmK_VXMZru-38">
          <mxGeometry x="82" width="75" height="22" as="geometry" />
        </mxCell>
        <mxCell id="1XD5un0cPilmK_VXMZru-13" value="" style="rounded=1;whiteSpace=wrap;html=1;fillColor=#5E79FF;" vertex="1" parent="1XD5un0cPilmK_VXMZru-38">
          <mxGeometry x="163" width="75" height="22" as="geometry" />
        </mxCell>
        <mxCell id="1XD5un0cPilmK_VXMZru-14" value="" style="rounded=1;whiteSpace=wrap;html=1;fillColor=#FFE603;" vertex="1" parent="1XD5un0cPilmK_VXMZru-38">
          <mxGeometry x="245" width="75" height="22" as="geometry" />
        </mxCell>
        <mxCell id="1XD5un0cPilmK_VXMZru-19" value="" style="rounded=1;whiteSpace=wrap;html=1;fillColor=#ff4000;" vertex="1" parent="1XD5un0cPilmK_VXMZru-38">
          <mxGeometry x="245" y="111" width="75" height="22" as="geometry" />
        </mxCell>
        <mxCell id="1XD5un0cPilmK_VXMZru-25" style="orthogonalLoop=1;jettySize=auto;html=1;rounded=0;strokeWidth=1.25;elbow=vertical;jumpStyle=none;" edge="1" parent="1XD5un0cPilmK_VXMZru-38" source="1XD5un0cPilmK_VXMZru-11" target="1XD5un0cPilmK_VXMZru-19">
          <mxGeometry relative="1" as="geometry" />
        </mxCell>
        <mxCell id="1XD5un0cPilmK_VXMZru-20" value="" style="rounded=1;whiteSpace=wrap;html=1;fillColor=#078807;" vertex="1" parent="1XD5un0cPilmK_VXMZru-38">
          <mxGeometry x="163" y="111" width="75" height="22" as="geometry" />
        </mxCell>
        <mxCell id="1XD5un0cPilmK_VXMZru-27" style="orthogonalLoop=1;jettySize=auto;html=1;rounded=0;strokeWidth=1.25;elbow=vertical;jumpStyle=none;" edge="1" parent="1XD5un0cPilmK_VXMZru-38" source="1XD5un0cPilmK_VXMZru-12" target="1XD5un0cPilmK_VXMZru-20">
          <mxGeometry relative="1" as="geometry" />
        </mxCell>
        <mxCell id="1XD5un0cPilmK_VXMZru-21" value="" style="rounded=1;whiteSpace=wrap;html=1;fillColor=#5E79FF;" vertex="1" parent="1XD5un0cPilmK_VXMZru-38">
          <mxGeometry y="111" width="75" height="22" as="geometry" />
        </mxCell>
        <mxCell id="1XD5un0cPilmK_VXMZru-28" style="orthogonalLoop=1;jettySize=auto;html=1;rounded=0;strokeWidth=1.25;elbow=vertical;jumpStyle=none;" edge="1" parent="1XD5un0cPilmK_VXMZru-38" source="1XD5un0cPilmK_VXMZru-13" target="1XD5un0cPilmK_VXMZru-21">
          <mxGeometry relative="1" as="geometry" />
        </mxCell>
        <mxCell id="1XD5un0cPilmK_VXMZru-22" value="" style="rounded=1;whiteSpace=wrap;html=1;fillColor=#FFE603;" vertex="1" parent="1XD5un0cPilmK_VXMZru-38">
          <mxGeometry x="82" y="111" width="75" height="22" as="geometry" />
        </mxCell>
        <mxCell id="1XD5un0cPilmK_VXMZru-29" style="orthogonalLoop=1;jettySize=auto;html=1;entryX=0.5;entryY=0;entryDx=0;entryDy=0;rounded=0;strokeWidth=1.25;elbow=vertical;jumpStyle=none;" edge="1" parent="1XD5un0cPilmK_VXMZru-38" source="1XD5un0cPilmK_VXMZru-14" target="1XD5un0cPilmK_VXMZru-22">
          <mxGeometry relative="1" as="geometry" />
        </mxCell>
        <mxCell id="1XD5un0cPilmK_VXMZru-45" value="" style="group" vertex="1" connectable="0" parent="1">
          <mxGeometry x="40" y="352" width="320" height="22" as="geometry" />
        </mxCell>
        <mxCell id="1XD5un0cPilmK_VXMZru-6" value="" style="rounded=1;whiteSpace=wrap;html=1;fillColor=#ff4000;" vertex="1" parent="1XD5un0cPilmK_VXMZru-45">
          <mxGeometry width="75" height="22" as="geometry" />
        </mxCell>
        <mxCell id="1XD5un0cPilmK_VXMZru-7" value="" style="rounded=1;whiteSpace=wrap;html=1;fillColor=#078807;" vertex="1" parent="1XD5un0cPilmK_VXMZru-45">
          <mxGeometry x="82" width="75" height="22" as="geometry" />
        </mxCell>
        <mxCell id="1XD5un0cPilmK_VXMZru-8" value="" style="rounded=1;whiteSpace=wrap;html=1;fillColor=#5E79FF;" vertex="1" parent="1XD5un0cPilmK_VXMZru-45">
          <mxGeometry x="163" width="75" height="22" as="geometry" />
        </mxCell>
        <mxCell id="1XD5un0cPilmK_VXMZru-9" value="" style="rounded=1;whiteSpace=wrap;html=1;fillColor=#FFE603;" vertex="1" parent="1XD5un0cPilmK_VXMZru-45">
          <mxGeometry x="245" width="75" height="22" as="geometry" />
        </mxCell>
        <mxCell id="1XD5un0cPilmK_VXMZru-46" value="" style="group" vertex="1" connectable="0" parent="1">
          <mxGeometry x="911" y="357" width="320" height="22" as="geometry" />
        </mxCell>
        <mxCell id="1XD5un0cPilmK_VXMZru-30" value="" style="rounded=1;whiteSpace=wrap;html=1;fillColor=#5E79FF;" vertex="1" parent="1XD5un0cPilmK_VXMZru-46">
          <mxGeometry width="75" height="22" as="geometry" />
        </mxCell>
        <mxCell id="1XD5un0cPilmK_VXMZru-31" value="" style="rounded=1;whiteSpace=wrap;html=1;fillColor=#FFE603;" vertex="1" parent="1XD5un0cPilmK_VXMZru-46">
          <mxGeometry x="82" width="75" height="22" as="geometry" />
        </mxCell>
        <mxCell id="1XD5un0cPilmK_VXMZru-32" value="" style="rounded=1;whiteSpace=wrap;html=1;fillColor=#078807;" vertex="1" parent="1XD5un0cPilmK_VXMZru-46">
          <mxGeometry x="163" width="75" height="22" as="geometry" />
        </mxCell>
        <mxCell id="1XD5un0cPilmK_VXMZru-33" value="" style="rounded=1;whiteSpace=wrap;html=1;fillColor=#ff4000;" vertex="1" parent="1XD5un0cPilmK_VXMZru-46">
          <mxGeometry x="245" width="75" height="22" as="geometry" />
        </mxCell>
        <mxCell id="1XD5un0cPilmK_VXMZru-61" value="&lt;font face=&quot;Times New Roman&quot;&gt;&lt;span style=&quot;font-size: 28px;&quot;&gt;Data distribution&lt;/span&gt;&lt;/font&gt;" style="text;html=1;align=center;verticalAlign=middle;resizable=0;points=[];autosize=1;strokeColor=none;fillColor=none;fontSize=34;" vertex="1" parent="1">
          <mxGeometry x="92.19" y="280" width="207" height="54" as="geometry" />
        </mxCell>
        <mxCell id="1XD5un0cPilmK_VXMZru-63" value="&lt;font face=&quot;Times New Roman&quot;&gt;&lt;span style=&quot;font-size: 28px;&quot;&gt;Distorted data distribution&lt;/span&gt;&lt;/font&gt;" style="text;html=1;align=center;verticalAlign=middle;resizable=0;points=[];autosize=1;strokeColor=none;fillColor=none;fontSize=34;" vertex="1" parent="1">
          <mxGeometry x="915" y="280" width="312" height="54" as="geometry" />
        </mxCell>
        <mxCell id="1XD5un0cPilmK_VXMZru-49" value="&lt;font color=&quot;#4f4f4f&quot; style=&quot;font-size: 24px;&quot; face=&quot;Times New Roman&quot;&gt;1. Prepare dataset and split it into pieces,&amp;nbsp;&lt;br&gt;&lt;/font&gt;&lt;font face=&quot;Times New Roman&quot; color=&quot;#4f4f4f&quot;&gt;the pieces from left to right correspond &lt;br&gt;to the data from small to large&amp;nbsp;&lt;/font&gt;" style="text;html=1;align=center;verticalAlign=middle;resizable=0;points=[];autosize=1;strokeColor=none;fillColor=none;fontSize=24;" vertex="1" parent="1">
          <mxGeometry y="395" width="417" height="98" as="geometry" />
        </mxCell>
        <mxCell id="1XD5un0cPilmK_VXMZru-66" value="&lt;font face=&quot;Times New Roman&quot; color=&quot;#4f4f4f&quot;&gt;2. Random piece-wise mapping&lt;/font&gt;" style="text;html=1;align=center;verticalAlign=middle;resizable=0;points=[];autosize=1;strokeColor=none;fillColor=none;fontSize=24;" vertex="1" parent="1">
          <mxGeometry x="471" y="436" width="322" height="41" as="geometry" />
        </mxCell>
        <mxCell id="1XD5un0cPilmK_VXMZru-67" value="&lt;font face=&quot;Times New Roman&quot; color=&quot;#4f4f4f&quot;&gt;3. Replace original values with &lt;br&gt;the generated mapping function&lt;/font&gt;" style="text;html=1;align=center;verticalAlign=middle;resizable=0;points=[];autosize=1;strokeColor=none;fillColor=none;fontSize=24;" vertex="1" parent="1">
          <mxGeometry x="904.5" y="400" width="323" height="70" as="geometry" />
        </mxCell>
        <mxCell id="1XD5un0cPilmK_VXMZru-69" value="" style="shape=image;verticalLabelPosition=bottom;labelBackgroundColor=default;verticalAlign=top;aspect=fixed;imageAspect=0;image=data:image/png,iVBORw0KGgoAAAANSUhEUgAAAgYAAAIZCAYAAADdv/fuAAAgAElEQVR4nOzdeXhU5d0+8HuW7Pu+75AASUDZV9eCC1VRsRaEKuW1vJf6wwLWqi3u+KIW0Vet0BekIEVApRYRqhZklUUhIEvCln1fSTKZyWS23x9nzmDMQiaZmTPL/bkur0tP5pw808LkzvN8n+8jM5lMJhAREREBkEs9ACIiInIeDAZERERkwWBAREREFgwGVlKpVKivr4dOp5N6KERERDbHYGClF154AZMmTcLJkyelHgoREZHNMRgQERGRBYMBERERWTAYEBERkQWDAREREVkwGBAREZEFgwERERFZSB4MDAYDPvjgA9x5552YMmUKHn/8cRQXF1v1jPPnz2PatGn47rvvOl03Go348MMPcdddd2HKlClYsGABLl68aMvhExERuRXJg8HLL7+M1atX45577sEf/vAHlJWV4aGHHkJjY2Of7tdqtXjqqadQUlICjUbT6Wt/+ctf8NZbb+H222/HH//4R9TX1+Ohhx5CTU2NPd4KERGRy5M0GFRVVWHLli34wx/+gAULFuDuu+/Ghg0boNPp8OGHH/bpGStXrkRDQ0OX642NjdiwYQMWLlyIxx9/HL/85S+xYcMG+Pj44IMPPrD1WyEiInILkgaDffv2wWQy4ZZbbrFcCw0Nxbhx47B79+5r3v/dd99h06ZNeOGFF7p87dChQ9DpdJ2eHRAQgEmTJmHPnj22eQNERERuRtJgkJ+fj+DgYMTGxna6npmZiaKiInR0dPR475UrV/DHP/4RixYtwqBBg7p8vaCgAF5eXkhNTe10PSsrCzU1NWhpabHNmyAiInIjkgYDjUaD0NBQyGSyTtdDQ0NhMpmg1Wq7vc9kMuHFF19EWloaHn744R6fHRQUBKVS2el6SEgIAECtVtvgHRAREbkX5bVfYj9Go7FLKABguWYwGLq9b/v27di/fz927NgBubz7bNPfZxMREXkySWcMfH190d7e3uW6eM3Pz6/L16qqqvDSSy9h7ty5UKvVuHTpEkpLSy1fKyws7PRsk8nU52cTERF5OklnDLKysvDJJ59ArVbD39/fcr2wsBDh4eHw9vbuck9BQQHa2tqwatUqrFq1qtPXXnnlFYSFheHIkSPIzMxEW1sbGhoaEBkZ2enZ/v7+CA4Ott8bIyIiclGSBoMxY8YAAE6ePImJEycCEJYA8vLyMHHixG6XAsaMGYN//etfna6Vl5fj8ccfx5/+9CdMmDCh07Pz8vIwdepUAEJtwokTJzBu3LgutQdEREQk8VJCZmYmcnJy8Morr+DSpUvQaDR4/fXXUVhYiFmzZllet3XrVjz11FPQarUIDAzEkCFDOv2TlpYGAEhISMDgwYMBAImJiRgzZgyWL1+O/Px8dHR04J133sGZM2cwe/ZsSd4vERGRs5M0GMjlcrzzzjsICwvD9OnTcd111+GTTz7Ba6+9htGjR1ted/LkSXzxxRdWFQzKZDK89dZbSEpKwowZM5Cbm4u///3vWLp0KW644QZ7vB0iIiKXJzP9vDpPImVlZWhra0N6enqX2gKDwQCTyQSFQtHt8oLJZILBYIBcLu92l0JFRQVaW1uRlpYGHx+fAY1zyZIl2LFjBzZu3GhZriAiInIXTrPQnpSU1OPXFApFr/fKZLJeawYSEhL6PS4iIiJPIvkhSkREROQ8nGbGgIjInppVWnx5oAgNze1IjAnEdZnRSEvgtmWin2MwICK396+9l/HJNxeg0eot1/6xMx+z7xiK+27petYKkSfjUgIRubWvD5dgw45z0Gj18PdRYsTgKIQG+sBkEsLBO5tOdumQSuTJOGNARG6roKgJaz8/DQC4LjMai+Zcj0B/b3ToDPjr1h9xIK8c+0+UITEmAPffOlji0RI5B84YEJFbatfq8ZcNP0BvMCEhKhBLfjMSgf7CVmhvLwV+/9D1uHVsMgBg81fnUVDUJOVwiZwGgwERuaUv9heiqbUdXko5/jhvNPx9vbq8Zv69OUiKCYLRaMLKjcfR/pMaBCJPxWBARG5Hpe7A9r2XAQC3T0xFQnRQt6/z8VJgydyR8FLKUd+swT+/veTIYRI5JQYDInI7n397GWqtHn4+Stx3jdqBpNhg/HJKOgBg+97LqL+iccQQiZwWgwERuRWVRoedh4oAANOnpCM4oOvx7T93362DEBLggw69ERu/LLD3EImcGoMBEbmVvT+UQdthgI+3AnffmN6ne/x9vTDrjiEAgAN55SiparHnEImcGoMBEbmVbw6XAgAmXxePAL+uBYc9uXVsEuIjAwEAn/7nol3GRuQKGAyIyG2cvdyA8tpWAMBtE9Osulcul+FecxfEwz9WorJWZfPxEbkCBgMichtfHS4BAKQnhCIjMcTq+28clYCoUD+YTMBne7hDgTwTgwERuYU2jQ5HT1cBAKZNSOnXMxQKOWaYZw32nyjnDgXySAwGROQWfjhXA73BCKVCjknXxfX7ObeOTUJwgDeMRhO++q7YhiMkcg0MBkTkFg6fEmYLrsuM6rbLYV95KRWYOl6YcfjmSCk6dAabjI/IVTAYEJHL02j1OHmhFgAwYUT/ZwtEt01MgUIuQ6u6AwfzKgf8PCJXwmBARC7v+Lla6PRGKOQyjM6OHfDzIkL8MC5XCBg7DxYN+HlEroTBgIhc3mFz0WHuoCgEWtG7oDfTJwvNkYoqm5Ff1GiTZxK5AgYDInJpWp0BeQU1AIDxwwe+jCAakhaGtHhhyyNnDciTMBgQkUvLK6iFtsMAuVyGcbkDX0b4qTsnC02SjpyuQkMzty6SZ2AwICKXJu5GyE6P6NOBSdaYMjIeQf7i1sUSmz6byFkxGBCRy9LpjTieb15GyLXdMoJI2LqYDAD45kgJ9Aajzb8HkbNhMCAil3XyfB00Wj1kMmDccNsuI4hum5gKuQxoaevA92dr7PI9iJwJgwERuawj5t0IWSnhCAvytcv3iAz1w4jMaADA7qOldvkeRM6EwYCIXJLeYMT3Z6sB2KapUW9uHScsJ5y8UMvzE8jtMRgQkUs6fakBbRodAPvUF/zUmOwYBAd4w2QC9nxfZtfvRSQ1BgMickmHTwmtigcnhSEy1M+u30upkOPGUYkAgG+PlcFkMtn1+xFJicGAiFyOwWjCsTPCMoItmxr15hfm5YTaJjVOX2pwyPckkgKDARG5nHOFDWhVdwAAJtq5vkCUGBOEzOQwACxCJPfGYEBELufIj8JuhLT4EESH+zvs+4pFiEfPVEFlrm8gcjcMBkTkUkwmkyUY2Hs3ws9Nui4evt4K6PRG7D9e7tDvTeQoDAZE5FIKiptwRaUFAEx0UH2ByM9HiQkj4gEAu49xdwK5JwYDInIp4m6EpJggxEUFOvz7/2JsCgCguLIZpVUtDv/+RPbGYEBELuXoacfuRvi5IWlhiA4T6hr2n6iQZAxE9sRgQEQu42LpFdSbjz921G6E7ky+XlhOOJjHYEDuh8GAiFzG4R+FZYSEqEAkxwZLNo4pIxMAAHVXNCgoapJsHET2wGBARC5D3I0g1TKCKDk2GEkxQQCAA3ncnUDuhcGAiFzCxdIrqGlUAwAmDI+XeDRXZw2+O1UJg8Eo8WiIbIfBgIhcwqGTwnp+QlQg0hKkW0YQ3XC9EAxa2jpw6mK9xKMhsh0GAyJyeiaTCYdOCvUFE6+TfrYAAKLC/ZGVEg4AOMDdCeRGGAyIyOnlFzWhsaUdADDZSYIBcHU54fuz1dDqDBKPhsg2nCYY1NfXo6SkBB0dHX2+x2g0orS0FNXV1TwGlciNHTQX+CXHBiPRXPTnDCaOiINcLoNGq8cPZ2ukHg6RTUgeDBobG/HII49g0qRJmDZtGm666SZ8/fXX17xv9+7duPXWWzF16lTceOONuO+++3DmzJlOrzlw4ABGjhzZ5Z+FCxfa6+0QkY0ZjCYcNu9GEPsHOIuQQB+MGBwFgMsJ5D6UUg/giSeeQF1dHbZu3YrY2FisXLkSixYtwj//+U9kZmZ2e09RURGeeOIJ/PKXv8RTTz0FrVaLZ599Fo8++ii+/vprBAUJv1GcPXsWBoMBTz75ZKf7k5KS7P6+iMg2Tl+sR0ubMJM4xVzw50xuGJmAvPO1yDtfC3W7Dv6+XlIPiWhAJA0G586dw/Hjx/HXv/4VI0aMAAC8+uqr+OGHH7B27Vq8/vrr3d63ZcsW+Pv747XXXoOXl/CX8M9//jNmzJiB/fv3Y/r06QCA/Px8ZGdn47e//a1j3hAR2dxB826EwUlhDj1iua9GZ8dAqZBBbzDiRH6d081qEFlL0qWEAwcOAABGjRpluaZUKjFq1Ch89913Pd73xz/+EV9//bUlFABAc3MzAMDHx8dyLT8/Hzk5OdDr9airq0N7e7ut3wIR2ZFOb8SxM8LZCM76A9ff1ws5GcJywtEzVRKPhmjgJA0GZWVliIqKQmhoaKfrGRkZqK2t7fEHuUwmQ0REBACgqqoKu3fvxtKlS5GTk4Mbb7wRAKBSqVBSUoL8/HyMGTMGkydPxoQJE7B8+XKrChyJSDp55+vQptFBJnOebYrdGZcbCwDIK6iFTs9mR+TaJF1K0Gq18PPz63Ld31+YLmxvb4evr2+vz5gzZw7Ky8vh5eWFefPmQakU3tKFCxcsz3j77bcRGhqKXbt2Yd26dWhra8Mrr7xi43dDRLZ2yHxI0dC0CIQH9/5ZIKUxOTH42zZAo9Xjx4v1GDU0WuohEfWbpMFAJpN1e13ceqhQKK75jC+++AIKhQJ///vf8dJLL0Gr1WLevHkYNGgQ/v73vyM3NxeBgcKZ7SNGjEBLSwu2bduGRYsWITw83HZvhohsSqPV4/tz4jKC8xUd/lRYkC8yk8NxvqQRR09XMRiQS5N0KSEwMBCtra1drre0tADoXC/QE39/f/j4+GDBggUYP3481q1bBwAIDg7GhAkTLKFAdPPNN0Ov1+PixYs2eAdEZC/fnayEtsMApUKOSRIesdxXY3OE5YTvz1bDaGRfFXJdkgaD4cOHo6mpCY2NjZ2uX7x4EampqfD29u72vi+//BKffPJJl+uxsbFQqVQAgJMnT2LDhg1dGh9ptVoA6BIYiMi57D5WBkD4gRvo3/1ngTMZb64zaGnrQEExj2Im1yVpMBgzZgwAYN++fZZrKpUKx44dw0033dTjfQcPHsQbb7zRabZBo9Hg0KFDGD16NAChh8GyZctw+vRpy2tMJhO2b9+O6OhoDB061NZvh4hspLJWhfMlwi8Mt4xNlng0fRMbGWA5ivkYdyeQC5M0GCQkJOCee+7BK6+8gn/84x/Yt28fHn30UXR0dGDOnDmW1y1fvhxTpkyBRqMBAPzud7+DXq/H/PnzsW/fPnzzzTd45JFHoFKpLF0N7733XiQkJODxxx/H9u3bcfDgQSxevBj79u3D0qVLIZdL3vSRiHqw53thtiAixBcjBkdKPJq+G5crLHkcPV0t8UiI+k/yzoevvPIKEhMTsWbNGqhUKowYMQIfffRRp+6EYWFhSEpKshQrpqWlYdOmTXjvvfewePFiyOVyTJ48GS+99BKGDBkCQKg92Lx5M9599128+eab0Gq1GDZsGNatW4eJEydK8l6J6NoMRhP2/iCcjXDT6CTI5d0XKTuj8blx+PQ/F1DbpEZxZTNS40OkHhKR1WQmnj5klSVLlmDHjh3YuHGjZSmEiGzneH4tXlt7FADw/jO3IDYyQOIRWee/X/0P6q5o8MDUTPz6tiyph0NkNc6nE5FTEYsOh6ZFuFwoAK7uTuByArkqBgMichotbR04fk4o3Lt1rGsedjY2R6gzKK1uQUOzRuLREFmPwYCInMaBExXQG0zw9VZgwnDn713QnSFpYfDzEcq3Tp2vl3g0RNZjMCAip7H7WCkAYMKIePj6SF4b3S9KhRzZ6cJZLicv1Ek8GiLrMRgQkVMoqmhBSZXQ9fRWF+ld0JMRWcJpiz9eqGMXRHI5DAZE5BR2HysBAMRFBmBommufY3L9ECEYtKo7UFjRLPFoiKzDYEBEktPpjThwQjhJ8eYxrll0+FNxkYGIDhNOic0rqJV4NETWYTAgIsl9f7YaKo0Ochlw0+hEqYdjE9eZlxNOXWABIrkWBgMiktwec++CEZnRiAjxk3g0tjEiSzh6+UJJI9TtOolHQ9R3DAZEJKkrrVqcuiBMt9/ior0LujN8cATkchkMRhNOX2qQejhEfcZgQESSOnSyEkYT4OejxOhhMVIPx2b8fb2QmRwGADh1nnUG5DoYDIhIUvvNRYfjc+Pg7aWQeDS2JW5bPHme/QzIdTAYEJFkquvbcKmsCQAwZWSCxKOxvevNdQY1jWpU17dJPBqivmEwICLJiLMFoYE+yB0UKfFobC8jMQSBfl4AgDzOGpCLYDAgIsmIvQsmX58AuVwm8WhsTy6XYXimedsigwG5CAYDIpLE5bJmVNarAAA3jHSP3gXdEfsZnLlcz/bI5BIYDIhIEvtPlAMA4iMDkZEUIvFo7CcnQzhQSaPVo6iyReLREF0bgwEROZzRaMLBPGEZwR2LDn8qJiIAESG+AIBzhexnQM6PwYCIHO70pXpcUWkBADe4eTAAgKFpwqzB2csMBuT8GAyIyOHE3QiDk8IQGxkg8Wjsb5h5OaGgqBEmE+sMyLkxGBCRQxkMRnx/thqA+y8jiLLThWOkW9UdKKtplXg0RL1jMCAihzpzuRFtGuFQoXG5sRKPxjESY4IQHOANADh3uVHi0RD1jsGAiBzq2JkqAEB6QigiQ93jJMW+sNQZsACRnByDARE5lLiMMDbHfQ5M6otsc51BfiFnDMi5MRgQkcNcLmtGQ3M7AM9ZRhBlpQonLTa1tqO+SSPxaIh6xmBARA5z1LyMEBsRgOTYYIlH41ip8cHwVgofuRdKmyQeDVHPGAyIyGG+P1sDwPOWEQBAqZAjLSEUAHChhMGAnBeDARE5RGNLO0qrhZbAo4Z61jKCKCtVCAbnGQzIiTEYEJFD5BXUAgD8fJQYkhYm8WikkZki9DMoqmiG3mCUeDRE3WMwICKHOFEgHDuckxEJpcIzP3oyU4QZA53eiKIKHqhEzskz/3YSkUMZjCacvigEg+uGREk8GulEhPghPFg4UOl8CbctknNiMCAiu7tYcsXS7XDkkGiJRyOtweblhAslVyQeCVH3GAyIyO7yzgu7EeIjAxEd7i/xaKSVZV5OuMgCRHJSDAZEZHcnz9cD8OxlBNGgJCEY1DapoVJ3SDwaoq4YDIjIrtTtOhSWC78dj8hkMEhLuNrY6XI5CxDJ+TAYEJFdnStshNEEyGXAMPPxw57M39cLcZEBAIDCCtYZkPNhMCAiuzpzSVhGSEsIhb+vl8SjcQ7picJyQiFnDMgJMRgQkV2duSQcM5w7KELikTiP9IQQAEBhOWcMyPkwGBCR3ag0OhRXNQMAcgaxvkCUkSQEg+qGNqjbdRKPhqgzBgMisptzlxtgMgEKuQxDPbQNcnfEGQMAKGQHRHIyDAZEZDdifUFGUih8fZQSj8Z5BPh5Icbcz4HLCeRsGAyIyG7OFQptf3MHRUo8EueTxgJEclIMBkRkF+0depSYj1nOSuU2xZ/LSBSWE4oqmiUeCVFnDAZEZBeXypphNJoAXD1VkK5KjRcaHVXWq6DTGyQeDdFVTrHo19LSgoMHD0KlUiE3NxdDhw7t032lpaU4cuQIvL29MWnSJERFda16VqlUOHjwIFpaWjB06FDk5ubaevhE1I0L5rMA4iIDEOTvLfFonE9KXBAAwGg0oaxahfTEkGvcQeQYkgeDU6dO4b/+678gl8sREhKCkpISzJs3D88880yv97355ptYs2YNUlJS0NHRgaVLl+KFF17AzJkzLa8pKCjAvHnzoNPpEBUVhcLCQvzqV7/Cyy+/DJlMZu+3RuTRLhQLwSAzhcsI3YkI8UOArxfa2nUorW5hMCCnIelSgl6vx8KFC5Gbm4tvv/0WX331FV577TWsW7cO3377bY/3HTp0CGvWrMGLL76Ir7/+Gnv27MGDDz6I559/HmVlZQAAk8mERYsWIS0tDXv37sWuXbvw9ttvY+vWrdixY4ej3iKRxxJnDLiM0LOUOGE5obiSBYjkPCQNBkePHkV1dTUWLlwIf39/yGQy3H///Rg+fDg2bdrU430XL17E9ddfj1mzZgEA5HI5Zs2aBYPBgLy8PADCTERhYSEee+wxBAYGAgDuuOMOTJgwAR9//LH93xyRB6tpaENzmxYAkMUZgx6lxAvLCaVVrRKPhOgqSYPBkSNHIJPJMGTIkE7Xc3JykJeXB5PJ1O19jzzyCDZv3tzp2tmzZwEA8fHxAITQAQDZ2dmdXpebm4sff/wRer3eJu+BiLq6UCLszff1ViDZvJZOXYkzBiVVnDEg5yFpjUFDQwPi4uLg6+vb6XpSUhJaW1uhVqsREBDQ6zO+/vpr/PDDD9i8eTPmzJmDUaNGWZ4dHByMsLDO3daSkpKg0+nQ2NiI6Oho274hIgJwdRkhPTEUCjnreXqSbA4GV1RaNKu0CAn0kXhERBLPGGi1Wnh5dT1tzdtbqGDu6Oi45jO2bduGU6dOQS6Xo7W1FRqNxmbPJqL+OW8OBlkpbIPcm+TYq7MppdVcTiDnIOmMgVKphNFo7HJdvCb+EO/NqlWrAADff/895s2bBy8vLyxbtqzHZxsMhj4/m4is16EzoLhSaNqTyWDQKz8fJaLD/FHbpEZJZQs7RJJTkHTGIDIyEg0NDV1qCerq6iCXy7ssMfRmzJgxuOWWW7B7924AQEREBJqbm7vMDNTXC73b/f39Bzh6IurO5fJmGMyNjbJSGQyuJSWedQbkXCQNBqNGjYJarUZFRUWn6+fPn0d2djYUCkW3961YsQLPP/98l+symcwSMkaNGgWj0YjCwsJOrykoKEB6erplpwIR2ZZYXxAd5s818z4QGx2VcGcCOQlJg8HIkSPh5eWFrVu3Wq6VlJTg8OHDuP322y3X6urqUFRUZFkaUCgU2LZtGy5dutTpvr179+K2224DAIwYMQJ+fn6dnl1dXY19+/ZZXkNEtnfe0tiIswV9kRRjbo1cp5J4JEQCSWsMQkNDsWTJEixfvhzFxcVITEzEp59+ivT0dDz44IOW161cuRKfffYZ8vLy4O/vj3nz5uGbb77B7Nmzcf/996OjowNffPEF4uPjsXDhQgCAr68vnnvuOSxduhRVVVUYNGgQPv30U8TExOA3v/mNVG+ZyO2JMwZcRuibhGhh9lKj1aOhWYOIED+JR0SeTvKWyI888giGDRuGbdu2obS0FI8++ihmzZrVaar/5ptvRnR0NJRKYbghISHYsmUL/vnPf1p6ISxZsgTTp0/vdN+vfvUrSyAoLCzEww8/jF//+tcIDWUnNiJ7qG/SoKm1HQBnDPoqPvrqluyK2jYGA5Kc5MFAJpNh3LhxGDduXI+vmTp1KqZOndrpWmBgIObOnYu5c+f2+vyRI0di5MiRNhkrEfXuQqkwW+CtlFtOD6Te+XgpEBnqh/orGlTUqjB8MHcmkLR47DIR2cxPGxspFfx46auEKGGms7KWdQYkPf7NJSKbuVgqtELmwUnWEesMKhgMyAkwGBCRTZhMJktjo4xEBgNrMBiQM2EwICKbqK5vQ3uH0FmU9QXWSYgRgkF9swbtHTzgjaTFYEBENlFYIXTu8/FWID6KDcSsER91dWdCVZ1awpEQMRgQkY0UVQjLCCmxwZDzREWrRIT4wc9H2CRWUcsOiCQtBgMisoki84xBWgKXEfpDnGUpZ50BSYzBgIhsQpwxSEsIkXgkrkkMBhW1bRKPhDwdgwERDVhjSzua27QAGAz6K8HcAZFLCSQ1BgMiGjBxGUEul1lOCyTrJMYI/7tV17d1OYqeyJEYDIhowMRlhISoQHgpuz8unXonzhhodQbUX9FIPBryZAwGRDRghZbCQy4j9FdcZADEzRzlrDMgCTEYENGAlVgKD7kjob+8lApEhfkD4JkJJC0GAyIaEHW7DtWNwm+4nDEYmIRooc6ABYgkJQYDIhqQ4sqrP8TS2Ap5QK7uTOBSAkmHwYCIBkQsPIwK9UOgv7fEo3FtPEyJnAGDARENiBgMUrmMMGDiUkJTazs0Wh6mRNJgMCCiASlk4aHNiEsJAGcNSDoMBkTUb3qD0VIol5YQKvFoXF9IoA8CfL0AcGcCSYfBgIj6raxaBb1B6NKXzhkDmxDrDHiYEkmFwYCI+q2w4goAIMjfG5GhfhKPxj1cDQbcmUDSYDAgon4rNnc8TI1n4aGtxJuDQSV7GZBEGAyIqN+KK8VWyDw4yVbiIoUCxNomtcQjIU/FYEBE/VZaLQSD5FjWF9hKXKTQFlnbYUBTS7vEoyFPxGBARP3S2NIOlUYHAEiOYzCwlZiIq1sWq+o5a0COx2BARP1SWiWsgctkQFJMoMSjcR9+PkoEBwgdJGsaWIBIjsdgQET9Ii4jxIQHwNtLIfFo3Eusuc6gmsGAJMBgQET9UlotzBiwvsD2Ys3LCVxKICkwGBBRv4hLCclxXEawtVhzAWJ1PWcMyPEYDIjIaiaTCeW1nDGwlzjzjAGDAUmBwYCIrFbbqIa2wwAASI7ljIGtxZhrDNradZadH0SOwmBARFYrMS8jKBUyxEcxGNhabIS/5d9rWGdADsZgQERWEwsP46OCoFDwY8TWQgJ94OejBABUcTmBHIx/o4nIald3JLAVsr2IjY64ZZEcjcGAiKxWWmVuhRzHYGAv7GVAUmEwICKr6A1GVNapAABJ3JFgN3ER4pZF1hiQYzEYEJFVKutUMBhNAIAU7kiwG8uMAWsMyMEYDIjIKqVVwmyBr7cC0eH+13g19ZfY/bCptR1anUHi0ZAnYTAgIquIZyQkxgRDJpNJPBr31WnLIusMyIEYDIjIKld3JHAZwZ4iQn3hpRQ+ollnQI7EYEBEVimznJHAwkN7kslkiA4TZg3Yy4AcicGAiPqsvUOPmibhhxR7GNifWIDIpQRyJHih0PsAACAASURBVAYDIuqz8hoVTMKGBAYDBxDrDKobuJRAjsNgQER9Jh61HOTvjbBgX4lH4/64ZZGkoJR6AABw7NgxfPnll2htbcXw4cMxa9Ys+Pj49HqPRqPBrl27cOTIEej1elx//fW46667EBoaanlNVVUVdu7c2eXepKQkTJs2zebvg8jdiTsSkmI4W+AIYjCou6KBwWDkuRTkEJIHgy1btuD555/HDTfcgNjYWLz99tvYtWsXPvroI3h7e3d7j0ajwezZs1FcXIw777wTfn5++Otf/4q1a9di8+bNiI2NBQAcOnQIb7zxBgICAjrdP2XKFAYDon6w7EhgK2SHELsfGo0m1DVpLEGByJ4kDQYqlQrLly/HvHnz8MwzzwAA5syZg/vuuw9btmzB3Llzu71v27ZtOHfuHLZt24bs7GwAwIIFCzBjxgz87W9/w/PPPw8AyM/PR1JSEv7zn/845g0RublS7khwqKhwf8hlgNEEVDWoGQzIISSdl9q3bx/UajUeeOABy7WsrCxMmDABX3zxRY/3lZWVYdKkSZZQAADx8fHIzc3FyZMnLdfy8/ORm5trn8ETeRiVRoem1nYALDx0FKVCjshQYdaghnUG5CCSzhicPHkSPj4+SE1N7XQ9KysL69evh8FggEKh6HKfOLvwUzqdDsXFxcjMzAQAGI1GFBQUYMyYMVi9ejXKysoQHx+P++67z7LUQER9J84WAAwGjhQTEYDaJjVPWSSHkXTGoLW1FVFRUV1++EdHR0On00Gj0fT5WatWrUJ5eTkeeughAEBFRQXa2tqwevVq/Oc//0FNTQ1Wr16N22+/HceOHbPp+yDyBOJRy+HBvgjw85J4NJ4jNsIPALsfkuNIOmOg0+m6nREQr+l0uj49Z/PmzXjvvfewYMECTJ48GQDQ0tKC0aNH4ze/+Q1uu+02AEB9fT1mzZqFZ599Ft988w3kclb4EvWVuCMhmUctO1RspNB6mjMG5CiS/mT09vaGXq/vcl0MBL6+ve+TNhgMWL58OV544QXMnz8fixYtsnwtOzsb//jHPyyhAAAiIyPx8MMPo7y8HOfOnbPRuyDyDKXVwqmKyXE8I8GRYiOFGoPaRjVMYncpIjuSNBgkJyejpqamy8xAeXk5/Pz8eu1loNFosHDhQqxfvx4vvPACnn766T6d9JaYmAgAaGtj+iayRhlnDCQRZ96JoNUZ0NjSLvFoyBNIGgxGjx4NvV6Py5cvd7p+7tw5jBo1qsepfr1ej4ULF+LQoUNYvXo1Zs+e3eU1q1atwqhRo6BSqTpdP3v2LORyOQYPHmy7N0Lk5hpb2qHSCAGeWxUdKyb86vHLrDMgR5A0GAwfPhyRkZFYuXIltFotAODrr7/GiRMnMGPGDMvrjh49is2bN1tmFtauXYv9+/fjqaeeQmpqKkpLSy3/VFVVAQAmT54MlUqFt99+G0ajEQBw4cIFbNiwAbfddhvCw8Md/G6JXJe4I0EmA5JiuJTgSL4+SoQECrOnrDMgR5C0+NDHxwcrVqzAY489hl/84heIjo7GmTNncP/992P69OmW1/3rX//CZ599hrvvvhtKpRLr168HALzyyitdnjlo0CB8+eWXyMnJwVNPPYUVK1Zg//79CAkJwY8//oixY8fi5Zdfdth7JHIHJeYdCTHhAfD26lowTPYVFxmAZpUWNTxMiRxA8pbI48ePx/79+/HNN9+gra0NL7zwAnJzczvVC8yfPx933XWXpeZgxYoVPT7P3//qtNujjz6Ku+++GwcOHEB7ezuee+45XH/99fZ7M0RuqqzG3PGQ9QWSiIkIQEFxI6rY5IgcQPJgAACBgYG49957e/x6RkYGMjIyLP89YcKEPj87JiYGM2fOHND4iDzd1VbIXEaQgrgzgTUG5AjcyE9EvTKZTCiv5YyBlOIihJ0JNY2cMSD7YzAgol7VNqqh7TAAAJJjOWMgBfHwpDaNDq3qDolHQ+6OwYCIelViXkZQKmSIj2IwkIK4lABwOYHsj8GAiHpVWi0Eg7jIQCgU/MiQQpC/N/x9hJKwahYgkp3xbzkR9UoMBmxsJK0Y83JCFXsZkJ0xGBBRr8RTFXnUsrTE1sjsZUD2xmBARD0yGIyoqjcfnsRgICkxGHApgeyNwYCIelRZp4LeIJzolxLHYCClmAihAJFNjsjeGAyIqEfiUcs+3gpE/+QwH3K8uEhhR0izSot2bdfj6olshcGAiHpUaj5qOTE6qE/HmpP9dNqyyAJEsiMGAyLqkThjwPoC6YUH+8LHWzjAqoq9DMiOGAyIqEdl5hmDJAYDpxATbt6yyDoDsiMGAyLqVofOgBrzlDXPSHAOsZadCSqJR0LuzKpgYDKZ7DUOInIy5TUqGM1/5XmqonOIixR3JnApgezHqmOX33jjDdTX1+Pee+/F+PHjIZdzwoHIXYkdDwP8vBAR4ifxaAhgLwNyDKt+smdkZGDfvn2YN28ebr75ZqxcuRLFxcX2GhsRSUjckZAUw/oCZyEuJTS2tKNDZ5B4NOSurAoGM2fOxMGDB/Hee+8hJycHa9aswW233YZf//rX2Lp1K1pbW+01TiJysFLzqYrckeA84iICLP/OLYtkL1avBXh7e2Pq1Kl4//33cfDgQSxduhQAsHTpUkycOBGLFy/Gd999B6PRaPPBEpHjlJmXErgjwXlEhPrCSyl8bLPOgOxlQEUCYWFhuP/++zF37lxMmjQJHR0d+PLLLzFv3jzccccd+Oabb2w1TiJyIHW7DvXNGgA8VdGZyGQyy5ZF1hmQvfQrGBgMBhw6dAhPP/20ZZagpKQECxcuxO7du/HRRx8hNjYWTzzxBA4dOmTrMRORnYmNjQAuJTgbsc6gqo5bFsk+rNqVcPnyZWzduhU7duxAfX09fH19cfvtt+P+++/H6NGjLbsUEhMTMWzYMIwZMwbffvstJk2aZJfBE5F9iI2NQgJ9EBzgLfFo6KfELYvVPH6Z7MSqYLBx40Zs2rQJI0eOxO9//3vccccdCAzsfn+zj48PBg8ejGHDhtlkoETkOFcLD7mM4GxiI9j9kOzLqmAwdepU/OY3v0FaWlqPrzGZTJDJZPDy8sL27dsHPEAicjyxh0FyLBsbORtxKaGhWQOd3mgpRiSyFav+RJ05cwafffZZj19///33MX369AEPioikJfYwYOGh8xGXEkwmWFpWE9nSNWcMioqKoNVqAQDnzp3DlStXUFBQ0OV1er0e3333HVpaWmw/SiJymGaVFi1tHQBYeOiMIsP8oVTIoDeYUFWvRiIbUJGNXTMY7N27F8uXL+907Z577unx9XfdddfAR0VEkhGXEQD2MHBGCrkMUWH+qKpvY5MjsotrBoO5c+ciKCgIRqMRX3zxBVQqFWbNmtXldXK5HGFhYZgyZYpdBkpEjiEWHkaF+sHPx6oyJHKQ2IgAIRiwAJHs4Jp/65VKJWbOnAkACA0NhVqtxowZM+w+MCKSBusLnF9cZADyznNnAtmHVb8OTJs2zV7jICIncXVHApcRnFUsT1kkO+o1GJSVlWH27NmYMmUKXnvtNaxYsQKff/55rw8cNGgQ1q1bZ9NBEpHjlDMYOD0xGNRd0cBgMEKh4JZFsp1eg4G3tzeys7ORnJwMAIiPj0d2dnavD0xKSrLd6IjIoeqbNFBr9QCA5DgGA2cVb96yaDSaUNukRlwk+02Q7fQaDGJiYrBq1SrLf8+aNavbwkMicg8l5tkCuVyGhGj+sHFWUeH+kMtlMBqFLYsMBmRL/Zp/+umRyu3t7fjyyy8tOxaIyHWJhYdxEQHwUiokHg31RKmQIzLEDwDrDMj2rCo+NBgMePPNN7Fr1y7s27cPOp0Oc+bMwenTpwEA0dHR2LhxI1JSUuwyWCKyr9IqIdwn8owEpxcXGYDaJjV3JpDNWTVj8O9//xvr1q1DVlYW9Ho99uzZg9OnT+OBBx7A6tWrIZfL8c4779hrrERkZ8WVzQCA1HjWFzi7uChxZwJPWSTbsioY7Nq1C+PHj8fq1auhVCqxe/duyGQyPPXUU7jpppvw2GOPYe/evfYaKxHZkd5gRGWdUGOQGh8i8WjoWsRgUFnLJVyyLauCQUNDA4YNGwaZTAaj0YiDBw8iJycHoaGhAIDw8HC0tbXBZDLZZbBEZD/lNa3QG4S/u+nxXEpwdglRwqxObVMbdHrjNV5N1HdWBYOgoCA0NDQAAM6ePYuGhgZMnDjR8vVLly4hPDwcMpnMtqMkIrsrrhQKDwP8vBAZ5ifxaOhaEqKFGQOjCaiu56wB2Y5VxYc33ngjli1bhqSkJOzbtw8A8Mtf/hIqlQrbt2/HBx98gNtvv90uAyUi+xKDQQpbIbuEqDA/eCvl6NAbUVHXhiQWjJKNWBUMfvWrX+H48eN47733IJfL8cQTTyAzMxNlZWV46aWXMHToUPzhD3+w11iJyI7EYJDKZQSXIJPJEBsZiNLqFlSwzoBsyKpg4OXlhbfeegt//vOfoVQqERwsfIDEx8dj3bp1GD9+PORytuYkckUMBq4nIVoMBtyySLbTrzNVw8PDO/23QqHoVGtARK6loVmDVnUHAO5IcCVinQFnDMiWrA4GX331FT799FPU1dV16oAoSk9Px9tvv22TwRGRYxRXXm2FnBzL9rquIiFK+P+qsrZV4pGQO7EqGOzduxcLFy6El5cXMjIy4OPj02UHgre3t00HSET2JzY2SogMZCtkF5IQLWxZVGv1uNKqRWiQj8QjIndgVTD45JNPEBYWhs8//xyxsbE2GYBer8eqVauwY8cOtLa2Yvjw4Xj66aeRlpbW632XL1/G3/72Nxw5cgR6vR7XXXcd5s+fj5EjR1peYzQasWbNGnz++edobm7GsGHD8NRTTyErK8smYydyF5YdCQlcRnAl8ealBEBYTmAwIFuwqlKwqakJN9xwg81CAQC8+OKLWLt2LR544AE899xzqKysxEMPPYTGxsYe76mpqcGDDz6I/Px8LF68GH/605/Q2tqKuXPn4uTJk5bXvfHGG3j33Xdx9913409/+hOampowZ84cVFdX22z8RO6gxFJ4yFbIrsTPR4mwIF8AQGUd6wzINqwKBunp6WhqarLZN6+srMSnn36Kp59+GvPnz8f06dOxYcMGGAwGrF27tsf7Nm3aBK1Wi/Xr1+Oee+7BnXfeif/7v/9DXFyc5b7GxkZs3LgRTz75JP77v/8bd955JzZs2ABfX1988MEHNnsPRK5OqzOgytwgh4WHrkc8HpsFiGQrVgWDBQsW4OjRo9ixYwcMBsOAv/m+fftgMplw8803W66FhIRg3Lhx2LNnT4/3JSYm4ne/+x3CwsIs13x8fJCSkoKKigoAwMGDB6HT6XDTTTdZXuPv74/Jkyf3+mwiT1Na1QqjuYs5Zwxcz9WdCdyySLZhVY3B8ePHkZaWhiVLluDVV19FXFwcFIrOhUqpqan4y1/+0qfn5efnIzg4GDExMZ2uDx48GF999RU6Ojq6LWZ84IEHulxramrC6dOn8Ytf/AIAUFBQAC8vL6SmpnZ6XWZmJrZt24aWlhZLHwYiTybWF4QE+Fimpcl1xEeLOxM4Y0C2YVUwqKmpgUwmw9ChQwEAJpMJer2+02usmUlob29HaGhol50N4qFMWq22T7scDAYDnnvuObS3t2P+/PmWZwcFBUGp7PwWQ0KEqVK1Ws1gQISfHrXMvw+u6OeHKXkp2WSOBsaqYLBgwQIsWLDAZt/caDR2e+CSeK0vIUOr1eLZZ5/F3r178e677yIjI8NmzybyBOx46NoSf3aYEs9MoIHqd7RsamrCDz/8gLKyMhiNRjQ3N1v9DF9fX7S3t3e5rtFoAAB+fr2f8NbY2IiHH34Yu3fvxnvvvWdZRvjps39+BLT4/a71bCJPUVplDgbcquiSIs2HKQFAOesMyAasDgalpaV49NFHMWnSJDz00EPYunUr6urqMHnyZHz44YddfhD3ZsiQIaipqYFare50vbCwEBEREb0uI5SWluKBBx5AeXk5Nm7ciFtvvbXT17OystDW1mY5Jvqnzw4ICOAyAhGA2kY11FphOZCFh65JPEwJ4JZFsg2rgkFjYyNmz56N06dP45FHHkFcXJzwELkcw4YNw+uvv45PP/20z88bPXo0AHTqPWA0GpGXl4eJEyd2uxQACLMV8+bNg1KpxCeffILc3Nwen52Xl2e5ZjKZcPz4cYwbN65L7QGRJyqsEGYLlAq5pb0uuZ6rWxY5Y0ADZ1Uw2LJlC9rb2/Gvf/0LTz/9NKKiogAAUVFR2LRpEyZNmoTNmzf3+XmZmZnIzc3Fyy+/jPPnz6OtrQ2vvfYaioqKMGvWLMvrPv74YyxatAharRYAsGLFCpSXl2PatGk4cOAAtm7davnnq6++AiBsaRw3bhz+53/+B2fOnIFGo8Fbb72Fs2fPYvbs2da8bSK3JRYeJsUEQaFg0Zqr4mFKZEtW/dp86NAhTJ8+vcv2QkA4YXHmzJlYvHgxTCZTj7/t/5RcLsf//u//4plnnsHdd98NAAgMDMTrr7+OUaNGWV53+vRp7Ny5E8uWLYPRaMT27dsBAH/729+6PHPQoEG47bbbIJPJsGLFCjzzzDO4//77AQh9DF588UVMmTLFmrdN5LZKzIcnsfDQtYlnJvAwJbIFq4KByWTqtYagvb0dCoWiT6FAFB8fjw0bNqCyshIqlQqpqaldaguWLVuGZcuWWf771KlTfXp2VFQU1q5di+rqarS0tHT7bCJPxq2K7kFcBlJr9WhqbWc/ChoQq+YOx44di3//+9+oqanp8rWOjg5s2rQJY8aM6ddA4uPjkZmZ2e0PbplMZtU/PxcbG9vjs4k8lbpdh9omofCXrZBd208PU6pknQENkFXB4Ne//jWMRiNmzpyJVatWoampCeXl5fj444/xwAMP4PTp05gzZ469xkpENlRSdXXamTsSXBsPUyJbsmopISYmBhs2bMAzzzyDlStXAgDKysqwc+dOhIaG4qWXXurUS4CInJfY2CgyxA+B/pxNc3UJ0YFoam1nASINmNV79oYNG4bt27fj8uXLOHPmDAwGA2JjYzFmzBh4eXnZY4xEZAesL3AviTGBOHO5HuU1DAY0MP3ezJ+RkWFpP0xErqfI3MMghcHALSTFCMtBpdUtEo+EXF2fg8GlS5fw8ccf4+DBg6irq0NHRwcCAgIwdOhQ3HrrrbjvvvsQEBBw7QcRkeSMRhPKa7hV0Z0kxQrBoKG5Hep2Hfx9OYNL/dOnYLBmzRq8+eabAABvb2+kpqZCoVBApVLh8OHDOHz4MD788EO8//77GDZsmF0HTEQDV1WvglYnHCSWxmDgFpLjrhaQllarMCQ1TMLRkCu7ZjDYuXMn3nzzTSQnJ+P555/H+PHjO9USNDQ04PPPP8fKlSvxu9/9Djt37uQ5BEROrtjc2MjHW4GYCM70uYMgf2+EBvrgikqLsuoWBgPqt2tuV/zggw8QHh6Ozz77DFOmTOlSYBgREYH58+fjrbfeQl1dnVVnJRCRNMTCw+SYYMjlfW9IRs4tOU74pay0ih0Qqf96DQYqlQoXLlzAjBkzrjkLMHXqVMTExOD777+36QCJyPYKy4UCtbREzu65k+RYsQCRwYD6r9dg0NTUBABISEi45oNkMhnS09NRV1dnm5ERkd0UVlwBAKQnhEo8ErKlq8GAOxOo/3oNBgaDUJzU1/4ESqUSOp1u4KMiIrtpaNagpa0DAJCeyFbI7kRcSmhp60CzSivxaMhV9aklcl8PRbLm8CQiksZl8zKCUiGz/IZJ7iEpJtDy71xOoP7iAexEHqawXFhGSIwJhpeSHwHuxNdHiegwfwAsQKT+61Mfg6VLl2Lp0qV9euCQIUMGNCAisi+x42F6AgsP3VFSbBBqm9QoY50B9VOvwcDPzw8TJ0606oHJyckDGhAR2Zc4Y5CeyMJDd5QcG4Tj+TUoreaZCdQ/vQaDmJgYrFu3zlFjISI7a1Zp0djSDoCFh+5KrBvhjAH1FxcYiTyI2L9ALgNS4lh46I7E1shqrR71VzQSj4ZcEYMBkQcR+xfERwXB17vfh6uSE0uIDrR0s+TOBOoPBgMiDyJuVUxL4DKCu/JSKhBnPv+COxOoPxgMiDxIsdjxkK2Q3VpirPnMBM4YUD8wGBB5iDaNDjWNagDckeDukmOFRkdsjUz9wWBA5CHE/gUAexi4O3FnQmWtCkajSeLRkKthMCDyEJfN/QtiwwPg79u380/INYnBQKszoNY8S0TUVwwGRB6isEI8apmFh+4uLioQSoXw8V7COgOyEoMBkYcosnQ8ZDBwdwq5DPFR5jqDKtYZkHUYDIg8QHuHHpX1QovcdG5V9AgpcdyZQP3DYEDkAYorWmEy16BxxsAzpMYLwaC4gjMGZB0GAyIPIHY8jAjxRXCAt8SjIUdIM+88qWpQoV2rl3g05EoYDIg8QGF5MwAgPYH9CzyFOGNgMgHF7IBIVmAwIPIAl83BII0dDz1GSKAPwoN9AQDFFc0Sj4ZcCYMBkZvT6Q2oqBV+Y+SMgWcRz8QoZDAgKzAYELm5kqpWGMzd73hGgmexFCBWsgCR+o7BgMjNFZl/WwwJ9EFEiJ/EoyFHEmcMyqpbLOGQ6FoYDIjc3NXCQ25T9DTimRgdeqNlOYnoWhgMiNycWHjI/gWeJzrcH/4+SgDsZ0B9x2BA5MYMBqPl6N00zhh4HJlMhpR44f/3okoWIFLfMBgQubHyWhV0eiMAIIMzBh4pzVyAWMQZA+ojBgMiNybWFwT4eiE63F/i0ZAUxJki7kygvmIwIHJjYjDgMoLnEv+/b1V3oP6KRuLRkCtgMCByY2JjG/Yv8FyJMYFQyGUAgEIuJ1AfMBgQuSmTyYTiSp6R4Om8lHIkxgQBYGtk6hsGAyI3VVmnQnuHAQBnDDyduJxQxDoD6gMGAyI3VVgu/BDw81EiPipQ4tGQlMSdCZwxoL5wmmBQW1uLy5cvQ6vVWn1va2srKioq7DAqItdVWHEFAJASFwyZTCbxaEhK4oxBbZMabRqdxKMhZ6eUegANDQ34/e9/j2PHjgEAwsLC8MILL+COO+7o0/0GgwFLliyBj48P3n333U5f27dvH/7f//t/Xe654YYb8N577w188EROTJwxYCtkSku4upRUXNmC7IwICUdDzk7SYGAymfD444+jsbERn332GWJjY7Fy5UosWbIE6enpyMrK6vX+9vZ2PPvss9i3bx+mTZvW5evnzp2DTCbD4sWLO11PSEiw6fsgckZipzu2QiZ/Xy9Eh/mjtkmNoopmBgPqlaTB4Ny5c8jLy8OqVauQk5MDAHj55Zdx7NgxrF27Fm+88UaP93733Xd49dVXUV9fj4iI7v+Q5+fnIzs7Gw8//LBdxk/krGobr04ZMxgQAKQmhKC2Sc0ti3RNktYYHDx4EAAwcuRIyzWFQoGRI0fi8OHDvd67fv16ZGVl4YsvvkB8fHy3r8nPz0dubi46OjpQXV0NjYbNPcgziAcnef9kqxp5tkFJQkC8XHZF4pGQs5N0xqCsrAxRUVEICen8G01GRgY+//xztLe3w9fXt9t7//KXvyAoqOcPPJVKhdLSUpw5cwZjxoxBe3s7/Pz8MHPmTDz99NPw9va26XshciZF5urzpNhgS3Mb8myDkoReFhV1rdBo9fDzkbzEjJyUpH8ytFot/Pz8ulz39xd6uvcWDHoLBQBw/vx5AEJx4vvvv4/Q0FDs2rULa9asgUajwbJlywY4eiLnJbZCTk9g/wISZJiDgckkzCjlsM6AeiBpMOhpC5XJZAIgLCv0V2ZmJj766CNkZ2cjICAAAJCTk4Pm5mb885//xOLFi3usTSBydZZgkMiOhyQI9PNCbEQAqhvacKn0CoMB9UjSGoPAwEC0trZ2ud7SIhTH+Pj49PvZQUFBGDt2rCUUiG666Sbo9XpcunSp388mcmYNzRo0twn9QFh4SD8lLidcYp0B9ULSYDBixAg0NTWhsbGx0/WLFy8iLS1tQHUAJ06cwLp16yyzDyKxAPFaSxFErkrsX6CQy5ASxz/ndNWgZCEYsACReiNpMBg9ejQA4Ntvv7VcU6lUOHr0KG666aYBPbugoADLly/HqVOnLNdMJhO2b9+O2NhYDBkyZEDPJ3JWYsfDhOggeCn7vxxH7kecMahtUqOlrUPi0ZCzkjQYJCQk4N5778WyZcuwYcMG7NmzB/Pnz4der8dDDz1ked1rr72GCRMmQK1W9/nZ9957LxITE/H444/j888/x759+/Dkk09i//79+POf/wy53Gm6QRPZVJF5xiCDywj0M2kJwRA3qVwu47kJ1D3J96u89NJLSEpKwvr169HW1obhw4fjo48+QlJSkuU1UVFRyMjI6PGHeXZ2dpdCQj8/P2zZsgXvv/8+3nnnHWg0GuTk5OCjjz7C2LFj7fqeiKQkzhiwvoB+ztdbiYToIJTVtOJiWROuHxIl9ZDICclMP1+Ep14tWbIEO3bswMaNGzFmzBiph0PUSbNKi9+++DUAYNnjkzEkLUziEZGzeW/LSXz7fRlGD4vFs7/lZxh1xfl0IjdSZG53K5MBqQksPKSuLDsTSpskHgk5KwYDIjdSaO54GB8ZCF9vyVcKyQkNThJmka6otGhoZpt46orBgMiNXCpjYyPqXUp8EJQK4aP/YikLEKkrBgMiN1JYJkwPZySx8JC6p1TIkRIntMq+XMblBOqKwYDITbS0daDuijA1nMEZA+rF4GSxAyJnDKgrBgMiNyHuS5fLeHgS9U4sQLxczg6I1BWDAZGbuGSeFk6ICoIvj9SlXgwyLzW1aXSoqldJPBpyNgwGRG5CPCMhPYnLCNS7hOgg+HoL7bIvsQCRfobBgMhNXC43Fx6y4yFdg1wuQ3qCECAvsp8B/QyDAZEbuNKqRUNzOwAggzMG1AeZKcKfk4JiBgPqjMGAyA1cLjcXHsplSGPhIfVBVppwvkxxZTO0rrVkSgAAIABJREFUOoPEoyFnwmBA5AYulwnV5YnRQfDx4lHLdG1DUoUOiAajCRdLuTuBrmIwIHID4owB6wuor4IDvBEfGQgAOF/cKPFoyJkwGBC5AXHGgPUFZI0s8+mbBUWsM6CrGAyIXFxjSzuaWoXCw0EMBmSFoanhAIDzJY0wmUwSj4acBYMBkYsTOx4q5DKkxvOoZeq7IeYZgzaNDuU1rRKPhpwFgwGRixPb2ibFBsNLycJD6ruE6CAE+XsD4LZFuorBgMjFiTMGGYncpkjWy0oRZg3yWWdAZgwGRC5OnDHISAqTeCTkirLSzHUG3JlAZgwGRC6s/ooGzSotAGAQj1qmfhhiLkCsbmjDlVatxKMhZ8BgQOTCxP4FSoUcyXEsPCTrDUoKgVIhA8A6AxIwGBC5MLF/QXJsMLyU/OtM1vP2UlgOVDpf3CDxaMgZ8JOEyIWx8JBsYQgbHdFPMBgQuTAWHpItZJnrDAormqHT80AlT8dgQOSi6prUaFV3AGDHQxoYsQBRbzDiknkWijwXgwGRixI/wL2UciTHBko8GnJloUE+iA0PAADkF3HboqdjMCByUT8tPFQo+FeZBmZohjBrcOZSvcQjIanx04TIRYlbFQcl8ahlGrjhgyIBAAVFjdAbjBKPhqTEYEDkonjUMtlSzmAhGGh1BlwouSLxaEhKDAZELqimoQ1t7ToALDwk2wgP9kVitNAk68eLdRKPhqTEYEDkgsRlBB8vBRJj2PGQbCN3cAQA4PRF1hl4MgYDIhd0oURoRJMaHwKFXCbxaMhd5A6OAgBcLG1Cu1Yv8WhIKgwGRC5IXAPOTOEyAtlOTkYE5DLAYDThbCG3LXoqBgMiF6M3GFFUIQYDdjwk2wnw80Ka+dyE06wz8FgMBkQupriyBR16YTsZgwHZ2nDz7oQfWWfgsRgMiFyMWF8QFuSLyFA/iUdD7kasMyipakFLW4fEoyEpMBgQuZjzJVxGIPsZmhYGpbmTJrsgeiYGAyIXc7FEKAobzMJDsgNvLwWyUoT2yNy26JkYDIhcSLNKi5pGNQBYPryJbE3sZ8A6A8/EYEDkQsRtinK5DBk8I4HsZHimUGdQ3dCG+iaNxKMhR2MwIHIhF0uFwsOU2GD4eCkkHg25q0FJofDzUQLgrIEnYjAgciHijgQ2NiJ7UshlyM4Qti0eL6iVeDTkaAwGRC7CaDThUpm4I4H1BWRfo4dFAwBOna/lMcwehsGAyEWU17RCY+5fn8UZA7KzkUOFYKDR6nH2MtsjexKl1AMAgCtXruDAgQNobW3F8OHDkZOTY9X958+fR3V1NW688cYuX2ttbcX+/fvR3NyMYcOG4brrrrPVsIkcSuxfEOjnhbioQIlHQ+4uIsQPaQkhKKpoxg/nqjEiM1LqIZGDSB4M8vLy8Oijj0KpVCIsLAyFhYV4+OGH8eyzz0Imu/apcY2NjXjyyScxePDgLsHg3Llz+O1vfwuj0YioqChcunQJM2fOxKuvvtqnZxM5kwti/4JkNjYixxg9LAZFFc04fq4G82dY9wsbuS5JlxL0ej2efPJJXHfdddi7dy927tyJ119/HevXr8eePXuueX9hYSFmz56NoqKiLl8zGo1YtGgRMjIy8O233+LLL7/Eu+++i08//RTbt2+3x9shsquL7HhIDjYmOxYAUNOoRnlNq8SjIUeRNBgcOXIENTU1eOKJJ+Dr6wuZTIYZM2ZgxIgR2Lx5c6/3fvjhh7j77rsRFhaGlJSULl8/deoUiouL8dhjjyEgIAAAMG3aNEycOBFbtmyxy/shshd1uw7ldcIHM4MBOUpGYgjCgnwBAN+frZF4NOQokgaDo0ePQi6XY8iQIZ2u5+Tk4MSJEzCZTD3eW15ejqVLl2Ljxo0IDg7u8vVjx44BALKzs7s8+8cff4ROp7PBOyByjIulzTCZAJmMWxXJsUaZdyf8cI7BwFNIGgwaGhoQGxsLX1/fTtcTExOhUqmgVqt7vPf555/Hgw8+CIWi+yYvDQ0NCA4ORmho5w/RpKQk6HQ6NDU1DfwNEDnIucIGAEBidBD8fb0kHg15ktHDhOWECyWNaFXztEVPIGkw0Gq18PLq+iHn7e0NAOjo6P8fQns+m8jRzl0WgkF2RoTEIyFPMzwzEt5KOYwm4EQ+mx15AkmDgVKphNHYtXGGwWAAcPWHuLM9m8iROnQGXDC3QmYwIEfz8VIgd7BwdgLrDDyDpMEgKioKDQ0NXX6A19fXQy6Xd1lisEZkZCSam5u7zAzU1wt9v/39/fv9bCJHulB6xdJ5jsGApDB6WAwAdkH0FJIGg5EjR0KtVqOioqLT9YKCAuTk5PRYP9DXZxuNRhQWFnZ5dkZGBgID2SCGXMOZS0KYTYwOQkigj8SjIU8kFiCqtXqcK2QXRHcnaTAYNWoUvLy8sHXrVsu1oqIiHD58GHfccYflWk1NDS5dutTt0kBPRowYAX9//05bEysrK7F3717cfvvttnkDRA5wztyOdlgGz0cgaYhdEAHg6OkqiUdD9iZp58OQkBA8/fTTWLZsGQoLC5GYmIht27Zh0KD/396dR0dVJugf/9aSjUCAJGTBhCA7AcIWIAQUlEUcEZFGQMXWxmV0XNppFKTF047drWNr22O7gtqNjqAojAoICsgqsq+hs7BDEpJgIGRfavv9UUn9jKxCkltJPZ9zPEdv3Ruf0lB58t73fW8nJk2a5Dnv9ddfZ/HixezevfuybwEEBgYye/Zsfv/735OVlUWnTp344osviI6O5p577qmvtyRSp2x2BwdPuItBz47aklaMMzghmqPZhWzem8O08T2xmLV7bFNl+JbIv/71r4mPj+eLL74gNzeXRx55hEmTJtUa6h8xYgTR0dFYreeP+/Pza/zqV7+iU6dOLFq0iJMnTzJt2jQmT55My5Yt6+39iNSlgycKqbK7R8o0YiBGGtqnLQtWpFNYWsm/Dp8mobOKalNleDEASExMJDEx8YKvjxgxghEjRlzw9Z+OLvxc79696d2791XlEzFKzfyCa9o09+xAJ2KEyLBgOsa04nDWWX7Yk61i0ITpscsiXqxmY6P4DhotEOMl924LwJaUXBxandBkqRiIeCmb3cmB4+79C3p20m9nYrwhfaIBKC6rYt+h0wankfqiYiDipQ5lnqXS5t6QK177F4gXaNO6GV2qH/v9w57sS5wtjZWKgYiXqplfEB0eTGiI5heIdxjSx307Yev+XG121ESpGIh4qZqNZOI7aLRAvMfg3u7bCaXlNvYeyDc4jdQHFQMRL2R3OMk4XrN/gYqBeI+wlkF0a++eDPv97pMGp5H6oGIg4oUOZRZSWeWeX9Cjk4qBeJea2wk7/pWDze4wOI3UNRUDES+0J8P9eNuosGDCWgYZnEaktsG9ozGZ3M9O2JX+o9FxpI6pGIh4od3VH7b9ukUYnETkXK1bBHq26F6/I8vgNFLXVAxEvExhSSWHs9z7F/TtrmIg3ml4YgwAO9NyKSmrusTZ0pioGIh4mb0H8nG5wN9q1sRD8VpJvaIJ9Ldgd7g0CbGJUTEQ8TK70tzzC3p0DMffz2JwGpHzCwywMqiXexLiWt1OaFJUDES8iMvl8kw87Kv5BeLlbhjgvp1wKLOA7FPFBqeRuqJiIOJFDmUWUlx9v7ZftzYGpxG5uJ4dwwhv5V41s3a7Rg2aChUDES+yNSUHcC9TjG7T3OA0IhdnMpkY1t89arB+ZxZOp8vgRFIXVAxEvMjWlFwAknpFGZxE5PLcUL064UxRBSmHtEVyU6BiIOIlMnOLOJlfAkBSQluD04hcnug2zT1PXNTthKZBxUDES2ze5x4tCGsZSKfYlganEbl8wwfEArBtfw5lFTaD08jVUjEQ8RJbqucXDOwZhclkMjiNyOUb0qctflYzlTYHm/fmGB1HrpKKgYgXyDtdyvGcIgCSeuk2gjQuzYP8GNjT/Tjm1VtPGJxGrpaKgYgX2LArG4CQYH+6dwg1OI3ILzdiYDsADpwoIDO3yOA0cjVUDES8wPqd7klbQ/teg8Ws2wjS+CR0DiOidTMAVm3RqEFjpmIgYrCM4wXk5JcCcENirMFpRK6MyWTixoHu79/1O7Ow2Z0GJ5IrpWIgYrB1OzIBiI1sQYcYrUaQxuvGgbGYTVBSbvPsySGNj4qBiIFsdieb9rifTDdcowXSyIW1DKJft0hAkxAbMxUDEQNt2ZdDabkNswmu73+N0XFErtqIQe5JiCmHfuTUmTKD08iVUDEQMdDSDUcASIyPJjQk0OA0Ilevf3wkrVu4v5c1atA4qRiIGCTjeAGHs84CMPb6aw1OI1I3LGYTw6ufn7BmWyYOPVip0VExEDHIsg1HAYiLDqFHxzCD04jUnZHVtxMKiivYlXbK4DTyS6kYiBgg/2w5W1Lckw7HXtfB4DQidSsqPJgeHcIB+E63ExodFQMRAyxadQCn00XL4ACu66ctkKXpGZnkHjXYmZ5HQVGFwWnkl1AxEGlgeadLWbPdvXfBhBGd8LNaDE4kUvcGJ0QRHOiH0+nyfL9L46BiINLAFq48iMPpIjQkkJuS44yOI1Iv/KwWhvWvnoS4VcWgMVExEGlAJ3KK2LjL/SE5cVQXjRZIk1ZzOyH3TCn7D502OI1cLhUDkQbicrmYszgFpwuiwoIZMVA7HUrTFhcdQseYVgCs0iTERkPFQKSBrNmWSfqxMwA8OKEXVov++EnTN6p61GBryklKyqoMTiOXQ59MIg3gbHElHy1LBSC5d1v6dG1jcCKRhjG07zUE+luw2Z2s35ltdBy5DCoGIg3gzU/3UFJuo1mAld/c1sPoOCINJijASnJv95JcbZHcOKgYiNSzZRuPsDvDvfvbQ79K0DMRxOeMTHKvvjmRW8TBE2cNTiOXomIgUo8OZxby8ddpAFzfL4br+ukJiuJ7usa1JjayBQCrtx43OI1cioqBSD0pKK7gv/+5DZvdSWRoMx6c0NPoSCKGqXkc86Y9J6motBucRi5GxUCkHtjsTl6Zt5MzRRUE+lt4ZtoAmgX6GR1LxDDD+sdgtZgpr7Szac9Jo+PIRagYiNSD9/4vhYzj7qWJj9/Zj3ZRIQYnEjFWSLA/A3tGAZqE6O1UDETq2IpNx/hum/uD745RXUjqFWVwIhHvUPM45gMnCsjMLTI4jVyI1egAAJs3b+brr7+muLiYhIQE7r77bgIDLz5z2+VysXz5ctatW4fdbue6665j/PjxmM3/v+ucPHmSZcuWnXNtu3btGDNmTJ2/D5H0owX886v9AAzsEc3k0V0MTiTiPRI6hxPRuhmnCspYvTVTS3e9lOEjBp988gn33Xcf+fn5hIaG8uabb3LPPfdQVXXxHbL++Mc/8vTTT2MymfDz82P27NnMnDmz1jmbNm3ir3/9K++//36tv7799tv6fEviowpLKvnr/+7A4XQRE9GCJ+7qg8lkMjqWiNcwmUzcWL0V+PqdWdjsToMTyfkYOmJQXFzMyy+/zLRp0zw/1O+66y5uv/12PvnkE+69997zXpeRkcH8+fN56aWXmDBhAgCjR4/m0Ucf5fbbbyc5ORmAtLQ0YmNjWb16dcO8IfFZTqeL/5m/2zPZ8Ol7+xMU4BUDciJe5caBsXy2MoPisiq27c9lSJ+2RkeSnzF0xGDDhg2Ul5czceJEz7HOnTuTlJR03lsANVasWIGfnx+33nqr59jIkSOJioqqdV16ejq9evWqn/AiP/HZqgPsO/gjAI/c0ZuY6jXbIlJbWMsg+naLBDQJ0VsZWgx2795NQEAA7du3r3W8a9eupKWl4XA4znvdnj176Ny5M35+fudct3+/+/6u0+kkPT2d2NhY3n77bWbNmsUbb7zByZNaJiN1a3fGjyxafQCAmwbHMbSvNjESuZiaPQ32HfyRU2fKDE4jP2doMSgpKaFNmzZYLLWfSR8REYHNZqO8vPyC10VERJxzPCIigsLCQgCysrIoLS1l7ty5bNy4kYKCAv7xj39w8803s3nz5rp/M+KTCksqeX3+Llwu6BjTit/cpk2MRC4lsXsErZoHABo18EaGFgObzXZOKQA8x2w223mvq6qqwmo99/6t1Wr1XFNSUkJSUhJvvPEGn3zyCe+++y7fffcdkZGRzJ49G6dTk17k6s1bkkpxWRXNAqw8/ev++FkNn88r4vUsFjM3DHBPQly7PROH02VwIvkpQz/F/P39sdvP3Rqz5of7hZYs+vv7n7c02Gw2zzXx8fF8+OGHjBo1yvN6aGgo9957L1lZWaSmptbFWxAftvdAPht2ZQEwdWw8bUKbGZxIpPGo2dPgTFEFu9NPGZxGfsrQYhAXF0dubu45SxMzMzMJCgoiICDgvNe1a9eO7Oxzn+udmZlJaGjoRf+d11zjvv9bWlp6halFoMrmYO6ifQB0iWvN6KR2BicSaVyiwoPp0SEc0O0Eb2NoMUhMTMThcHD48OFax1NTU0lMTKy1WdHPrzt69GitOQh2u5309HQSExMBeOedd+jbty8lJSW1rt2/fz9ms5nOnTvX8bsRX7Jo9UFyz5RiMZt4ZGKC9isQuQIjqwv1zrQ8CooqDE4jNQwtBr169SIiIoLXXnuNigr3N8WKFSvYvXs3t99+u+e8zZs3M3/+fM/tg+uvvx6z2cxrr72Gw+HA5XLxzjvvUFhY6Llu2LBhlJWVec4B9/LFjz76iDFjxlxyZEHkQjJzi/hq3SEAxg3rSLtoPQdB5EoMTogiONAPp9PFmu2ZRseRaobuwBIQEMCrr77Kf/zHfzBixAjCw8NJT09n0qRJ3HzzzZ7zli5dyuLFi7n99tvx8/MjJiaG559/nueff541a9ZgtVo5duwYM2fOpGvXroB7jsHMmTP5y1/+wvr162nVqhX79+9n8ODBvPDCC0a9ZWkC3l2Ugt3hIjK0GXdoy2ORK+ZntTA8MYavvz/K6i0nmHBjJ42+eQGTy+UyfDpoSUkJa9asoaSkhN69exMfH1/rm+PIkSOcPn2afv361VrFkJ+fz9q1a3G5XAwaNIi4uLhzvnZ+fj7ff/895eXl9OjRg4SEhKvKOn36dJYtW8bHH3/MgAEDruprSeOzdX8uf5m3HYDZDybRt2sbgxOJNG5ZecX89pV1AMx+IIm+3fRnymhesWdr8+bNGTdu3AVf79ChAx06dDjneHh4OHfcccdFv3Z4eDjjx4+/6owiLpeLT7/JAKBPlwiVApE6EBPZgu7XhpF29DQrNx9XMfACWnQtcpl+2JvDiepHxd55c1eD04g0HaMHu0d7d6TlckaTEA2nYiByGZxOFwu/dY8WDIiPolNsK4MTiTQdgxOiaB7knoSopYvGUzEQuQwbd2eT/aN76euUMZpwKFKX/KwWz06I3205gVM7IRpKxUDkEhwOJ599635IUlJCW9q3bWlwIpGmZ3SS+3ZCfmE5uzN+NDiNb1MxELmEtTuyyD1TiskEU0ZrYyyR+tA2orlnJ8SVm48bnMa3qRiIXITN7uTzVe7RgiF9YoiN0mZGIvWlZhLirrRc8gvO/3RdqX8qBiIX8d3WE+SfLcdsNjHlJo0WiNSnQb2iaBkcgNMFy78/anQcn6ViIHIBVTYHi1YfBGBY/xiiw5sbnEikafOzmrlpiHvUYNWW45RXnvv0Xal/KgYiF/Dt5uMUFFdgMZuYNEorEUQawpjk9vhbzZRV2vlOSxcNoWIgch4VVXa++M79oKQRA9sREdrM4EQivqFl8wCG9Y8B4OuNR3Fo6WKDUzEQOY8V3x+jsLQSP6uZiaM0t0CkId06zL0F/qmCMram5BicxveoGIj8TFmFjS/XukcLRiXFEdYyyOBEIr7lmogW9O8eCcCSdUcMTuN7VAxEfmbZhqOUlNsI8LMwYUQno+OI+KRxwzoCcDCzgPRjBQan8S0qBiI/UVJuY+n6w4B7ElTrFoEGJxLxTT07hXFt9S6jS9YdNjiNb1ExEPmJJesOU1ZpJ9Dfwm03dDQ6johPG1c912D7v3LIqX5WidQ/FQORakWlVZ5NVW65rgMtmwcYnEjEtw3p05bwVkE4XfBp9fNKpP6pGIhU+3LNIcor7TQLsDJuuEYLRIxmsZi5o3oPkU17szmRW2RwIt+gYiACnC4s55sfjgFw67CONA/yMziRiADckBhDVFgwLhd88o1GDRqCioEI8PHXGVTaHLQMDmDs9dcaHUdEqlksZiaPdo8abNufQ8ZxrVCobyoG4vMOZxayYVcmAFPGdKVZoEYLRLzJ0L7X0L56hcL7/7cfp3ZDrFcqBuLz5i35FwCxkS0YMaidwWlE5OfMZhMP3N4TgCPZZ/luW6bBiZo2FQPxaVtSckg9ehqAe8f1wGI2GZxIRM6n+7WhDO1zDQDzl6dRVFplcKKmS8VAfJbd4eR/l6YB0KdLBH27tjE4kYhczK9v7U5QgJXisireXZRidJwmS8VAfNby74+Se6YUswnuG9fd6DgicglhLYO4b1wPALamnGTDrmyDEzVNKgbik84UVfD5SvfSp5GD4oiNCjE4kYhcjpGD2pFY/YCl9xbvIze/1OBETY+KgfikOYtSKKu00zzIjyljuhodR0R+gYcnJRAS7E9ZpZ3//sd2yipsRkdqUlQMxOds3JXNjtRcAO4f31NbH4s0Mq1bBPLUrxOxmE1knirm9QV7cGgJY51RMRCfkl9QzvtfuCctJXaP5Pr+MQYnEpEr0aNjGNPGu5cw7kjN5c1P92h/gzqiYiA+w+Fw8tePd1JSbqN5kB8PTexldCQRuQpjktszvvq5Jht2ZfHWZ3s1clAHVAzEZ3y8PI0D1dupPnFXP8JaBhmcSESu1j1j47llqHsb83U7Mnnpg22ac3CVVAzEJ6zacpwl648AcNvwjvTvHmFwIhGpK9PG9/SMHOzOOMXv39jEiRw9ifFKqRhIk7cz7RRzF+8D3BsZ3X1zN4MTiUhdu2dsPA9PTMBsNpGZV8zT/7ORJesP43Lp1sIvpWIgTdrOtFO88uF2nC5o37YlT93bH4tF3/YiTdGopDj++MgQIlo3w+5w8uHSVJ5/dwv5Z8uNjtao6BNSmqwf9p7kL/O2YbM7iQoL5tkHBhIUYDU6lojUo27Xtua1p4Zx44BYAPYfzufJV9bx1brD2B1Og9M1DioG0uQ4nS7mL0/jr/+7E7vDRWxkC/70aDKhIYFGRxORBhAUYOXRyX14+t4BtGjmT3mlnY+WpfK7V9ez98CPRsfzevr1SZqU3PxS3vpsL6lH3E9M7NY+lJm/GUBIsL/ByUSkoSX1iqJHx1AWrEhn1ZbjZP9YwgtztzCoZzS/uS2eNq2bGR3RK6kYSJNQVmFj2YajfLHmIFV293DhzUPac9+4Hlg1p0DEZ7Vo5s+//yqBUYPieP+L/WQcP8PW/TnsyTjF+Bs6cfuNHfGzWoyO6VVUDKRRKym3sWzDEb7ecISySjvg3i71oYkJDOwRaXA6EfEWHWJa8uLjQ1i3I4uPlqVSWFLJwpUZrNuRyX3jejCwZ5TREb2GioE0SkeyClm/M4s12054CkGAv4WbBsdxx6guNAv0MzihiHij4YkxDOwZyWcrD/D190fJO1PGy/O2E39tGPeOi6dTbCujIxpOxUAajTNFFazfmcX6HVlk5hV7jgf6WxiT3J5xwzvqgUgicknNAv24b1wPRgyM5R9fpbLv4I+kHj3NzNc3MrTPNUz9t260CfXd+QcqBuLVKqrsbEvJZd2OLFIO/chPt0GPDg9mWP8Ybkpur8mFIvKLxUaF8Id/T2JX+ik+WppKZl4x3+/JZktKDv82tD2/GtmF5kG+N/qoYiBeKeN4Aau3HGfzvhzKq28VAAQH+jG0b1uGJ8bSJa61gQlFpKno1y2CPl3asGZ7Jp9+k0FBcQVL1h9h1ZYTjEluz9jrO9Cqhe+MRqoYiNcoLqti/Y4sVm89UetWgdViom+3SIYnxtC/eyR+Vq0yEJG6ZTabGDmoHUP7tmXJuiN8te4Q5ZV2vlh7iK83HuHGge0Yf0NHn1jiqGIghnK5XOw/fJrVW06wJSWn1s5k7aJCGDmoHdf1u0a3CkSkQQT6W5k0ugs3D23P1xuPsnzjUUorbHzzwzFWbTnO0L4x3Da8A3HRIUZHrTeGFwO73c5bb73FsmXLKC4uplevXjzzzDN07NjxotcVFxfzyiuvsG7dOhwOB0OGDGHGjBmEh4d7znE6ncydO5cvvviCwsJCunfvzowZM+jevXt9vy25hLPFlazdnsnqrSfIPV3qOR4UYCW5d1tGJcXRuZ1mB4uIMVo082fKTV25bXhHvv3hOEvXH+ZsSSXrd2ayfmcmnWNbM2pwO4b0aUugv+E/SuuUyWXwo6eeffZZVqxYweOPP050dDRz584lJyeHZcuWERYWdt5rnE4nd955Jzk5OTzxxBNYLBb+/ve/ExISwqJFi/Dzc08WefHFF/n000957LHHaN++PR988AGHDx9m6dKlREdHX1He6dOns2zZMj7++GMGDBhwxe/bFzmcLvYdzGfVlhPs+FcOjp/MJOwc25qRSe0Y2qctgXqegYh4GZvdwZrtWSxZd7jWLzPNAqwkJUQzuHdbEjqHN4kN1Qz9BM7OzmbRokX813/9F1OmTAEgOTmZ0aNH8/777zNz5szzXrdp0yb27NnDggUL6N+/PwAJCQnccsstLF26lAkTJnD69Gnmz5/P7373O+6//34Ahg4dypgxY3jnnXd44YUXGuZN+riKKjt7MvLZ/q9cdqbmUVxW5XmtWYCVYYkxjEqKa9LDciLS+PlZ3fukjE5qR8qh06zacpxt+3Moq7SzZnsma7ZnEhzkx8AeUfTrHkGPjmGNdvm0ocVg/fr1AAwfPtxzLCQkhIEDB7Ju3boLFoO1a9fSvHlz+vXr5znWsWNHrr32WtauXcuECRP4/vvvsdvttb52s2bNGDp0KGvXrq2nd+Q9nE4XxWVVFJdWUVRqo6jU/fclZVXY7E6c1QODeJZQAAAMlklEQVRFLpeLmjEjq8VMYICFoAA/ggIsBPhbCQqwEhhgIdDfQmCAlcAA9zGL2VTr32ezOykqraSgqJKj2UUcyT7LkawijucUYrPXfqJZt/ahjEqKY3DvaAL8tBWpiDQeJpOJhM7hJHQOp7Ckko27stm09yQHjhdQWm5j7Y5M1u7IBCA2sgU9O4XRMaYV7aJDiI1sjn8j+MwztBikp6cTEhJCZGTtrWu7dOnCt99+S1VVFf7+5046S09Pp2vXrphMtX84de3alfT0dAAyMjLw8/MjLi7unK+9ePFiioqKCAkx/rdUp9PF2ZJKHA4nDocLu8OJw+nC7nDhdFb/80+OOxxOyivtFJdVUVJmo7TMRnGZjZKafy63UVRaSWmFjfq8SWS1mAkKsBLgZ6G0wlZrSeHPmc0murcPY2DPSAb2jCLChzcOEZGmo2XzAMZe34Gx13fgdGE5m/flsC0lj4zjZ7A7nGTmFddaYWUyQWRoMG1aB9E6JIiwlgG0Dgn0/AIW4G91/xLmbyXA34zFbMJc/VdggJUWzRpmErahxaCiooJWrVqd8wO+ZcuWAFRWVp63GFRUVBAVde6+1iEhIZSWlnrOadGiBVar9ZxzAMrKyq6oGOzfvx+Axx9/3DOX4WoUllbhaKBnhJtNJkwmEz/7z11LzQiCq/rvr4TJZMJqMWG1mLFYzPhZzORuhqY/TiMi4mZ3OLHZ3X85nC7P52naVXzN5s388a/D5doLFy6kbdu25xw3tBi4XK5zSgHgOeZ0nv8HpsPhuOB1Nf/xnU7nFX3tS7HZbAAUFBRc0fW+wmZ0ABGRJuZsRd1+PYfDcd7jhhaDgIAAysvLzzlecywoKOi81wUGBl7wusDAQM85FRUV55SPmutqzvul1qxZc0XXiYiINAaGrqvo1q0bp06d8gz/1zhy5Ajh4eEXHKrv1q0bx44dO+f4kSNHuOaaazznlJaWkp+ff845wcHBXjG/QERExNsYWgwSExMB2LNnj+eYw+Fg165dJCcnn/dWQM112dnZ5OXleY4VFRVx4MABkpOTATzLGHft2uU5x+VysXPnTgYNGnTO3AMRERExuBh06dKF3r1788ILL5CWlkZxcTF//vOfOXbsGHfddZfnvAULFvDEE09QWVkJwLBhw2jTpg3Tp08nKyuLvLw8nn76acxmMxMmTAAgJiaGwYMH89JLL7Fv3z5KS0t59dVXSU1NZerUqYa8XxEREW9n+M6Hubm5PPPMM2zevBlwr0iYPXs248aN85zz7LPPsnjxYnbt2kWzZu6lbikpKTz33HOkpbnneLZt25ZXXnnFMwoBcPr0aWbNmuXZL6F58+bMnDmTSZMmNdTbExERaVQMLwY18vLyKCkpIS4u7rKH+V0uF1lZWTidTtq1a3fBWw+nTp2iuLiY2NjY8y5/FBERETevKQYiIiJivMb/tAcRERGpMyoGIiIi4qFiICIiIh4qBiIiIuKhYiAiIiIeKgYiIiLioX2BfdiGDRtYuXIlf/rTn4yO4jOqqqpYsWIFmzZtoqqqip49ezJ+/HjCw8ONjtYknTlzhs8//5zU1FRat27NlClT6Natm9GxfEZFRQXLly9ny5Yt2Gw2EhISuO222wgNDTU6mk/68MMPsdlsPPDAAxc9T/sY+Ki8vDxuvfVWysrK2L9/v9FxfILNZuPee+8lJSWFsWPHEhQUxHfffUdVVRULFizg2muvNTpik/Ljjz9y1113UVFRwZgxY9i9ezepqam89957DBkyxOh4TV5FRQVTp07l4MGDjB07Fn9/f1auXInZbOaTTz4hJibG6Ig+ZdOmTUybNo3k5GT++c9/XvRcjRj4IKfTyaxZsygrKzM6ik9ZsWIFO3fu5KOPPmLQoEEAPProo4wfP5433niD1157zeCETcv7779PUVERK1asIDQ0FKfTyWOPPcZzzz3HqlWrsFgsRkds0r766itSUlL4/PPPSUhIAODhhx/mtttu491339VIZQMqKCjgmWeeueATi39Ocwx80Pz58zl48CB33nmn0VF8yvHjx+nTp4+nFACEhYWRmJjI3r17DUzW9LhcLpYvX86IESM8w9Zms5mpU6eSnZ1d64muUj8yMzMZPHiwpxQAREZG0qdPH/bt22dgMt/icrn4wx/+QJcuXTxPHb4UFQMfc+jQIV555RVeeuklWrZsaXQcn/L444+zcOHCWsecTieHDx8mKirKoFRNU25uLqdOnSI+Pr7W8Zr5Bbp9Vv+eeuop5s2bV+uY3W7n6NGjREZGGpTK93z11Vds2bKFF1988YLPE/o53UpoArp27XrR1zMyMgD3xLfp06czceJEhg4dqt+a6tDl/j/4uQ8//JCMjAz+9re/1Ucsn1VSUgJAREREreOhoaFYLBYKCwuNiOXz5s6dy7Fjx5g1a5bRUXxCZmYmL7zwAn/+859/URnTiIEP+fvf/05lZSVPP/200VEEWLJkCS+//DJ33XUXN998s9FxmhSbzQZw3nkEZrPZ87o0nM8++4zXX3+dadOmMXz4cKPjNHkOh4MZM2Zw4403/uLPF40YNAEX+m30p7Zt28a8efNYsGABQUFBDZDKt1zO/4MaLpeLN998kzfffJPJkyfz3HPPXfYQn1yemser2+32WsddLhd2u53AwEAjYvkkp9PJq6++ygcffMB9993HjBkzjI7kE9577z2ys7OZM2fOL75WxcBHLFq0CLvdzv333+85VlFRgc1mY8CAAdxxxx36A9sAqqqqePbZZ1myZAnTp0/nwQcfVCmoB9HR0ZjNZrKzs2sdP3nyJC6XS+voG0hFRQVPPfUUq1evZvbs2dxzzz1GR/IZCxcu5MyZM4wYMcJzrOYW24ABA3jxxRcZNWrUea9VMfAR48ePp3fv3rWOrV+/no0bN/Lkk0/SpUsXg5L5DqfTyYwZM1i9ejVvvPEGo0ePNjpSkxUcHEx8fDxpaWm1jqempgKQmJhoRCyf4nA4+O1vf8vmzZuZM2cOw4YNMzqST/ntb39LaWlprWMfffSRZ3XOxT7zVQx8RHJyMsnJybWOFRQU8MMPP3D33XcblMq3LFy4kBUrVvCf//mfdOnShWPHjnles1gsxMbGGpiu6Rk5ciRvvfUWU6dOpXfv3hQWFvLWW28RHx9Pp06djI7X5M2bN49169Yxa9Ys4uLian2/W61WbXBUz8aPH3/OsVWrVmEymS75ma+dD33Ym2++ybvvvqulWw1kzJgxHD169LyvRUREsHHjxgZO1LRVVVXxyCOPsGnTJhISEjh69Cj+/v58+OGHKgYN4PrrrycvL++8r8XFxbFy5coGTiT33XcfJpPpkjsfqhj4sKysLHJychgwYIDRUXzCjh07cDgc533Nz8+Pfv36NXCips/lcrFr1y7S0tIICwvjuuuuo3nz5kbH8glbt2694GuBgYHn3NqU+peeng5wyeeFqBiIiIiIh/YxEBEREQ8VAxEREfFQMRAREREPFQMRERHxUDEQERERDxUDERER8dDOhyJiKJfLRVVVFSaTyfPwo5+rrKwE3Ps9mM36fUakPulPmIgYbtKkSSQlJVFUVHTOa19++SUJCQk89thjOJ1OA9KJ+BYVAxExlMlk4uGHH6a0tJQFCxbUem3btm08++yzdOvWjb/97W9YrRrkFKlv2vlQRAzncDi45ZZbOHv2LGvXriUoKIgjR44wefJkAgMDWbRoEZGRkUbHFPEJGjEQEcNZLBYeeughCgoKWLRoEWfOnOGhhx7Cbrczd+5clQKRBqQRAxHxCjabjVGjRuFyuWjbti27d+9mzpw5DBs2zOhoIj5FIwYi4hX8/Px44IEHyM3NZdeuXTz33HMqBSIGUDEQEa+Rm5sLQHh4OFOmTDE4jYhvUjEQEa+wcOFC3nvvPdq0aUN+fj7ffPON0ZFEfJKKgYgYbsOGDTz//PP07duXL7/8kuDgYObMmYOmQIk0PBUDETFUeno6Tz75JDExMbz99tuEh4czdepUMjIy2LBhg9HxRHyOViWIiGHy8vKYOHEilZWVfPbZZ7Rv3x6AM2fOMHz4cHr27HnOpkciUr80YiAihigpKeHBBx+koKCAt99+21MKAEJDQ5k8eTI7d+5kx44dBqYU8T0qBiLS4Ox2O08++SQZGRm8/PLLJCYmnnPO/fffj9VqZc6cOQYkFPFdupUgIg2uvLyckydP4ufnR7t27S54XmZmJlVVVXTo0AGTydSACUV8l4qBiIiIeOhWgoiIiHioGIiIiIiHioGIiIh4qBiIiIiIh4qBiIiIeKgYiIiIiIeKgYiIiHj8P2/4gJCgpTVkAAAAAElFTkSuQmCC;" vertex="1" parent="1">
          <mxGeometry x="71.31" y="51" width="235.37" height="244" as="geometry" />
        </mxCell>
        <mxCell id="1XD5un0cPilmK_VXMZru-70" value="" style="shape=image;verticalLabelPosition=bottom;labelBackgroundColor=default;verticalAlign=top;aspect=fixed;imageAspect=0;image=data:image/png,iVBORw0KGgoAAAANSUhEUgAAAjkAAAJPCAYAAACekMWxAAAgAElEQVR4nOzdeXxU9bk/8M9s2TPZF8IOCQkBESSgIGqFKigIFpdqUQEXRG259QpVRLT+pPditVq9WqzV0qL0VltbhKotFRDUq2yySAxhS0gI2TOZJdusvz/OnMkMSUgmmeWcM5/363Vfr3A4Z+Y7vZI8eb7P93lULpfLBSIiIiKFUYd7AURERETBwCCHiIiIFIlBDhERESmSNtwLUBKn04mWlhaoVCokJCSEezlEREQRjZmcADpz5gyKioowa9ascC+FiIgo4jHIISIiIkVikENERESKxCCHiIiIFIlBDhERESkSgxwiIiJSJAY5REREpEgMcoiIiEiRGOQQERGRIjHIISIiIkVikENERESKxCCHiIiIFIlBDhERESmSJIOctrY2NDU1wW63+/2s1WpFU1MTbDZbEFZGREREcqEN9wK8NTQ04JlnnsFnn30Gu92OlJQU/PjHP8aiRYugUqku+qzRaMR///d/45NPPkF7eztiY2Nx++23Y8WKFUhISPDcZ7PZcNNNN3UbQM2ZMwcrV64M+OciIiKi0JNMkGO32/Hggw+ioqICq1evxogRI7B582Y899xziI6Oxm233dbjsy6XCw899BCOHj2KRx99FAUFBTh69CheffVVVFZWYsOGDZ57z5w5g7KyMowfPx6DBg3yeZ3s7OygfT4iIiIKLckEOR999BGOHTuGX//617jhhhsAANOnT8eSJUvw4osvYsGCBYiKiur22T179uDgwYN48sknsXjxYgDAlVdeCYvFgrfeegvHjx9HQUEBAKCkpAQA8PTTT+PSSy8NwScjIiKicJBMTc7OnTuh0Wgwa9YszzW1Wo158+ahubkZ+/fv7/HZnJwcPProo5gzZ47P9aFDhwIQtsFEJSUl0Gg0yM/PD/AnICIiIimRTCbn0KFDyM3N7ZKtETMwxcXFuPLKK7t9Ni8vD3l5eT7XOjo68Pe//x1xcXEoLCz0XC8pKUFeXh4OHz6MHTt2oKWlBVOmTMENN9yAmJiYAH8qIiIiChfJBDkWi8UT0HjLysoCABgMhj69TklJCd5//33s2rULHR0dePnll5GamgpAqN0pKSlBa2sr7rvvPowaNQoNDQ344IMPsGHDBrzzzjue9yMiIiJ5k8x2ldVqhU6n63JdvGa1Wvv0OqdPn0Z1dTViY2NhNpvxr3/9y/NsfX09Ojo6MH78eHz66afYtm0bPv/8czz11FM4e/Ys1q5dG7gPRERERGElmUyOTqeDw+Hocl086t1T0fGF5s2bh3nz5sHlcuG3v/0tXn75ZaSnp+Oxxx5DZmYmjhw5AofDAa1W+OharRZ33303duzYgd27d6O2tpbZHCIiIgWQTCYnKSmp2y0p8VpcXJxfr6dSqXD//fcjPT0dH3/8sc91McDxNmXKFABAVVWVX+9DRERE0iSZIGfSpEk4efIkXC6Xz/XS0lIAwNixY3t8dvfu3Vi/fn2XLS2tVou0tDRYLBbPa7399tsoLy/v8hpmsxmAEGwRERGR/EkmyJk8eTJaWlpw5MgRn+tffPEFdDodpk6d2uOzJSUl2LhxI7766iuf65WVlSgtLcXkyZMBADU1NfjlL3+Jbdu2+dxntVqxfft2DB8+HKNGjQrQJyIiCr72DjuOnWpEs7kj3EshkhzJBDlz585FWloaVq5ciQMHDsBoNOI3v/kNPvzwQyxZsgR6vd5z74oVK3DPPfd4/nzHHXcgKSkJTz75JL7++mtYLBbs378fy5cvh06nw/LlywEAV111FfLz8/HGG2/ggw8+gNFoRGlpKR555BFUVVXhP//zP3sdH0FEJCW//MMBPPPG/+GB5/6Ndb/bi7PVpnAviUgyVK4L94fC6OjRo1izZg1OnDjhubZgwQKsW7fOp/B45syZqK+vx7fffuu5dvz4caxcuRInT570XBs1ahTWrl2L6dOne67V1tZi9erV+PLLLz3XBg8ejBUrVuDmm28e0PpPnTqFuXPnIjk5GXv37h3QaxER9eb/jpzHr9456HMtKT4av107CzqtJkyrIpIOSQU5gNDL5rvvvoPJZEJubi4yMjK63GM2m+F0OrvUz7hcLpw8eRJ1dXVIS0tDQUFBj5mZ2tpalJWVITY2FuPGjeu2GNlfDHKIKFTarXb8x/OfocHYBgAYmZOEsvNGAMB/3DkJV08eEs7lEUmCZI6Qi1QqFcaNG3fRexITE3t8dsyYMRgzZkyv75OVlcWj4kQkW3/fecoT4Cy/dQKunTIUD/y/f8PUYsW/vjrLIIcIEqrJISKivrHZnfjo8zIAwMjBSZg1dRi0GjVmThHm9R0vb0JlDWtziBjkEBHJzPHyJrR1CI1Sb/7eaKjVwrb8dVcM99yz/auKsKyNSEoY5BARyczh43UAAJUKmDCms24xOz0eE/KEP392oBJWW9cu8kSRhEEOEZHMHD7RAAAYNTgZ+njfkTezpg4DALR22HGq0hjytRFJCYMcIiIZaTZ3oNx9impiftfTp4WjUz1fl55tCtm6iKSIQQ4RkYwcPVHv+XpifmaXv0/VxyAtKQYAcOJsc8jWRSRFDHKIiGTkUKkQ5MRGa5E/PLnbe3KHCdmck2e7Dj0miiQMcoiIZMLlcuGIO5MzfnQ6NJruv4WLwY/B3I4GQ1vI1kckNQxyiIhkoqrOAqNFGMR5aTf1OKIxw1M8X5+oYDaHIheDHCIimThT1dngzzuQudDoIUnQuHvnnOCWFUUwBjlERDIhnqpSq1UYlp3Q431ROg2GDxJm+5UyyKEIxiCHiEgmyt2ZnMEZCb1OGR/jrsspqzLC7nAGfW1EUsQgh4hIJsrPC0HOiJykXu8Vt7NsdifKqjjHiiITgxwiIhkwmNthbBGKjkfk6Hu9P29o5/HyimoGORSZGOQQEclAeZXZ8/XIwb0HOVlpcZ7i46p6S9DWRSRlDHKIiGRALDoG+pbJ0WjUyE6LBwCcr2sJ2rqIpIxBDhGRDJS563FSEmOQlBDdp2dyMoQTWOeZyaEIxSCHiEgGznqKjnvP4ohyMoVMTk1jCxw8YUURiEEOEZHEWW0OnK8XanL8CXIGuzM5DqcLdU2tQVkbkZQxyCEikriKGjOcLuHrvhwfF+VkdjYMrKpnXQ5FHgY5REQSV1HdebJqRE5in5/LyYj3fF1Vx7ocijwMcoiIJE4sHFargOz0+F7u7pSUEI34WJ3PaxBFEgY5REQSd75BqKfJSImDVuPft+2cdPcJKx4jpwjEIIeISOKq3VmYQek9D+XsiViXw4aAFIkY5BARSVxtk5CFGZQR5/ezg93HyI2WDrS22wK6LiKpY5BDRCRhTaZ2dFgdAPyrxxGJDQEB4DxPWFGEYZBDRCRh1V6BSX+2q8RMDgCc5wkrijAMcoiIJKy6oTPIyenHdtWg9HiohDmd7JVDEYdBDhGRhIlFx2q1Cpkp/gc5Oq0GKYkxAIC6praAro1I6hjkEBFJmHh8PDMlDho/j4+L0lNiAQANzRztQJGFQQ4RkYR1Hh/3v+hYlJ4sZIAaDMzkUGRhkENEJFEuV+dgzUEZ/Q9yMlKE7aomUxuc4hAsogjAIIeISKKaTO3osAnHxweSyclw1/LYHS4YzO0BWRuRHDDIISKSqOr6zhqa/hwfF6Unx3q+bmhmkEORg0EOEZFEVTd09rXpz/FxkbhdBQD1PGFFEYRBDhGRRIk9cjRqFdL7cXxc5P1sPU9YUQRhkENEJFFiX5v05Fho1Kp+v05CrA6x0VoAPGFFkYVBDhGRRNW7A5KMAWRxRGJdDmtyKJIwyCEikqh6g7C1lJEa28udvRODHPFIOlEkYJBDRCRBVpsDRksHACAjZeBBjvgajUZuV1HkYJBDRCRB3rUz/ZlZdSFxtENLmw1tHfYBvx6RHDDIISKSoDqvICcQNTneryFugxEpHYMcIiIJqvcJcmIucmffeDcErDew+JgiA4McIiIJErMtKhWQlhyImpzOQKmhmXU5FBkY5BARSZCYyUlJjIFWM/Bv1alJsRBb7dTzhBVFCAY5REQSFMgeOYDQNTlVL2SE6tkrhyIEgxwiIgny9MgJwPFxkXjCqpHbVRQhGOQQEUmMw+lCk0nItgQyyEnWC3U5BhMzORQZGOQQEUlMk7ENTqcLAJCRGpjtKgBI1UcDAJrNDHIoMjDIISKSGO8j3oHM5KS4MzntVgda220Be10iqWKQQ0QkMd7zpTIDGOSImRwAaDZ1BOx1iaSKQQ4RkcTUeXUkTg9CJgcAmswMckj5GOQQEUlMgzvISYyLQkyUNmCvm+KVyTEYWZdDyscgh4hIYhoM4smqwBUdAxdkcnjCiiIAgxwiIolpdGdZ0pIHPrPKW2JcFHRa4ds+T1hRJGCQQ0QkMU1GoVlfWlJggxwASE6Idr8Ha3JI+SQZ5LS1taGxsRF2u93vZzs6OtDY2Air1XrR+1wuF5qammCxWPq7TCKigGu32tHaIXzv895eCpQUT0NABjmkfJIKcurr6/HII4+gqKgI06dPx4wZM/DOO+/A5XL1+qzRaMTjjz+OqVOnYvr06ZgyZQr+67/+q9sgZsuWLZg1axamTZuGyZMn495770VFRUUwPhIRkV+8uxEHI5MjBjncrqJIELiy/QGy2+148MEHUVlZidWrV2PkyJHYvHkz1q1bh5iYGNx22209PutyufDQQw/h6NGjePTRRzF27FgcOXIEr776KiorK7FhwwbPvZ999hkef/xxXH311Xj22Wdx7tw5vPLKK7j33nuxdetWxMUFttCPiMgfjV7bSMHJ5Li3q1h4TBFAMkHORx99hOLiYvz617/GDTfcAACYNm0ali5dihdffBELFixAVFRUt8/u2bMHBw8exJNPPonFixcDAKZPnw6LxYK33noLx48fR0FBAVwuF9avX4/c3Fxs2LABWq3w8fPy8rBo0SK8++67WLZsWWg+MBFRN7yPdqclRV/kzv4RA6e2DjvarfaAHlEnkhrJbFft3LkTGo0Gs2bN8lxTq9WYO3cumpubsX///h6fzcnJwaOPPoo5c+b4XB86dCgAoKGhAQBQXl6OsrIyzJo1yxPgAEBRURFycnKwffv2QH4kIiK/NXoFOSlJgWsEKEr1yg6x6zEpnWSCnEOHDiE3N7dLtqagoAAAUFxc3OOzeXl5WL58ObKysjzX2tvb8fe//x1xcXEoLCwEABw+fBgAMHbs2C6vkZ+fj+PHj/er2JmIKFDEmpxonQYJsbqAv75vrxwGOaRskslTWiwWT0DjTQxcDAZDn16npKQE7733Hnbt2gWr1YqXX34ZqampnvcAgEGDBnV5Ljs7GzabDW1tbUhMTOzvxyAiGhAxk5OSGPh6HABI9doCM7AuhxROMpkcq9UKna7rby3itd6OhItOnz6NmpoaxMXFwWw241//+pfn2Y4O4bcW760qkXitr+9DRBQMYuCRGoSTVQCQnMgghyKHZDI5Op0ODoejy3Vx+6inouMLzZs3D/PmzYPL5cKbb76Jl156Cenp6Xjsscc8gYzT6ezynPjefX0fIqJgaBIzOUEKcvTxUdBqVLA7XDxhRYonmUxOUlJSt1tS4jV/j3arVCrcd999SE9Px8cffwwASE5O9nnN7t4nOjrwpxmIiPrK4O5fE4yTVYDwvTE5gQ0BKTJIJsiZNGkSTp482aXxX2lpKYDui4VFu3fvxvr167tsNWm1WqSlpXlqcSZNmgQAOHnyZJfXKC0tRV5eHjM5RBQ2phYrbHYh0xyMHjmiZHY9pgghmSCnqKgILS0tOHLkiM/1L774AjqdDlOnTu3x2ZKSEmzcuBFfffWVz/XKykqUlpZi8uTJAIBhw4YhIyMDX3zxhU8wVVlZibKyMsyYMSOAn4iIyD++3Y4Df3xcJDYEZE0OKZ1kgpy5c+ciLS0NK1euxIEDB2A0GvGb3/wGH374IZYsWQK9Xu+5d8WKFbjnnns8f77jjjuQlJSEJ598El9//TUsFgv27duH5cuXQ6fTYfny5QCENO3ixYvx1Vdf4fnnn0dTUxO+/fZbPPLII4iLi8OSJUtC/rmJiEQ+PXKCmMlJFYMcjnYghZNM4XFycjLeeOMNrFmzBosWLfJcX7BgAVasWOFz77Fjx1BfX+/z7KZNm7Bq1SpPx2MAGDVqFN58801MmDDBc+2+++5DY2MjNm/ejI0bNwIA0tLS8NprryE7OztYH4+IqFfB7nYs0rsnkbe02WB3OKHVSOb3XaKAkkyQAwATJkzA1q1bUVJSApPJhNGjRyMjI6PLfR9++GGXE1IFBQXYunUrTp06hdraWqSlpaGgoAAqlcrnPrVajSeeeALLli3DqVOnEBMTg8LCwm6PlRMRhZJ3JidYR8gBIDmhM4AyWjqCujVGFE6S+8muUqk8HYp70lOzPpVKhby8POTl5fX6PqmpqRet8yEiCjWxRiYhVgedVhO090ny6pVjNFsZ5JBiMUdJRCQRnh45QazHAYAkr0xOs4UnrEi5GOQQEUlEo0nskRPczEpKYmerDBODHFIwBjlERBLR2e04uE1J9d6ZHDNH2ZByMcghIpIAh8MJU4uQVUkLYtExAMTH6jwnqowWHiMn5WKQQ0QkAQZzB8QepcGuyQGApARhy6rZbAv6exGFC4McIiIJ8B6xkBqC007ilhVrckjJGOQQEUlAo7HN83VaCDI5Yq8cnq4iJWOQQ0QkAU0+jQCDW3gMdPbKMZoZ5JByMcghIpIAMchRq1U+fWyCRazJMbcyyCHlYpBDRCQBTe6anOSEaKjVql7uHjgxkLI7XLC0sfiYlIlBDhGRBISq27Eo2We0A4+RkzIxyCEikoAmd+FxqOZI6X2GdDKTQ8rEIIeISALE4ZyhKDoGfEc7GHnCihSKQQ4RUZi1d9jR2mEHAKQGuduxyHe0A4McUiYGOUREYSZmcQAgNUQ1OUnxzOSQ8jHIISIKs0ajd7fj0AQ5Go0aCbE6AAxySLkY5BARhVmTTyYnNDU5QOcxck4iJ6VikENEFGbeIx1CMbdKlMT5VaRwDHKIiMLM4O6REx2lQbx7CykUPKMdGOSQQjHIISIKs0Z3t+OUxNDU44jE0Q6cX0VKxSCHiCjMxExOqE5WicRMTmuHHTa7M6TvTRQKDHKIiMJM7HYcqpNVohTv0Q7csiIFYpBDRBRmBvd2Uai6HYsS4jp75ZgsPGFFysMgh4gojIyWDtgdwlZRKE9WAYDeqyGgqYVBDikPgxwiojDyLvoNdU2OPr7zJJeZQQ4pEIMcIqIwajJ1BjlJiaHdrkqM73w/ZnJIiRjkEBGFkXfBr/dk8FBI5HYVKRyDHCKiMDJ4ZXKSQ9wnR6NWeZoPWloZ5JDyMMghIgqjZrPQI0enVYe027EoMVbI5jCTQ0rEIIeIKIzE4ZjiHKlQE7esWHhMSsQgh4gojJrdp6tCvVUl0oujHdgnhxSIQQ4RURiJ21XJIT5ZJWImh5SMQQ4RURh1ZnJCe7JKJPbKsbQxyCHlYZBDRBQmDofTE1yEa7tK7JVjszvR1mEPyxqIgoVBDhFRmDRbOuByCV+Ha7vKe7SDhVtWpDAMcoiIwsRo7gwqwl2TAwCmFltY1kAULAxyiIjCxGD27nYcpu2qOHY9JuVikENEFCbiySog/IXHAGBu6bjInUTywyCHiChMms3eIx2ksF3FTA4pC4McIqIwEYOcmCgNYqK1YVlDYlwUVCrhawY5pDQMcoiIwkQMcsI10gEA1GoV4mOELSs2BCSlYZBDRBQm4R7pINK7e+WYWnm6ipSFQQ4RUZgYPUFO+DI5gNdoB86vIoVhkENEFCYGk3C6KkUvjSDHxNNVpDAMcoiIwsBmd6DVPUYhnDU5AJAYz5ocUiYGOUREYeB9fDzcmRxxtAOHdJLSMMghIgqDZq+RDklhLjwWt6vsDhda21l8TMrBIIeIKAx8RzpII5MDcMuKlIVBDhFRGBglMNJBlBjfGWRxSCcpCYMcIqIwMJjCP9JBpOdoB1IoBjlERGFgtAhBTly0FjqtJqxr0cd5D+lkkEPKwSCHiCgMxExOij68RccAkJjgnclhrxxSDgY5RERh4JlbFeatKgBIiNVB7R7SyUwOKQmDHCKiMGh2Fx6Hux4HAFQqFeJjxa7HDHJIORjkEBGFgViTI4UgB+gsPubpKlISBjlERCHW3mFHu9UBQDpBjmdIJzM5pCCSDHJaW1vR2NgIu93u97NWqxUNDQ1oaWkJwsqIiAbOe6SDVIIcvbtXjoVBDimINtwL8FZfX4+f//zn2LVrFxwOB1JSUvDII4/grrvugkqluuizjY2NeP755/Hpp596Apxp06bh0UcfxaWXXuq5z2azYd68ed0GUHPmzMGqVasC+6GIiC7gPdIhOcwjHUTikE7W5JCSSCbIsdvtePDBB1FZWYk1a9ZgxIgR2Lx5M9atW4eYmBjcdtttPT7rcDiwZMkSlJeXY9myZZg6dSoqKirw+uuv45577sHf/vY3jB49GgBw5swZlJeXY/z48Rg0aJDP61z4ZyKiYDB4dTsO90gHkViTY+aQTlIQyQQ5H330EYqLi/HKK69gzpw5AIRMzNKlS/Hiiy9iwYIFiIrqvvX5zp07ceLECaxduxZ33XUXAODyyy9HUVER5syZgz/84Q947rnnAAAlJSUAgKefftonw0NEFCre21VJYR7pIBJrcpxOFyxtNiTE6np5gkj6JFOTs3PnTmg0GsycOdNzTa1WY+7cuWhubsb+/ft7fNZoNGLs2LG4/vrrfa6PHDkSqampOH36tOdaSUkJNBoN8vPzA/8hiIj6QAxyVCogOUFamRwAMLMhICmEZDI5hw4dQm5ubpdsTUFBAQCguLgYV155ZbfP3nrrrbj11lu7XK+trUVTUxOmTZvmuVZSUoK8vDwcOnQIO3bsQGtrK6ZMmYIbbrgBMTHS2BsnImUTe+QkxEZBo5HG75qJPvOrbBiUHsbFEAWINP51AbBYLMjOzu5yPSsrCwBgMBj8ej2n04lnnnkGAHDnnXcCAFwuF0pKSnDq1Cncf//92Lt3Lz777DM88cQTmD9/Pmprawf4KYiIeicWHkvlZBVwwZBOC+tySBkkE+RYrVbodF33gMVrVmvf/9G5XC6sX78eu3btwv33348pU6YAEE5vWa1WjB8/Hjt27MC2bduwZ88erF27FmfPnsXatWsD82GIiC5C3K6SyskqwDfIsbQyyCFlkMx2lU6ng8Ph6HJdPOrdU9Hxhdrb27F69Wp8/PHH+OEPf4iVK1d6/i4zMxOHDx+Gw+GAVit8dK1Wi7vuuguffvopdu/ejdraWk/2iIgoGKQ00kHku13FIIeUQTKZnKSkpG63pMRrcXFxvb5GY2Mj7r77bnz88cf46U9/imeffbZLfx2VSuUJcLyJ2Z6qqqr+LJ+IqM86RzpI42QVAMTH6qB2T+lk12NSCskEOZMmTcLJkyfhcrl8rpeWlgIAxo4de9Hna2pqcPvtt+P48eN46aWX8NBDD3UJcEpLS/HWW2+hvLy8y/NmsxmAEGwREQVLS5sNNrsTgLS2qwAg0TOkk6erSBkkE+QUFRWhpaUFhw8f9rn++eefQ6fTYerUqT0+29bWhgceeAANDQ3YuHEj5s6d2+19NTU1eOGFF7Bt2zaf61arFdu3b8fw4cMxatSogX8YIqIeNHs3AtRLZ7sK4JBOUh7J1OTMnTsXr7/+OlatWoX169cjNzcXf/rTn7B161Y88MAD0Ov1nntXrFiB5uZmbNq0CQCwceNGnDhxAkVFRTh48CAOHjzo89oZGRlYuHAhrrrqKuTn5+ONN95ATk4OZs2ahZqaGvzqV79CVVUVXn311V7HRxARDYTBa6RDkkR65Ig4pJOURjJBTnJyMt544w2sWbMGixYt8lxfsGABVqxY4XPvsWPHUF9f7/mzmJk5cOAADhw40OW1x48fj4ULF0KtVuN3v/sdVq9ejSeffNLz94MHD8bzzz+P2bNnB/pjERH5MHp1O5ZaJodBDimNZIIcAJgwYQK2bt2KkpISmEwm5ObmIj29a0eqDz/8EE6n0/Pn9957r0stjzeNRuP5OisrC7///e9RW1uLsrIyxMbGYty4cd0WIxMRBZr33Copna4CAD2HdJLCSO4nu0qlQmFh4UXvSUxM9Pmz91ZWX2VlZfGoOBGFXLNJyOSo1SokxknndBUA6N3bZy1tVrhcLm7fk+xJpvCYiCgSNLuPj+vjojxHtqUiIU7I5DhdgKWNxcckfwxyiIhCSMzkJOuldXwcAPTxndtnZo52IAVgkENEFEKekQ4SO1kFdB3SSSR3DHKIiELIE+RI7GQVcMGQTjYEJAVgkENEFCIul8sTPKRI7GQV0Hm6CuAxclIGBjlERCFiarHC4RTaXSRJMMjx2a7iJHJSAAY5REQhIg7mBKSZyYmL0UGr4ZBOUg4GOUREIWIwdQYOUhvOKUqIZddjUg4GOUREIWL06XYsrUaAIs9oh1aeriL5Y5BDRBQiBq+5VVIb6SASuzAzk0NKwCCHiChExOGcWo0aCRIb6SBKcGdyLMzkkAIwyCEiChExk5OUIM0ABwAS3aMdmMkhJWCQQ0QUImImR6pFx0BnQ0BLG4Mckj8GOUREISJmcqR4fFwkbqM5nC60tnPLiuSNQQ4RUYg0u09XSbERoCiRXY9JQRjkEBGFgMPpgtndRViqJ6uAztNVAI+Rk/wxyCEiCgGTpQMuYaKDtIMcr9EOZk4iJ5ljkENEFALN5s6tnxS9dAuPxdNVADyZJyK5YpBDRBQCzV6NAJMS5JLJYZBD8sYgh4goBJq9Rjqk6KXbJyfBpyaHQQ7JG4McIqIQ8B3pIN3tKo1ahbhoLQBmckj+GOQQEYWA2AgwOkqDWHcQIVUc0klKwSCHiCgEPCMd4qVbjyMSt6wszOSQzDHIISIKgWaTe6SDXvpBjjjawcSaHJI5BjlERCFgtLiDnATp1uOImMkhpWCQQ+zbUzkAACAASURBVEQUAgaTcLoqWcInq0TiaAdLG2tySN4Y5BARBZnN7kSLe9illLsdi8TRDm0ddtgdzjCvhqj/GOQQEQWZuFUFSPv4uIgNAUkpGOQQEQVZs0+PHPlkcgA2BCR5Y5BDRBRkBlNnkJMihyAn3mt+FYd0kowxyCEiCjLf7SoZBDnM5JBCMMghIgoy8WQVIJMgh5kcUggGOUREQSbW5MRFaxGl04R5Nb1jJoeUgkEOEVGQNVuEQCFJBlkcAIiJ1kKrEX48sCEgyRmDHCKiIGsWGwHK4Pi4SMzmcLQDyRmDHCKiIBO3q+RQjyNKiHN3PWZNDskYgxwioiDzzK1KlP5IB5HePS2dNTkkZwxyiIiCqMPmQFuHHYC8tqsS3F2P2fGY5IxBDhFREDV7HR+XQyNAkT5OC4CZHJI3BjlEREFkMHcGCXI5XQV0zq/iJHKSMwY5RERB5D23KkVO21Xu01VOpwstDHRIphjkEBEFUbPZq9uxXk6Fx51rtXDLimSKQQ4RURB5Z3KSEuSzXZXg1fXYxGPkJFPacC+AiICG5jZ8urcCNpsDifHRKCrMxJCsxHAviwLA6A5yEmJ1ni7CcpAYz9EOJH8McojC7HiZAc//YR9MXkd1//efJfjPu4tw+fjsMK6MAsHgDnLkVI8DAPq4ziGdHO1AciWfXyuIFOiro9V45o3/8wlwAMDucOHFTQfwf0fOh2llFCjNJiHIkdPJKqCzTw7A0Q4kXwxyiMLEaOnAb947DLvDCY1ahYduuxQfvHgTHl86FVFaNZxOF17e/A1OnzOGe6k0AJ3djmUW5MTqoFIJX5tZk0MyxSCHKEz+9MlxtLo74f500WX4/uXDAABTx2Vh9X2XQ6NWwel04Y9bvwvnMmmAxNNVKXp5BTlqtQpx0e75VczkkEwxyCEKg7IqE3bsqwAATMrPxPRLc3z+fkJeOmZPHwEAKD7TgIMldSFfIw1cS5sNVrsTgLxGOojE4mOeriK5YpBDFAa/33IMLhegUauwdEFht/fcdt0YxEULZwPe+cd3cDpdoVwiBYB3j5xUmWVyACDRfYycmRySKwY5RCF2+pwR35U1AgBunDESgzO7Pyquj4/CzTNzAQCVtWZ8cagqZGukwPAd6SDfTA6HdJJcMcghCrEde88CAFQqYN7Voy56701Xj0JSvJAB+NdXZ4O+Ngosn+GcMup2LBIbArJPDskVgxyiEOqwOfD5N0JGZuKYTKQnx170/iidBt8rGgIAOF7ehOoGS9DXSIFj8J5bpZdfJkcfz8JjkjcGOUQh9NWRas+Jqlnu01S9mTl1qOfrnfsqg7IuCg6DO5Oj1ag89S1ykuBuCNhudcDmLqAmkhMGOUQh9Ole4USVPj4KU8Zl9emZIVmJyBuaAgD47MA5FiDLiMEkZECSE+SXxQE42oHkj0EOUYjUNragxF1w/L2iIX7NMZp1uZDNaTK14/CJ+qCsjwJPPF0lt27HIp9J5Cw+JhnyK8ix2+04ceJEsNbi0draisbGRtjtdr+ftVqtaGhoQEtLy0Xvc7lcaGxshMXCGgcKja+/rfF8fW3R0Ivc2dWVE3MQrdMAAHYfOBfQdVHwiNtVqTKsxwEumETeyl45JD9+BTk2mw033XQTFi5ciHfffRcGgyGgi6mvr8cjjzyCoqIiTJ8+HTNmzMA777wDl6v39HxjYyN+9rOf4fLLL8eVV16Jyy67DEuWLMGRI0e63LtlyxbMmjUL06dPx+TJk7F06VJUVFQE9LMQXejAd7UAgMyUOAwbpPfr2bgYHS4bK2xvHSqtg8PB+gg5aDaLIx3kV48DdBYeAzxGTvLkV5Cj0+lw5513orKyEs899xxmzJiBRx55BDt27IDNNrAo326348EHH8S+ffuwZs0a/P73v8dll12GdevW4S9/+ctFn3U4HFiyZAk++eQT3Hfffdi0aRPWrVuH8vJy3HPPPTh9+rTn3l27duHxxx9Hbm4u3n77bTz77LMoKSnB0qVLe83+EPWXpc2G4+VNAICiPtbiXEis4Wlps6GkPLC/YFDg2R1OTx1LsgIyOTxhRXKk9etmrRY///nP8eSTT2L37t3YsmULPvvsM3z66adISUnB/Pnz8YMf/ABjx471eyH/+Mc/UFxcjFdeeQVz5swBAEybNg1Lly7Fiy++iJtvvhlRUd3/NrRz506cOHECa9euxV133QUAuPzyy1FUVIQ5c+bgD3/4A5577jm4XC48//zzyM3NxW9+8xtotcLHz83NxaJFi7B582YsW7bM77UT9eZQSZ2nYLioMLtfrzGpIBNqFeB0AQeKazB+dFogl0gB1izz4+OAb+GxiZkckqF+FR5HRUXhuuuuw+uvv44vvvgCTz/9NEaMGIE//vGPuPnmmzF//nxs3LjRr+2sXbt2QaPRYObMmZ2LU6sxd+5cGI1G7N+/v8dnjUYjxo4di+uvv97n+siRI5GamurJ5JSXl6OsrAzf//73PQEOABQVFSEnJwfbt2/v83qJ/LGvWNiqio3WYtzo1H69hj4+CmOGC8+KW18kXd5BjtwmkIuidRpEaYUfE8zkkBwN+HRVSkoKFi1ahJdeegnLli1DdHQ0SktLsX79elx11VVYvXo1amt7/4Z86NAh5ObmdsnWFBQUAACKi4t7fPbWW2/Fli1bkJmZ6XO9trYWTU1NGDRoEADg8OHDPq/pLT8/H8ePH+9XsTPRxTgcThw+LvwbmJif6depqgsVFQpbVtUNLaiuZ9G8lBlMnUGOXAuPgc4tKw7pJDkaUJBjMBjwv//7v/jRj36Ea6+9Fm+++SZSU1Px8MMP480338T8+fPx4Ycf4uabb+410LFYLMjO7prGz8rK8ryXP5xOJ5555hkAwB133OF5DwCeoMdbdnY2bDYb2tra/Hofot58V9bkaQDY1944PSkq7AzkxewQSZP3cE65Fh4DnUEOj5CTHPlVkwMA7e3t2LVrF7Zt24bdu3fDbrcjKioK8+bNwy233IIrrrgCarUQO11zzTWYOHEi1q5di7///e9Yvnx5j69rtVqh0+m6XBevWa19/wfmcrmwfv167Nq1C/fffz+mTJkCAOjoEH6z8t6qEonX/Hkfor44Uir0tVGphLqagRiarUdmShzqDK048F0tFnxvdCCWSEHgnclJluFwTpHYK8fE7SqSIb+CnI6ODkyfPt1zCmnChAm45ZZbcOONN0Kv7/5I7IQJEwCg120gnU4Hh8PR5br4XE9Fxxdqb2/H6tWr8fHHH+OHP/whVq5c6fk7MZBxOrsevxXfu6/vQ9RXx04JDQBHDEryaa7WX5MLM/HJl+U4cbYJHTaHp38OSYvBncmJj9FBp5Vv39WEeDGTw+0qkh+/ghyn04nY2FjceeedWLhwIUaP7v23yJSUFGzYsAETJ0686H1JSUndbkmJ1+Li4np9r4aGBjz00EM4evQofvrTn2L58uVQqVSev09OTvZ5ze7eJzpangWCJE1tHXacrmoGAIzPDcxpqPG56fjky3LYHS4cLzPg0jHpAXldCqxm90gHOdfjAIDePb+KYx1IjvwKcnQ6HTZu3IhBgwYhMTGx23va2tqwb98+DB8+HCNGjEBWVpanruZiJk2ahN27d8PlcvkEJqWlpQDQ67H0mpoaLFq0CHV1dXjppZcwd+7cbt8DAE6ePIlrrrnG5+9KS0uRl5fHTA4FVElZk+fo+PjcwAQj47yOjhefbmCQI1Fit+Nkvbx/cRKPkbe0Wbt8fyaSun51PN6zZ0+P91RVVWHZsmXYuXOnXwspKipCS0uL5wSU6PPPP4dOp8PUqVN7fLatrQ0PPPAAGhoasHHjxm4DHAAYNmwYMjIy8MUXX/h0Ua6oqEBZWRlmzJjh15qJenPsVAMAQK0CCkf17+j4hRLjojAsW+9+/caAvCYFXufcKnlncsRJ5E6X0IiSSE56zeQcPXrUM69KLMr9+uuvuz2F5HK5PP1sNBr/6gTmzp2L119/HatWrcL69euRm5uLP/3pT9i6dSseeOABn5qfFStWoLm5GZs2bQIAbNy4ESdOnEBRUREOHjyIgwcP+rx2RkYGFi5cCJVKhcWLF+PFF1/E888/j2XLlqGqqgpr1qxBXFwcli5d6teaiXojBiEjBycjLqZrYX1/XZKbhooaE06fM6DdakdMlN9nCCjImi1C4XGqXt7ZYf0Fk8i9uyATSV2v3xnj4+PxzDPP+BQOv//++3j//fd7fCYmJgbXXnutXwtJTk7GG2+8gTVr1mDRokWe6wsWLMCKFSt87j127Bjq6zsnMW/btg0AcODAARw4cKDLa48fPx4LFy4EANx3331oamrCu+++i40bNwIA0tPT8dprr/VpW42or1rbbSgLcD2OaFxuOj76osxTlzMxPyOgr08DY2mzwWYXDjjI+WQV4DvawdxiwyDujpKM9BrkjB49Gm+//Tbq6upgtVo9QUh3hcQqlQrR0dGYNGkSMjL8/6Y7YcIEbN26FSUlJTCZTMjNzUV6etd/UVu3bvU5IfX+++9fdIineKRd/Prxxx/HsmXLcPLkScTGxqKwsNDvzBNRb4pPN8FdjhOwehzRuNFpUKkAl0uoy2GQIy3Nps4eOXId6SBK9MnkcLuK5KVPOe4rrrgCgLBdtW/fPsyfP7/X01L9pVKpUFhYeNF7EhISfP7cUxH0xaSkpFy0zodooIpPu+tx1CqMHRmYehxRQqwOwwclofy8kXU5EmRQwEgHkXi6CuAkcpIfvzbyo6Ki8Mtf/jJYayFSlJIyoS3ByJwkxEYHvmbmktw0lJ834vS5ZtblSEyzz0gHeQc5CRfU5BDJSa/fFVeuXAmn04n169cDAJ544ok+vfCPfvQjFBUVDWx1RDJltTlQfl6oxykYkRKU9ygYmYZte87A4XThVKWRU8klpMnkPdJB3kFOfIzOszXKTA7JTa9BzkcffQSn04lf/OIXnj/3xfe+972BrYxIxk5VGmF3CAU5BQHeqhLlj0j2fF1a3sQgR0KM7u0qrUYt+9NIarUK8TE6WNpszOSQ7PQa5OzatQtAZyfg3bt39+mFk5KSBrAsInkrLW/yfJ0fpExOSmKMZ47VibPNQXkP6p8m93aV3LM4osT4KCHI4WgHkpleg5wLJ4N3NymciHyVnhXqcdKTYpGWFBu09xkzPAV1hlafoIrCr9ksBjnyPlklSoyLQjVaYGEmh2SmX1PjamtrfRrunTx5Eo888gjuvPNO/OpXv+q2USBRJDlRLgQ5Y0YEZ6tKJGaJzK1W1DS0BPW9qO/EI+QpMi86FonHyE2sySGZ8fs4xu7du/HjH/8Y48aNw5///GdYLBbcfffdngGX33zzDQ4fPoxNmzZxxglFpJqGFhhbhN/kvetmgiF/eGcQdeKsAdnp8UF9P+obcQJ5ikK2q8S6ImZySG78yuS4XC6sW7cOUVFRuO222wAAH3/8MQwGA37wgx/g0KFD+MlPfoJ9+/Zh7969QVkwkdQdL++ccl8Q5EzOiJxERGmFf8biFhmFl83uhMU940nuwzlF+nihV46FzQBJZvwKcs6cOYOKigo89dRTuOWWWwDAM4jz3nvvRVxcHB566CHEx8fjq6++CvxqiWRArI+J1mkwMkffy90Do9GoMWpIsvt9GeRIgdGrEWCKQmpyxExOh80Bq80R5tUQ9Z1fQU5jo9BZNTc3F4DQAXnv3r3IyMhAXl4eAGEwZ3x8PFpbWwO8VCJ5EDMqo4ckQ6PpV9mbX8S6nLM1JrRb7b3cTcGmpG7HokQ2BCSZ8us7cHy8sN9vMpkAAAcPHkRrayumT5/uqb8xm80wGAw8Qk4Rqd1qR2WtGQCQNzy49TiiMe66HKfThdOVxpC8J/XMoKC5VaJEjnYgmfKr8HjMmDFISkrCa6+9hri4OLz22msAgOuvvx4AYDQa8dRTT8Fms3nmXRFFkrIqE5zuqZx5w4LTH+dCecM6f6E4fa4Z49gUMKwMPttVSszksC6H5MOvIEen02HlypVYu3Yt7rjjDgDAxIkTce2118LlcuHaa69FS0sLZs6cicmTJwdlwURSdrKisy4md2hosplpSbHQx0fB1GLFmXOmkLwn9cw7k6OUwmNmckiu/D5Cfvvtt6OgoAB79uxBRkYGFixYAI1GAwCYP38+CgsLsXDhQh4fp4h0yr1dlJQQjYyUuJC978jBSThyoh5lVdyuCjex8DghVgdtCGqyQoGZHJKrfo0tnjBhAiZMmNDl+s9//vMBL4hIzk65Mzl5Q0NTjyMa5Q5yztebOZE8zAzukQ5KqccBhI7HImZySE769Z3Q5XLh3LlzaG5uhsvl6vaeoUOHIiUlNDUJRFJgbrWitkk4VTg61EHOEGFrzOkCys+bgzb5nHpnUNhIBwCI0mkQrdOgw+ZgQ0CSFb+DnGPHjuHRRx9FRUXFRe974YUXMH/+/H4vjEhuTlV0bhWFquhYNHpIZ/3PmXPNDHLCSBzpoJTj46KEOB06jA6YOKSTZMSvIMfpdOKxxx5DRUUFJk+ejIKCAkRFRXV776hRowKyQCK58Ck6HhbaFgpZafGIi9aitcOOM6zLCatmi5DJSVVI0bEoIS4KjcZ2ZnJIVvwKck6cOIHy8nLcdtttWLduXbDWRCRLpyubAQBZqXE+NQyhMnJwMorPNODMOQY54WJutcLucAIAkhSWydG7i49Zk0Ny4lfpv9ksNDm77rrrgrIYIjk76Q5yckO8VSUaNUQYIXGu1gyb3RmWNUS6Zq/j46kKKjwGOkc7sOMxyYlfQc7QoUOhVqtRW1sbrPUQebR32HHgu1ocOVGPyhpp93+pN7TC6N6mCFV/nAuJM6wcThcqqs1hWUOkazJ1BgBK6ZEjSnQP6WQmh+TEr+2q7Oxs3HLLLdi4cSNmz57N0Q0UNDUNLVjz2pee+gYAuHLiYPz0R5OgVkuvB9OpyvAVHYtGDe4cBnqmqhmjwxRsRTKj2Wukg8K2q8Qt2JZ2G5xOlyT/HRJdyK8gx263Iz8/H9u3b8fMmTMxffp0ZGVleZoBervpppswfvz4gC2UIkejsQ0/f+MrnwAHAL48XIXYaA0euu3SMK2sZ2LRsVqtwsjBwZ083pOcjATERGnQbnWwLidMGo1e21VJytquEhsCulxCoBOOujMif/kV5NhsNp+C4+3bt/d477hx4xjkkN9sdgeee3Mv6pvbAADfKxqKKyfm4PdbjqG6oQWf7q1Aij4Gd8zOD/NKfYnHx4dkJoatEZ9arcLwQUkoPduE0wxywqLJHeTERGkQF6Pr5W558Q5qLC1WBjkkC359N46KisJf//rXPt07ZMiQfi2IItvug1WeKd6zpw3HsluEztojH56OJ//nS9QZWvHBjpO4tmgIstLiw7lUD6fThTNVQtFx3rDQNgG80KghepSebUJFjQkOhxMahYwVkItGBXY7FnmPdjC12jAojGsh6iu/ghyNRoNLLrkkWGshwj92nwEgnEy59+bOTGCKPgarFhdh1a/3wOl04f1/n8RP7pgYrmX6qKozo63DDkACQc5g4f1tdifO1VkwfFB4ts4ilcEkZCCVGOTo4znageSn37/mlZeX47e//S1WrVqF9957DwDw/vvvo66uLmCLo8hy6Hg9KuuELM4NM0Z2GW44akgSpo4Xfn/cc7AS1Q2WkK+xO75Fx+HP5Ig4rDP0xO2q1KTYMK8k8LwnkbMhIMmF30GO3W7HmjVrMHv2bLz00kvYunUrjh49CgD49a9/jRtvvBF79uwJ+EJJ+bbtPg0AiI7S4Pppw7u9547ZYwAIM5re334yZGu7GLHoOFqnwdDs8GZOhmYleoJD1uWElsvlQrP7dFWawo6PA0CC93YVMzkkE34HOf/zP/+Dv/71r/j+97+PDRs2YPDgwZ6/e/DBB+FyufDTn/4UTU1NAV0oKVtljQlHTtYDAK4tGoqE2O6LNocP0uOKCTkAgC8OnUO9oTVka+yJmMkZkZMETZiP1Wo0agxzB1o8YRVaphYr7A5hYLHSTlYBQHyMFuJ/3pZWzq8iefAryGlra8PmzZsxe/ZsvPbaa5g5cyaiozt/Y1m8eDFeeeUVtLS0MJtDfvnySLXn63lXj7zovbfOygMgZHN2HTgX1HX1xmZ34my1EEyEe6tKJG5Zna02weVyhXk1kcNgUu7xcQBQqVSIj+VoB5IXv4KckpISmM1mLFq0CCpV97+xzpgxA6mpqfjuu+8CskCKDAe/E2q5hmXrMSg94aL3jhys92Qrdu8Pb5BTft7k+e09d6hUghxhHW0ddlTXt4R5NZGj0djZ10mJhcdAZ/GxiZkckgm/ghynU5iH013zP+97HA7HRe8h8mYwtXuOYBcVZvbpmZlThwIAappa8N2Z8G2Nlp7tfO8xwyUS5Azu7HTMieSh0+TVCDBNgZkcoHN+lYWZHJIJv4Kc3Nxc6HQ6bNmypcd7du7cCaPRiHHjxg14cRQZvjneeSJv8tjsPj1z9WWDPfUvO/dXBGVdfXHirBCc6eOjJNO3Z0ROoqflPutyQqfR2Ob5WqmZHLFXDguPSS78CnKSk5Mxb948/OUvf8EvfvELVFZWev7OYrHg/fffx89+9jPo9XpOKqc+E7eqEmJ1fc6GJCVE47KCLADA10er0W61B219F3PyrHCyakyY5lV1R6fVYEhmIgBhO41CQ6zJSYyLgk6rzCaM4jFyHiEnufC7//yTTz6JM2fOYNOmTdi0aRMAoLKyEh988AFcLhdiYmLw6quv+hQkE/XE7nDiqPtU1cSCLL+G/n1vylDs/64GbR12HCiuw4xJOcFaZreazR2oc5/uyhsunSAHAIYN0qOixoSz1QxyQqXJqNxuxyJxEjmDHJILv4McvV6Pd999F//+97/xz3/+E8ePH4fdbkdqaiquvfZaLFiwAEOHDg3GWkmBvjvT5OkWXDS2b/U4osljMxEbrUVbhx37imtCHuSccGdxAGCMxIKc4YMS8cUhoNnSAVOL1adbLQVHkzuTo9R6HKCzJsdqd6LD5kC0jrWXJG39miQYFRWFuXPnYu7cuYFeD0WYw6XCVpVaBUwqyPDrWZ1WjYn5mfjq6HkcKqmF3eHs0iU5mMQgR6WSzvFxkfc4h4pqM8bnpoVxNZGhySiOdFBuFvvC0Q7Rycrr7EzK4vdPhPb2dhw6dAi7d+/Grl27sH//fphMTIlT/xwvEwKFETnJnt8S/TF1vFCo3NphR/Hp0J6yEouOh2QmIjY6PJPHezJ8UKLna25ZBZ/d4fQU4ypxpIPI+98ot6xIDvr8nfn06dN49dVXsWvXLnR0dHT5+8mTJ2Px4sW4/vrre+yhQ+TN7nB6jo739/j1ZWMzoVar4HS6sL+4GpeOSQ/kEnvkdLpw+py76FhiW1UAkJ4ci7hoLVo77AxyQkDpjQBFPpPIW9grh6SvT5mcTz75BDfffDP++c9/wul04pJLLsENN9yAOXPm4Morr4Rer8fBgwexYsUKPPHEE3A4HMFeNylAWZUJNrvQeyl/RGq/XiMhVofCkcJWzP7i2oCtrTcVNSa0W4X/zqUY5ABC8TEAnK02h3klytdk6vzFL1XBhcd6Dukkmek1k3PixAmsWrUKDocDjz76KBYvXozYWN90rMPhwJdffolnn30WW7ZsQW5uLh544IGgLZqUwbuRXv4AGulNGZeFY6cb0NDchvLzRozISer9oQESt6oA6TQBvNDwQYk4Xt6Ec7XCeAdmWIPHuxGgkjM5HNJJctNrJuePf/wjbDYbnn76aSxfvrxLgAMIHZCvvvpq/OlPf0JycjLefPNN2O3h6VtC8lFaLgQKSfHRA2qkJ9blAMDeYzUDXldfiEXHcdFaDM1K7OXu8BAzOe1WB+qawj/IVMl8gxzlFh4nxvkWHhNJXa9Bzt69e5GSkoIf/vCHvb5YVlYW5s+fD5PJhNLS0oAskJTrhDuTM9DtnszUOM8sq1BtWYlBzuihKZLNkHifsCrnllVQiTU5arUKyQnKDXJ0WjViooRj45xETnLQa5BTV1eHUaNGQa3u20GswsJCAMC5c+EdnEjSZjC1o6FZOHI7ZsTAa1qmjBO6H5dVGX3a6wdDS5sNVfUWANLdqgKAYdk8YRUqje5MTkpitGSD3kART1ix8JjkoNfIxWaz+dW9WLy3uxNYRKJSr0Z6+QEo3PXestp/LLjZnJMV3vU40iw6BoD4WB3S3ceZK5jJCSoxk5OiV+7xcZG4ZcXCY5KDPqVn+prF8fdeilwnyoUgR61WYfTQgRcKjx6ShJREoeBzX3Fw63Kk3On4QmJdTgUzOUEl1uQo+WSVSDxGzpockgNGJBQWYjZkeLYeMVEDb6SnUqk8W1bFpxvQ2h68VLoY5GSnxkt+XILYFLC6sQU2O1s7BIs40kHJRccicbvKzEwOyUCffrrU1NTgL3/5S59e8NixYwNaEEWG8vNGAMCoIfpe7uy7KeOzsf3rs7A7XDhcWo/plwZnltXJCiHIkdpQzu6IxcdOpwvnalswcnDg/vcmQVuH3TN/TcnHx0V695BOZnJIDvoU5Jw6dQpPPfVUsNdCEaLe0IpW9w+FQPa0uSQ33TOwc++x2qAEOdX1FljahCyRlIuORReOd2CQE3gGr+PjSh7OKRIzOa0dNjidLqjVyi60JnnrNch56KGH4HQ6/X7hMWPG9GtBpHxl5zuLYL2POQ+UTqvGhDGZ2PvteRw6XguHwwlNgAd2lno1Acwf3r8uzaGUk5kAjVoFh9PFupwgafQa6ZASETU5QibH5RK2rJIUfGSe5K/XIGfFihWhWAdFkLPurSoAGJ4T2MzC5eOzsPfb82hps+G7siZckhvYWVZil+YorRojcqTZBNCbVqNGTkYCKmvNHO8QJJGWydFfMKSTQQ5JGQuPKeTExnTpSbFIiNX1crd/JrsHdgLAviB0Py4+1QgAyB2WEvAsUbAM98ywYiYnGBqNkZXJ8R7tYG5hZ3uSPOtlOgAAIABJREFUNnl8lyZFqTgv/LAdEeAsDiDUC4wd4R7YGeAgx2Bq9zQBDHSGKJiGuetyDOZ2nogJAvFkVXSUBvEBDtqlyHu0g4n/PZHEMcihkOqwOVDdKAQKgd6qEk0dLxwlr3cP7AyU4tONnq/HyyjI8a574pZV4DUahcanYp8mpUtK8MrkWNj0laSNQQ6FVEW1GS6X8HUwMjmAb/fjfQHsfvztqQYAQLROg7xh0j9ZJfI+YcXi48AzmIQxIpFwfBwA9F5BTjODHJI4BjkUUuXnO3/Iev/wDaTM1DjPZPBAdj8+5q7HyR+RCp1WPv90MlLiEBctnDFgXU7gGSKo2zEAxERpEe0e0mmycLuKpE2S36lbW1vR2NgIu73/RW3Nzc1obW0N4KooEM5WC9tH0ToNBqUnBO19xGxOWZXRMwh0IBqa21DT2AIAGJ+bNuDXC7XO8Q7crgo0g1kIciLhZJVIPGFlZJBDEiepIKe+vh4PP/wwioqKMH36dMyYMQPvvPMOXOL+Rh81NDTguuuuw5YtW7r8nc1mw+zZszFr1qwu//fCCy8E6qNQD8rdPXKGZCUGtYmYz8DO4oFvWYlZHEBe9Tgisfi4stbs978n6pnR0gG7Q/jfMyWSghz3sXETt6tI4gY+NChA7HY7HnzwQVRWVmLNmjUYMWIENm/ejHXr1iE6Ohq33357n16ntrYW9957L0ym7tPyZ86cQXl5OS655BIMGjTI5+8u/DMFXkWNeLIquD1mxIGdBnM79h+rwQ1XjhjQ6x1z1+PERmuROyRwXZpDZXi2kMlp67Cj3tCGzNS4MK9IGQxejQAjZbsKgKc3DmtySOokE+T84x//QHFxMV555RXMmTMHADBt2jQsXboUL774Im6++WZERfU8DNHlcmHnzp14+umnYTAYeryvpKQEAPD0009jwoQJgf0QdFEGUzta3CMRhmYHd7yASqXClPFZ2P7VWRSfEQZ2xsX0/3jv4dJ6AEDBiFTZ9MfxNjTbe7yDmUFOgIgnq4DIKTwGOk9YsSaHpE4y36137doFjUaDmTNneq6p1WrMnTsXRqMR+/fvv+jzf/7zn/Hwww9j+PDhF912KikpgUajQX5+fsDWTn1TVdfi+XpwZvDqcURTxwmZObvDhW9K6vv9OqcrjZ66i8mFWQFZW6h5BzmVtazLCZQmo3cmJ3I6/4pBjrmVmRySNskEOYcOHUJubm6XbE1BQQEAoLi4+KLP5+Tk4OWXX8bmzZsxdOjQHu8rKSlBXl4evvnmG6xbtw6rV6/G3/72N7S3t/f4DAXGubrOH65DQhDkjM9NQ6z7VNH+AZyy2ldc7fl6yjh5Bjn6+CjPFkNlDYOcQGkydRa1R1ImR6zJsTtcnuwskRRJJsixWCzIzs7ucj0rS/ihcrEtKAC45pprcOONN0Kl6rmY1eVyoaSkBKdOncL999+Pffv2Yffu3Vi9ejXmz5+PmprAjwGgTlW1QhPAaJ0GGSmxQX8/nVaNifmZAIBvSmphd/g/aBbo7LUzMicJ6cnBX3ewDHNncyoY5ASMmMlJiNVBp9WEeTWh4z2visXHJGWSCXKsVit0uq41E+I1q3Xge7/19fWwWq245JJLsGPHDmzduhV79uzB2rVrcfbsWaxdu3bA70E9q6oTgpzs9PiLBqOBdLn7lFVrhx0Hvqvz+/l6Q6unWLpIplkckbhldb7ODKeTJ6wCwWASfsCnJsk3+O0P7yCnmXU5JGGSKTzW6XRwOBxdrou9ci5WdNxXmZmZOHz4MBwOB7Ra4aNrtVrcdddd2LFjB/bs2YPa2lpP9ogCSwxyBmeGbnr3lPFZiI3Woq3Djs/2V+KKS7pmCy/G+/j51HH+PSs1YibHaneitrEFgzKCv2WodPUGYbsqknrkAL5dj9krh6RMMpmcpKSkbrekxGtxcYE5DaJSqTwBjreioiIAQFVVVUDeh3y1d9jRYBR+IAzJig/Z+8ZEaTFtglCA/M3xWhj9TK2LW1XpSbEYJcOj4968T7SdrbGEcSXK0ehuNBmK7Vcp8Z5fxe0qkjLJBDmTJk3CyZMnuzQqKy0tBQCMHTt2wO9RWlqKt956C+Xl5V3+Tuyrk5Qk7x9kUlVV33myakgIMzkAcO2UYQAAh9OFPd/0PYg1mNvx3RmhP47ct6oAYFh2Z+ZG3IKj/mvvsKOlXSi6TZNxrVZ/JPlkchjkkHRJJsgpKipCS0sLDh8+7HP9888/h06nw9SpUwf8HjU1NXjhhRewbds2n+sdHR3Yvn07hg8fjlGjRg34fagrcasKAIZkhXabpHBUKrJThezRzn2VfX5u575KONy1K1ddNiQoawuluBidZ1ulkpmcAfMeFxJpmRydVuM5ucheOSRlkgly5s6di/T0dKxatQoHDhxAc3MzXn/9dWzduhVLliyBXt+Zav/JT36Cu+++2+/3uOqqq5Cfn4833ngDf/3rX9Hc3Izjx4/jxz/+Mc6fP4/HHnssZAWxkeacuzeLSgXkZIRuu0p0zRQhSKmoMeF0pbHX+51OFz79ugIAMCxbj4IRKUFdX6gMzRL+HVUykzNg9c2dbSciLZMDAEnxYtdjBjkkXZIJcpKTk7FhwwbExsZi0aJFuPzyy/Hqq69iwYIFWLFihc+9xcXFXTI+faFWq/G73/0OV1xxBdasWYPLL78cCxYswOnTp/HLX/4Ss2fPDtTHoQucczcCzEiOC8tR25lThnpmZf3105O93n+otB51BmHA6/XThgd1baE01L1lVd1ggaOfR+pJ0OidyUmOrMJjoLP42NzC7SqSLsmcrgKACRMmYOvWrSgpKYHJZEJubi7S07sOQ9y6dSuczp6/QRcWFmL//v2Iien6jScrKwtvv/02amtrUV5ejtjYWBQWFnZbjEyBc762czBnOKQnx+Kay4Zg14FK7CuuRvl5I0bk9Fx/9e+vzgIAoqM0uGby4FAtM+iGuYuP7Q4Xztdbgj5eQ8m8t6si7Qg54DW/yswgh6RLcj/ZVSoVCgsLL3pPQsLFazq0Wq3P9lZ3srKyeFQ8RBxOF6obhUzO4MzQb1WJbrsuD7u/OQen04X3tp/E40uKur2vut6CgyVCY8gZE3MGNPNKanzHOzDIGYgG9/HxpIRo6LSSSYqHjD5B+HfBmhySssj7l0khV9/U6uk2HMoeORfKSovH1e4C4n3HqlFW1X1dyoa/fAunS6gfuuFKZRWiD83yPmHFzscD0eCuyZFzF+yBEDM55jZrl1OxRFLBIIeCzvv4eDiKjr3d9v08T23Oy+8e7DJ3Z8e+ChS7j43PnjYCIwcrK9MRE61FZorQc6qimkHOQDQ0CzVbkR7kOJ0umFs5v4qkiUEOBV11Q+dx5UFhDnKy0+OxcGYuAKCq3oKX3vnGM+KgrMqEP3woDIJN1cdg0Y0FYVtnMImdj89xGvmARGojQJGe86tIBiRXk0PKU9MgZHKiozRI1Yf/FMods/NxttqM/cU1OHyiDg//1w6k6GNw6lyzJ+C5f+EliqrF8TY0OxEHSmpR3dgCm90RUYMlA8XUYoXVLmzBpkXgySrgwoaAVgxhiSNJEDM5FHQ1DUJaPys1vFkckUqlwn/8aJLnpFF9cxtOVBjgdLqgVqvww9n5nsGeSiRmcpxOl0+TRuo7segYADJSAjNyRm7Y9ZjkgJkcCrpqd03OoHRpBDkAEButxbpHpuOf/1eOvd/WoOy8EXlDU7DslvEXPVquBN4nqipqLIr/vMHgfXw8UmtyfLereMKKpIlBDgWVw+FEnbtAM9xFxxeKj9Xhlll5uGVWHlwuV8R0ux6cGQ+1CnC6xM7HyukDFCreQU7EblfFd2ZympnJIYnidhUFVZ2h1VPnki2hTM6FIiXAAYAonQZZacL/Lyo4w6pfxCBHq1EhJTG6l7uVSaNRIz5WqFsztzCTQ9LEIIeCqtpdjwNIa7sq0nGG1cDUG4QeOan62IgKkC/E+VUkdQxyKKiqvXrkhPv4OHUaNkhoClhnaEWHzRHm1ciPeHw8UutxROL8KhNHO5BEMcihoJLa8XESiJkclws4xy0rv4lBTiROH/cmFh+buF1FEsUgh4Kq2h3kSOX4OAnETA4AVNZyy8ofDqcLTWZhuyojJbID92R3JodHyEmq/n97dxoYVXm3DfyaLfu+74RsQBAQiIAQUUGUB1TQWtsqtmArWvdqqXXX11at8uiDiuCuVRRrK4KKikVkEZeAoCQmkISEJITs62Sb9f1w5kxmTMg6k3PmzPX7hCdnMndwyPznvv8LgxxyKzHIYT6OvCREB0FjG2/B8Q7D09zWbU+m506OEOTouwwwWzi/iuSHQQ65jdlsQX2zPMvHvZ1Wo0ZClLCbw0Gdw9NgSzoGmJMjzq+yWllhRfLEIIfcpr65y/7pTs7l494qydb5uJJBzrA49sjx1rlVolDOryKZY5BDbsPycXlLjhN2chpau9DZzSnSQ1Xf0vu65nGVw2gH7uSQDDHIIbdxnD4eF+Wd833kLMVhvENlLSushkqsrPL31SLIX5lDXIfKaX5VO4Mckh8GOeQ2dU3CJ16dVs3ycRlKiXOosOKR1ZA1tAg5OZGh3r2LAwAhgb3HVaywIjlikENuU9sofOKNDgvw6q6wchUXFQStRvgVUHGKZeRDJU4g9/akYwAICfSB+E+7rYNBDskPgxxym9omW4+cSB5VyZFGrUJCtLCbw+OqoWuwNwLk7qRarUKQv61XDrsekwwxyCG3qbcdV8VE8BOvXKXEizOseFw1FAajGe2dQu5JlJdXVonECqtWPZPXSX4Y5JBbtHca0NljAgDEsNuxbIl5Oc3t3dB3MnF0MI2O5eM8rgLgML+Kx1UkQwxyyC3qGnvfDHhcJV/JDhVWFZxhNag6h0aA3l4+Lgqx7+QwyCH5YZBDbiHm4wBAbASDHLka51BhVVHD5OPBOO3kePncKlGYfSeHO4EkPwxyyC1qG3sbpnEnR75iIgLgq9MAYF7OUDh2O2YJuUA8ruroMsJktki8GiJnDHLILcQeOYH+OgR6ecM0OVOpVEiMEcY7cIbV4Bps3Y5DAn3gYwsOvV0oe+WQjDHIIbcQd3JiwrmLI3fJnGE1ZPZGgMzHsQsN7g1yOKST5IZBDrlFrVg+HsnKKrlLsQU57Z0GtLDXyYDERoDRYQzeRY5DOls42oFkhkEOuZzFYrVv68exR47siTs5AFBZy92cgTS2it2OmXQsCgnsPY5m8jHJDYMccrmm1m6YzFYAQmIryds4xyCHR1anpe8yottgBsDjKkeOx1XMySG5YZBDLiceVQFALI+rZC8q3B/+vloAnGE1kPqm3soqdvHuFeSvg1otDLDiaAeSGwY55HJO5eN8M/AIybG25GPOsDqtmkbH3k8M3kUqlQrBAex6TPLEIIdcTtzJUamAaAY5HiE5ThzUyeOq06lz2KGMieTr2hHnV5FcMcghlxN3csKD/aDTspeIJxDHO3R0Ge3JteRMDHICfLX2nQsShNnycprbuge5k2hsMcghl6uzTx9n0rGnSHFIPuYMq/6JwXs0X9d9hAUL1WYt7QxySF4Y5JDLiUEOk449h1MZOWdY9cv+umY+Th/hIcLOVqu+B1arVeLVEPVikEMuZTCa0Wz7NMcKFM8REeKHQD+h3wnHO/RltVpR1ywG73xd/1x4iLCTYzJb0d7JvBySDwY55FKOyZlxHMzpUXrHO/C46uea2rphNAnDJ3kM21d4cG9zxBbm5ZCMMMghl6p16iXCbX1PkhIvBDkn69p55PAzdQ6vax7D9hUW0tsQsJm9ckhGGOSQS9U69hLhtr5HEXvldPWY7DOaSMDeTwOLcOh63NzGIIfkg0EOuZR4XKXVqBERwvk+niQlPsT+5wo2BXRS29QbvPO4qi+nnRweV5GMMMghl6ptFHYAYsIDoFKpJF4NDUdybJD9zxzv4Ex8XYcH+8FHx95PPxfgp4Ov7e+Fk+xJThjkkEuJn3j5adfzhAb5IiRQKAVmrxxn7P00OLEhYBOPq0hGGOSQS9U3sczWk6XYOh+zV46zOgbvg2JDQJIjBjnkMu2dBnT2mACwsspTiTOsTta1w2JhhRUAGE0WNNnyTGLZFuG0wmw5eC3cySEZYZBDLlPX6FhmyzcDTyTu5BhMFqdkW2/W0NwJsaI+ljs5pxUeLBx1NnMnh2SEQQ65jOObIt8MPFMyZ1j1UeMQvMcweD8tsetxV48JPUazxKshEjDIIZdx7CXCNwPP5DSokxVWAJyD9zgG76cV7lBGzq7HJBcMcshlxAqUAF8tgvx1Eq+GRiLQX2dv0V/JXjkAgLpGsfeTChGh7P10OmEOox1YYUVywSCHXEbcyWHbe88mjneo5KBOAECNbaRDVFgA1Gr2fjodx+af7JVDcsEgh1ymlr1EFEE8sqqu18Nstki8GumJ5ePMMxtYmC3xGGDXY5IPBjnkEhaLFQ0tQpDD6eOeTZxhZTJbcKqBFVa9jQDZ+2kgoUG+EDe6uJNDcsEgh1yiqbUbJrNQZ8udHM/mNMPKy4+sOrqM6OgyAuAx7GDUahVCAsWux9zJIXlgkEMuIR5VAays8nRJjjOsvDzIcZo+ztf1oNgQkOSGQQ65hOObActsPZu/rxbRYcLRjLf3ynEM3mPZxXtQ4bb5Vc08riKZYJBDLiG+GahUQDRzFzxesq3zcZWXz7Cqc9qh5Ot6MGKvHCYek1zIMsjp7OxEQ0MDTCbTiL9Hc3MzOjpOnzRptVrR2NgIvd67P6m6iriTEx7sB51WI/FqaLRSbDOsTjV2wGjy3gqr2kbhd0iArxbBAT6D3E1iH6G2jh5W5pEsyCrIqa+vx4033oicnBzMmzcPubm5ePPNN2G1Dm9QYH19PS688EJs3bq1369v2bIFCxYswNy5czFz5kysWrUKFRUVrvgRvFYdy8cVRdzJsVisqK733g8CdbYeOdF8XQ9JRKiw22W1MvmY5EE2QY7JZML111+PvLw83HvvvXjttdcwc+ZM/O1vf8N777035O9TW1uLlStXoq2t/232Xbt24a9//SsyMzPxyiuv4OGHH0ZhYSFWrVo14M4PDaw3yGHeghI4j3fw3uRje4NLvq6HJNKhI3RjK/NySHpaqRcg+uijj1BQUIB169Zh8eLFAIA5c+Zg1apVWLt2LZYvXw4fn9NvF1utVnzxxRd44IEH0NzcfNp7Hn/8cWRkZOD555+HViv8+BkZGbj66quxadMmrF692vU/nMIZjGb75OFY5i0oQmJsEFQq4RN5Za13BjlWqxV1zWIXb76uhyIytPfvqam1C0C4dIshgox2cnbt2gWNRoMFCxbYr6nVaixduhStra3Iy8sb8PGbN2/GjTfeiHHjxuHJJ5/s957y8nKUl5fjggsusAc4AJCTk4OEhATs2LHDNT+Ml3FMzmQjQGXw1WkQGy7sXnhrGXlTWzdMtrwSHsMOTURo75DOxlYeV5H0ZBPkHDp0CBkZGX12ayZOnAgAyM/PH/DxCQkJePrpp7Fp0yYkJyf3e8/hw4edvqejCRMmoKioaFTJzt6q1pa3APC4SkmSxRlWXnpcVdvY+7pmI8ChCQ3yhVYjvK0IOzlE0pJNkKPX6xEXF9fnemxsLACgpaVlwMefe+65WLJkCVSq0w/QEyup4uPj+3wtLi4ORqMRXV38hzlcYgUKwG19JRHzcmqbO9BjNEu8mrFX59Qjh6/roRIHdTa0MCeHpCebIMdgMECn0/W5Ll4zGAyjfo6eHuEfneNRlUi85orn8Tbim4FWo3aaREyeTQxyrFagqtb7KqxqHIJ3HlcNnVhGzp0ckgPZBDk6nQ5mc99Pi+Lx0UBJx0MlBjIWS9/+DeJzu+J5vI24rR8THjDgThp5lmSHCqtKL8zLOVUvBDkRIX7w0bH301CJZeRNzMkhGZBNkBMaGtpvVZR4LSBg9J+kwsLCnL5nf8/j58ediOGqbRLeDPhpV1kSooOgto2VrvDCzsfVtiAnMSZokDvJUVQYh3SSfMgmyJk+fTqKi4v7NP47evQoAGDSpEkueQ4AKC4u7vO1o0ePIjMzs98jMxpYvdgjh/k4iqLTqhFvS7it9MIZVqcabDl80Uw6Hg5xJ8dktqBVz7wckpZsgpycnBx0dHTYK6BEe/fuhU6nw6xZs0b9HCkpKYiOjsa+ffucgqmKigqUlZUhNzd31M/hbdo6DOjsEY4U2TBNeZLjhc7H3raT09zWjS7b6zoxmjs5w+HYEJAzrEhqsglyli5diqioKKxZswZ5eXloaWnB+vXrsW3bNqxcuRIhISH2e2+55RZcc801w34OlUqFlStX4uuvv8bjjz+OpqYm/Pjjj7j55psREBCAVatWufJH8gqO08dj2SNHcZJjhTf4hpYu+5u+NzhZ35t0nMDjqmGJcGgI2NDCIIekJZuOx2FhYdiwYQPuu+8+rFixwn592bJluPXWW53uLSgoQH19/Yie59prr0VjYyM2bdqE119/HQAQFRWF5557zl6uTkPnGOTEsZeI4jiOd6iq1SMzJUzC1YydUw7zuhJ5XDUskQ4NAZl8TFKTTZADAFOnTsXWrVtRVFSEtrY2pKenIyoqqs9927Zt67dCSpSdnY28vLx+k4jVajXuuusurF69GiUlJfDz80N2djY0GlZPjISYdAywR44SOc+wavOaIOdknRDkaDVqRIdzh3I4IkL87CNBGllGThKTVZADCEdKgyUZBwUNvH2s1Wqdjrf6Ex4ejrPOOmvY6yNnYiPAIH8dAvyYtK008VGB0GrUMJktXjXDSiwfj4sMtFeY0dBoNGqEBPqiVd/D0Q4kOdnk5JBnEnvksO29Mmk0aiTYEm+9aRr5SdtxVQKTjkektyEggxySFoMcGhVxJ4dJx8olNgX0lkGdZrMFtba2CAnRfF2PRJTYEJCJxyQxBjk0YmazxX7mHstGgIol5uU0t3dD32WUeDXuV9vYCYtFaDHByqqREaeRMyeHpMYgh0asvrkLtvcCHlcpmLeNd6hyLB/ncdWIiGXknT0mdHtR6wGSHwY5NGI17JHjFcY5Vlh5QZDjWD6ewPLxEYkK66205G4OSYlBDo2YmLcAAHEMchQrNjIAfj5Ci4Xy6laJV+N+Yvl4oJ8OoUG+g9xN/YkK7w1y6pqZl0PSYZBDIyYmHWvUKkSGsUeOUqlUKqTECS0Zyk8qf7yDWD7Oo6qRi3EIchqaOwe4k8i9GOTQiNXYysejwvyhYS8RRUtN7J1hJSblKpW9fJxJxyMWGeoH8VdCfTOPq0g6DHJoxOrs5ePMW1C68QmhAIBugxk1DR2D3O25OruN9snZzMcZOY1GjfAQoVdOXRODHJIOgxwaMXuPnAgeVSnd+MRQ+5/LqpV7ZFXtUFmVyJ2cURHHYdTzuIokxCCHRkTfaUCnrTSUOznKlxIfbD9+KDup3OTjaqfycb6uRyPKFuQ08LiKJMQgh0ZEHOcAsHzcG/jqNIiPEnY2yhW8kyNWVqlUwtwuGrmYcNtoh7YumM2nH6hM5E4McmhEnKeP883AG6TajqyUvZMjBDmRof7w0WkkXo1nE4+rLFbOsCLpMMihEXFsBMgeOd4hNUGosGrR96ClvUfi1biHeFyVyPLxURODHACo45EVSYRBDo2ImHQc6K9DoL9O4tXQWBArrADlHlmdahB2cuKZjzNq0bbjKoBl5CQdBjk0ImJOTmwE3wy8xXhbrxwAKFNg5+PG1i70GMwAWFnlCs5dj1lhRdJgkEMjYi8f51GV1wgL9rWPOVBi5+OTdRzM6Up+PloEB/gAYNdjkg6DHBo2s8WKBtvQPebjeBfxyEqJx1XVDoM5E3lc5RK9vXKYeEzSYJBDw9bQ3Glv7c+dHO8iHllV17fDYDRLvBrXqraVj/to1U5HLTRy0ba/RzYEJKkwyKFhq3HokRPDnByvkmrbybFYgROn2iVejWuJlVWxkYFQqTiLzRVibN3QG1q6YLUqe+YZyRODHBq2OoceOXGR/MTrTcYnBtv/XK6w5ONq+2DO4EHupKESd8SMJgta9MpsO0DyxiCHhq3W1iNHrVbZW7eTd4iPCoKvj9AkT0lNAXuMZnsFUFIMdyddxbFXTgPzckgCDHJo2MRGgFGh/tCoua3vTdRqFVJihbwcJQ3qrKrVQzxNSYnjTo6rOA7vrW1kXg6NPQY5NGziLyuOc/BOYvJxxak2xeRZVNb05hcxyHEdx98RNY0dA9xJ5B4McmjYxLlVsczH8UriDKtugxk1Dcp446qoEXalNGoVEtgI0GX8fbUICRR65SjltUKehUEODYu+y4iOLiMA7uR4q/EJjp2PlXFkVVljG+cQFQSthr8WXSnONs29hsdVJAH+a6ZhqeVgTq83LiEEYiqWUpoCijs5yTyqcrk424ch7uSQFBjk0LDUOpyrc26Vd/LVaRAfJRzplClgvENntxENLULvp+Q4HlW5WlyU8GGoub0bPQprIEnyxyCHhkVsmAb0/vIi7yPm5RyvapF4JaNXVds7ziElLmSAO2kk4h2OtWu5m0NjjEEODYsY5IQE+iDQXyfxakgq6UlCkNOi70Fja9cgd8tbhVNlFXdyXE3MyQGAU8zLoTHGIIeG5ZTYFZZTmr1aZkq4/c/FFZ69myOWj+u0asRF8XXtao7z7ZiXQ2ONQQ4Ni731Pac0e7W0xN7k4xIPD3LEnZyE6CA2t3SD0CBfBPhqAbBXDo09Bjk0ZO2dBuht5ePcyfFufr5aJNpmPJVUevZ4h4pTYmUV83HcJdZeYcXjKhpbDHJoyE7W9X4Ki2eQ4/UyUsIAAKWVzR7b+VjfabAPjmQ+jvvERrGMnKTBIIeGTMzHATjEkICMZCHI6ewx4VS9Z755lVf3Jh2Pi+dOjrvE2/JyGlo6YTJbJF4NeRMGOTRkYj6OWsVuxwRkJvcmH5dUemZeTll171GbOJOLXE+ssLJYgfpmHlnR2GGQQ0N2st42fTx2o6iVAAAgAElEQVQsADotXzreblxCsH0EQrGHBjlix+bgAB9EhnIWm7s4lZEzL4fGEN+paMhYPk6OtBo1UhOEfjmeWmFVdlLYyUlN4C6OO8WxjJwkwiCHhsRqtaKmwRbkMB+HbDKShSCnvLoVZg/LtTCZLThZJ+TkMMhxr8hQP/jqNAB6j72JxgKDHBqShpYuGEzCmxh3ckiUaauwMpgsqKjxrDevqtp2mMxCVZi4I0XuoVKp7BWZVbXcyaGxwyCHhsRxZhUbAZJIrLACgJLKZglXMnyOE9SZdOx+STFikNM+yJ1ErsMgh4aEQQ71JyE6CP62brbFFZ4V5IgT1LUaNRJjuDvpbkmxwt9xc3s3OruNEq+GvAWDHBoS8RzdV6dBVBirUEigVquQlijs5hRXeFbnY3EnJym2t0qM3CcpNtj+Z8fJ70TuxH/ZNCTVtm7HsZGBUKk434d6ZaQI+SxVde3oMZolXs3QlVezsmosJcf27pYxyKGxwiCHhkTcyeE4B/o5MS/HYrGirKptkLvloaG5yz6HbTyDnDERHxVoH4BaVce8HBobDHJoUEaTBQ0tQgOvxOiAQe4mb5PpkHxc7CHJx8cdko5TE1lZNRY0GjXibJ3SuZNDY4VBDg2qtrEDFtv8RSZo0s9FRwQgJNAHgOc0BSx16NDMnZyxk2jLy2GFFY0VBjk0qCpOH6dBZNjmWHnKDCsxyEmICkKgv07i1XgPMS+nrrkTBg/K3yLPxSCHBuU4fTyR5ePUj3Rb5+Oaxg57roucicFYmsNRG7mfWGFltbLzMY0NBjk0KPGXUZC/DkEBPhKvhuQoM6V3IvmxE/LOy6lv6kR7pwEAkJnMfJyxlBTDCisaWwxyaFBiI8AE5uPQaUxIDYfYWeCn0kZpFzOIkqrefj7p3MkZU4mxQfbXSSWDHBoDDHJoUKfEIIf5OHQaQf46JMcKCbyFZU0Sr2ZgJbbOzGoVxzmMNV+dBtFhQoUmgxwaCwxyaEAdXUa0dvQA4DgHGtjk9AgAQr6LnJNKS207OUmxIfDz0Uq8Gu8zLl4ILE+c9KwO2eSZGOTQgJxnVnEnh04vOy0SAGAyW3BMpqXkVqvVXlmVznwcSaTads9qmjo4w4rcjkEODYiVVTRUYpADyDcv51R9Bzp7TACcJ6jT2Bnv0HyxvJr9csi9GOTQgE7adnJUKiAuikEOnV5YsC/iba+Rn47LMy/HMek4Mzl8gDvJXdIcmi+W8ciK3EyWQU5nZycaGhpgMpmG/ViTyYT6+np0d3e7YWXeRzyuigz1h49OI/FqSO6y04S8nGMVTTCbLRKvpq9iW3m7VqNGSnzwIHeTO0RHBCDQT2jAWFbNIIfcS1ZZd/X19XjwwQfx5Zdfwmw2Izw8HDfeeCOuueaaQSdfm81mPPPMM3jnnXfQ2toKjUaDZcuW4e6770ZISO8nB6PRiKVLl8Js7psYedFFF+Evf/mLy38uTya2X+c4BxqK7LQo7PyuEj0GM0qrWpE1Tl67JYXlwg5TWlIodFpZfsbzCuMTQ5Ff2oCyk54x0JU8l2yCHJPJhOuvvx6VlZW47777kJqaik2bNuHvf/87/Pz8cOWVVw74+Oeffx4bN27EihUrsGjRIuTl5eGFF15AU1MTNm7caA+SSktLceLECUyZMgXx8fFO3yMhIcFtP58nMpst9kaAKXH81EuDm2zbyQGAguONsgpyuntMOHFKeFOdlBoxyN3kTuMTQ5Bf2oCq2jaYzBZoNQw4yT1kE+R89NFHKCgowLp167B48WIAwJw5c7Bq1SqsXbsWy5cvh49P/912xUDm0ksvxf33329/bEhICB599FF88803OPvsswEARUVFAIAHHngAU6dOHYOfzHOdauiAyXbkkMwgh4YgOiIAUaH+aGjtQuHxJlx2vtQr6lVc2QKLbdLshPEMcqQkJh+bzFZU1ujZr4jcRjbh865du6DRaLBgwQL7NbVajaVLl6K1tRV5eXmnfey+fftgMplw4YUXOl2/5JJLAACff/65/VphYSE0Gg0mTJjg4p9AeSpqeisfUuL4S4iGZpKtyqqovAlWq1Xi1fRybFI4MVU+O0zeaDyTj2mMyCbIOXToEDIyMvrs1kycOBEAkJ+ff9rHHj58GAAwadIkp+sRERGIiopyemxhYSEyMzNx8OBBPPLII7j77rvx/vvvM1G5H45Bjjg9mGgwYlPAji6j/XhIDo6VC0nHcZGBCA3ylXg13i0xJsieE8Ugh9xJNkGOXq9HXFxcn+uxsbEAgJaW0zcX0+uFvJGf59gAQFxcnP2xVqsVhYWFKCkpwXXXXYe8vDzs2bMHd999Ny699FLU1NS44kdRjIpTQpATEx4AP1/ZnGySzGU75OXIpZTcarXiqC3peCKPqiSn0ajtu8PHvTzI0XcaUFLZgpb2HqmXokiyeecyGAzQ6XR9rovXDAbDgI8FAI2mb4mzVqu1f72hoQFGoxFTpkzB//3f/yEuLg5msxnvvPMOHnnkEdx///146aWXXPHjKEKlbSeHScc0HIkxwQgN9EVrRw8KjjdhSe54qZeEypp2exNAHlXJQ1piCEqrWlBe3QqzxQqNeuAKWiXRdxqw5YsS7DtUjYbWLvv10CBfzJ4ShysvzEJ4sJ+EK1QO2QQ5Op2u37JusVfO6ZKOASGQAYRPaz8vNTebzfbHRkdH49ChQzCbzfbHaDQarFixAjt37sSePXtQW1tr3z3yZkaTGTWNwg4Zk45puCamReLbI9UoPC6PzseFtqMqgEGOXGSNi8Dn31ag22DGieo2pCV5x5iN7fvKsPmzo+jo6jvSolXfgx1fn8De70/iFxdkYvl56YO2T6GByea4KjQ0FM3NzX2ui9cCAgIGfKzjvT9/vL+/v/2/VSqVPcBxlJOTAwA4efLk8BauUFW1HbAVonAnh4ZNLCVv1feguk76adNFZcLvhkB/HZJi+XqWA8dgs6hcHsea7mQ2W/D8vw7jlQ/y7QFOVko4rvqfibjzmpn47cXZmJoZDQDo6jHhrY8L8ezmH2TZVNOTyCbImT59OoqLi/tUYxw9ehRA36RiRzNmzAAAFBcXO13X6/WoqqpCdna2/Xu99NJLKC8v7/M92tqEBEkxYPJ2FTW9CaPsDEvDJSYfA0CBDPJyCkrrAQATUyP4yVgmEmKCEBwg7LIfLe/7AVVJDEYzHn0lDzu/qwQARIX6465Vs/DYrbn4xcJMzJ2WgGXnpePB6+fggdVnIy5SGI+y+2AlnnjjIIymvqccNDSyCXJycnLQ0dFhr5QS7d27FzqdDrNmzRrwseK9jvbt2wcAyM3NBQDU1NRg7dq1+PDDD53u6+npwY4dO5Camoq0tLRR/yxKUGGrilGrVex2TMOWEheCQH8hny5f4mGdp+r1aGwVqifPyIgc5G4aSxNszSKPKngnx2q14v/ePozDx+oAAGmJYXj8tlzMmtx/WsS0rCg8ess8pCUKA2QP/FSDF/59ZMzWqzSyCXKWLl2KqKgorFmzBnl5eWhubsb69euxbds2rFq1ymk0wy233IJrrrnG/t+xsbFYvHgxXn31VWzevBltbW3YtWsXHnroIWRlZWHRokUAgHPOOQcTJkzAhg0b8O9//xvNzc0oKirCTTfdhOrqatxxxx38lGdTWWurWIsMhE7LmVU0PGq1CpPTogAAPxytk7Rfzo8lvUHW1MwoydZBfWXZjqzqW7rQ1KbMNh7//OgnfHukGgCQnRaJR246G+EhAycVhwb54uE/zrF3DN91oBKffNX3BIIGJ5sgJywsDBs2bEBAQABWrFiBOXPm4JlnnsGyZctwyy23ON1bUFDQZ8fn73//OxYuXIgHH3wQZ511Fm644QbExMTgueeesyceq9VqvPTSSzj77LNx7733Ys6cOVi2bBnKysrwxBNP4KKLLhqzn1fuxJ2cJDYBpBGaPlHIL2jvNKC0Sroy4R+LGwAAwQE+GBfP17OcTHQYr6HEI6svD1Ri2+7jAICkmGDcteos+PkMrd4nwE+Hv6zMsVdZvbY1H0UK/DtyN9lUVwHA1KlTsXXrVhQVFaGtrQ3p6emIiur7yWvbtm2wWJyTsYKCgvDss8+iuroalZWViIyMRHp638z02NhYvPLKK6itrUV5eTn8/f2RnZ3dbzKyt9J3GVHfIpQ1pjIfh0ZIDHIA4PuiOmQkh435GqxWKwpKhCDnjIwo7tTKTEZKGDRqFcwWoY/R2VP79jrzVKfq9XjpfeGYKTTQF/f9YRaC/Pu2SRlIeLAf/rIyB/c//xVMZiuefecQnv7zufDRcXd9qGSzkyNSqVSYNGkSZs+e3W+AAwgBjePxlaOEhATMnj0bGRkZA/5Ci42NxezZszF16lQGOD9T7jAZWJwxQzRc0eEBSIwW8rkOF9VLsoYTp9rQ3in0yZrCoyrZ8dVpkJog/I4RK+CUwGS24Km3DqHbICQM33b1dERHnL5CeCBZ48Jx1f8IhTc1jR34145jLlunN5BdkEPSO36yt7t0WhK392nkpk+MAQAUVzRB309fEHcTj6oAYGomk47laIItL6esugUGozKqiP6145j99+iyc9MxLSt6kEcM7JL5aUhPEnZCt+4uxXEJj389DYMc6qPMtpMTEuiDyFD/Qe4mOr0zbUGOxQr8eGzsd3OOFAtJx1Gh/oiPYpWgHGXbBrqazFanIaqe6lS9Hlu/LAEAjE8IxVVLJo76e6rVKtz0q2nQqFWwWKzY+O8fZTX8Vs4Y5FAf4sA8HlXRaJ2RHgFfW/7AoaK6MX1uo8mMn47b8nF4VCVbUzIiIU50+OGoNMearvTylgKYzFaoVMAffzkNWo1r3mbHxYdg2XnpAIDSqhbsPVTtku+rdAxyyEmP0YyTdcLMqjQGOTRKOq3G/kn9+8KxLSXPL2my50TMsO0okfwEBfggLUk4sjrk4UHON0dq7P1wLpiVgvRk1/4OvXxhJkKDfAEAm7YXskngEDDIIScVp9rt4xy4k0OuMOuMOABAi74HR8tbBrnbdQ78VAMA0KhVTpVeJD9nThB22ipq2tDc7pn9cnqMZry+NR8AEOinw1VLTt+lf6T8fbX4zeIJAICGli58tKfM5c+hNAxyyMnxk70JbWmJTDqm0TvrjFiIhY7f5o/dFvuBn2oBCDkfAX7DK92lsTUtq3en7cdjDQPcKV/v7yyxt964eukkhASefqj0aCyYlYJk2/y193cW9zvok3oxyCEnZVXCJ21/Xy3iogIlXg0pQXiwHyaME5q+fXukZkye88SpNjTY3nBmZvffPp/kY8K4MPj7Cq08DnvgkVVtY0dvsnFiKBbNTnHbc2nUKqxYKuwSdfaY8PFe7uYMhEEOOTluq6waFx/CxmnkMrOnCEdWtU2dKK92f/lrXkGt/c9nMciRPY1GjcnpwpGVFFV4o/XqBwUwmoQGtdddPgVqtXt/d+Zkx2K8rb/QR3uOo7ObuzmnwyCH7MwWKypt08fH86iKXGjOlN5Ott+MwW7OQdtRVWJ0EHckPcS0LCHIadH3jEkg7CoHC+twoFB4vZ2fk2wfOupuVyzKBAB0dBvx6f4TY/KcnohBDtlV1bbDYPs0Ik7AJXKFmIgAe2fbb3485dbnam7vRnGl0D035zSTnkl+Zk7qzcsZi0DYFYwmM17dIiQbB/hq7cdIY2H2GXH23JxtX5ai22Aas+f2JAxyyM5xQF5mCiuryLXm2I6sKmvbUVHTNsjdI/fVoWqIleqzpyhnFpLSxUYG9gbCP7g3EHaVD3aVoqapAwDw68UTERbsO2bPrVKpcMUFWQCEIbg7vuZuTn8Y5JDdsRNCkBPgq0VSLAdzkmvNn5Fo//OuvEq3Pc+e708CAGLCA8bs6IBcY+40ISitrGu3H53LVX1zJ7Z8ISQbp8SFYPG81DFfw9xp8fb5cNu+PM6+Of1gkEN2YpCTmRLOpGNyudjIQGSPFxoD7j54EmaL6xsDnmrQo9RWIXiOQ1BFnkEMcgDgK5nv5ry29Sf02GZtXXf5FGjcnGzcH7VahcsXZgAQjmn/+637Pjx4KgY5BADQdxlxsl4PAMjkp19yk/POSgIAtOp73FIqvPvgSfuf5zPI8TjxUUEecWR1+Gg9vs0X1pc7PQnZaRGSreWc6YmICRcmnH/wRQlMZotka5EjBjkEACg+0duJNotBDrnJ2VPj7bOs3HFkte+QEOSkJoTyyNVDyf3IymS24NUPhGRjf18tfnfJ2CUb90ejUePyhUKlVUNrF3YfqJJ0PXLDIIcAAEdP9E7/zRrHyipyjwA/HWadIbyJ5RXUQN9pcNn3Lq5owakGIQn0nOncxfFUjkdWYn6VnHy4+7h91/uXi7IQEeIn8YqA889KQmSosI6tX5ZyQrkDBjkEoHcnJyEqCMEB7mlHTgQAC2YlAxA+EX/+TYXLvu/2feUAhDyFc2YkuOz70tiKjwpCVoqwm7zz20pZHb80tnbh3/89BgBIignGxeeMl3hFAq1GjYvnpwEATtbr8W1+7SCP8B4McghWqxXFFbakYx5VkZtNzYyy9/f4eG+ZS97Emtu7sf8HYZt+9hnxiAz1H/X3JOlcNHccAKC1o2fMRoEMxevbCu2T7X9/2RnQaOTzFrpozjgE+gsz2j6wVX0RgxwCUF2vR4etLTiPqmgsXHKu8Kmzub0bXx0e/dDOz/afgMksbNFffE7aqL8fSWvutAQE2oaqfiaTbr75JY3Y/4NwfDZnagKmZkZJvCJn/r5aLJ4rlLEXVzajoLRR4hXJA4McQlFZbxNAcZAikTvNn5GE0CChcdrWL0tH9b2MJgt22N4I0xLDMHE8dyM9nY9OYz/WLDjegKradknX02M0Y+O/fwAA+PposOrSbEnXczpLzxkPH63wtr6FuzkAGOQQgCMlQsQf6K/DuHhWpJD76bRqe/O0E6faRlVOvvf7k2jt6AEAXDxfHjkSNHrikRUAfPJVuYQrAd75pMie1P6rCycgKkyex6GhQb44/ywhODx0tA4nTsmvOm2sMcgh5Jc0AACyx0e6fXoukWjx3FT4+gjl5G98+BMsI2gO2GM0Y/NnRQCA8GA/zJ3GhGOliI8KwplZwjyrnd9VoLG1S5J1FJU346O9xwEAWSnhuGS+vI9Dl52XDvHX+JYvRrdLqgQMcrxcdZ0eze3dAIAzMiMlXg15k5BAHyw/T+jWWlHThp3fDb/S6sPdx9HYKrx+f714AnRa/kpTkl9eKMxmMpos+M9/i8f8+Q1GM55/9zCsVmH38aZfTZP9B8HYyEDMmSq0UPjqh5Oob+qUeEXS4m8EL3fEITltSoa8EulI+Zadn44oWyXU258UodOWAD8Uze3d+GBX7+ygBbZtelKOianhTrs59c1j+4a9+dOj9p44v7pwgsc0mLx8gfDhwWKxYtvu4xKvRloMcryceFQVHOCDlDjP+AdMyuGr02DFUqFjbFuHAf/88KchP/b1rT+hq8cEAFh5abbsP2HTyPx68QQAgMlsxXufHxuz5y2uaMGHe4TjnvSkMFx6XvqYPfdojU8MwbTMaABCcNjW4bqmm56GQY6XK7AlHWenR3EoJ0ninBmJmGQb3Pn5txX44rvBxz1s31eGfYeFct6Zk2IxLSvarWsk6WSmhCEnOw4A8EVeJY6eaB7kEaPX3WPCs+8cgsUqNNq75dfTJBnAORrLbbs5PUYztu8rk3g10mGQ48UqatrsVSlTM5iPQ9L504rpCAkUOm2/+P6PKKlsOe29RWXNeH1bAQAgIsQPN/1q2piskaTzu4snQadVw2oFnn/3BxhN7u2CvP5fP9iPqa68MAvJcSFufT53mJoZhbREoe/ZJ/vK0G0wSbwiaTDI8WL5Jb35OGcwyCEJRYb648+/zYFarYLRZMGDG/b32yRwz/cn8chLX8NssUKrUWHN73Ls/XZIuRJignDFBUISclVdO/6z031JyFu/LMX+H4TX3rTMaFx2fobbnsvdLlsgHLHpu4zY+a3rB+J6AgY5Xuz7wjoAQumtpyTUkXJNTo/E75efAQDoNpjx1FsH8dgr3+HT/eX49KtyPPrKd1j39vfoNpihUgGrL5+KLI4h8RqXnZ+OFNuOyvs7i5Hvho6+3xXU4q2Phbyw6DB//OmaGR6d6zVnSjziIgMBANt2l8IsozlgY4VBjpfq7jHhiC3peGZ2jMSrIRIsnpuKe/8wG0G2GTwHCmvx0vtH8NKWIzhYKAwdDA7wwb1/mIOFs1OkXCqNMY1GjZt/fSa0GjXMFivWvnEAtY0dLvv++aWNeOrNA7BYAR+tGn9ZeZbHDytWq1VYZkuYbmjpwj4XjFDxNAxyvNThYw32wYhiUh+RHMyYGIO1d8zH/BlJTm8ywQE+yJ2ehP+9cz6mT2CisTdKTwrFH385FQDQ3mnAY6/mob1z9JVDhWVNePzV72A0WaBRq/Dn352FtKTQUX9fOTj/rN4RKt446kEr9QJIGgd+Eib7+mjVmJrF/jgkL9HhAbjtqumwWq2orG2HWqVCYkwQKwAJ5+Uk48SpNmzbfRyVte2477n9uH/17BGPWtj/QzWeeecQjCYLVCrg1t9Mx8xJytnd1mk1WHrOeLz9SREqa9txsLBOUT/fYLiT44WsViu+/0nIx5maGQ1fnUbiFRH1T6VSISUuBEmxwQxwyO6apdnInZ4EQEhEvvfZr3BsmKXlRpMZb370E/73zYP2HZybfzUdudMT3bFkSS2emwp/X2FPw9t2cxjkeKHiihZ76XjO5FiJV0NENDxqtQq3X3UmlswTBrI2tHbh3uf24fVtBUPqmn34aD3u/N89+OBLodlfgK8W9103B+flJLl13VIJ9NfhwjnCwNPCskYUuCFpW654XOWFDvxUa//zzGwGOUTkeVQqFX5/2RmICvfH258UwWS24MM9x/H5Nycwf0YScibHIS0xBEEBPjCbLaiq06OwrAlffFeJipre6dzpSWG49TdnKr7C9JJz0/Dp/nL0GM146+NCPHZrrtRLGhMMcrzQ1z+cAgCkJYYhIsRP4tUQEY3csvPSMXNSDNa/+wOOVTSj22DGjm9OYMc3JwZ8nK+PBldckIVl56V7XDfjkQgP8cOS3PHYsqsExyqa8W1+DWafofyiEwY5Xqa4ogXVDUInz3lnJki8GiKi0UuKDcajt8zD4aMN+PSrMhwsqoXV2v+9UWH+uGhuKi48e5y9VYG3uGxBBnZ8fQId3Ua8vb0IOdmxig/wGOR4mT0HqwAAKhVwzgwGOUSkDCqVCtMnRmP6xGjou4woO9mK8uo2GIxmaDVqhAf7YuL4CMREBEi9VMkE+utw+cJMvPnxT6iqa8eXByqxcJay+00xyPEiZrPFPtTwjPRoRIaOrOSSiEjOgvx1mJIRhSkZbI/xc0tyU7F933E0tnbj3c+O4pzpifBRcIUtq6u8yOFjDWjrEBpnnTtTeWWSREQ0MB+dBr+6cAIAoLG1G598VS7xityLQY4X2W07qvLVaTB7ivITzoiIqK/zzkpGYnQQAOA//y1GR9fgZfeeikGOl2jV9+C7fKGqKmdyHAL8vCvhjoiIBBq1ClctmQQA6Og24j//dd9Ud6kxyPESn+0/AaNJmFV10dnjJF4NERFJac6UOGSNCwcAfLT3uFPvICVhkOMFjCYLPt0vnLuOTwjF5PRIiVdERERSu/4XU6BWAWaLFS/8+wisp6u792AMcrzAV4dPolUvjHG4eH6axKshIiI5SE0IxZJc4T2hqFzoBq00DHK8wEd7ygAAYUG+yJ3O3jhERCT49eIJ9s73r28rQENzl8Qrci0GOQr3XX4NyqpbAQAXzUuFVsP/5UREJPD31eL6K6YCADp7THh282FFHVvxHU/BzBYr3vq4EAAQ6KfDktzxEq+IiIjkJic71t75OL+0AR/tLZN4Ra7DIEfBdn5bgZP1wpyqX1yQ6XVzWoiIaGhWLZuMWNvIi7c+LsSxE80Sr8g1GOQoVHePCe9+dhSAMJBuSW6qxCsiIiK58vfV4rarZ0CjVsFktuCJ1w+gub1b6mWNGoMchXrz40K02CqqrvqfidBplTubhIiIRm/CuHCsvHQyAKC5vRtr3zho76/mqRjkKNAPxxrsfXEmpkZg/gzOqSIiosEtyR2P83KSAQhl5U9vOgSLxXMTkRnkKExHlxHr3z0EAPDz0eDW35wJlUol8aqIiMhTXP+LKZiYGgEA+PZINTb++0eJVzRyDHIUxGy24Kk3v0djq3CO+rtLJiM2MlDiVRERkSfx0Wlwz+9nISUuBACw87sKrH/3MMweuKPDIEdBXvjPERw+VgcAOCs7DhdyRhUREY1AoL8OD1w/G3G2D8pf5FXiyTcOwGA0S7yy4WGQoxBvfVyInd9VAADSEsNw+9XTJV4RERF5svBgP/z95nlITQgFAOQV1ODuZ79CTUOHxCsbOlkGOZ2dnWhoaIDJZBr2Y00mE+rr69HdPXDpm9VqRUNDA/R6/UiXKQsmswXr3j6MLbtKAADRYf645w9nwc9XK/HKiIjI04UF++KRG8/GGelRAIDy6lb8+ek92H2wSuKVDY2sgpy6ujrceOONyMnJwbx58zBv3jz885//HFKLabPZjKeffhpz585Fbm4uZsyYgb/+9a9oa+s7Pn7Lli1YsGAB5s2bh5kzZ2LlypWoqKhwx4/kVjUNHXjg+a+x53thqFpcZCAe/uPZCA/2k3hlRESkFAF+OjywejaWnZsOAOjqMeGZdw7hoY3foLpO3hsFKqtMhlSYTCZceeWVqKysxJ/+9CekpqZi06ZN+O9//4tHHnkEV1555YCPf+aZZ7B+/XqsWLECixYtQl5eHl544QXMmzcPGzdutFcY7dq1CzfccAPOPfdc/O53v0NVVRWefvppBAYGYtu2bQgMHHmibklJCZYuXYqwsDB8++23I/4+gzEYzfjkq3K8+9lR9NjORzOTw3H3789CaJCv256XiIi823cFtdj43g9oteTTaK8AAA6OSURBVPVhU6uA3OnJuOKCdCTGBEu8ur5kE+R88MEHuOuuu7Bu3TosXrwYAGCxWLBq1SoUFhZi37598PHx6fexTU1NOOecc7BkyRI8+eST9utvvPEGHn30Ubz++us4++yzYbVasXjxYmi1WmzduhVarXCkc/DgQVx11VW48847sXr16hH/DO4Octo7Ddh9oAof7Cp16kS5ZN54rLh4Enx1bPhHRETu1dFlxFvbC/H5NyfgGEGkJ4Vh/sxEzDszQTYnCrI5rvriiy+g0WiwYMEC+zW1Wo2lS5eitbUVeXl5p33s3r17YTKZcOGFFzpdv+SSSwAAn3/+OQCgrKwM5eXluOCCC+wBDgDMnDkTCQkJ2LFjhyt/JJfp7jHh6be+xx8e3oHXthXYA5yEqCA8/Me5+P1lZzDAISKiMRHor8P1v5iKp+48F3OmJtivl1a14LWtBVj9/z7HQxu/wb92HMOhonroOw2SrVU22amHDx9GRkZGn92aiRMnAgDy8/Mxb968fh/7ww8/AAAmTZrkdD0iIgJRUVHIz893uk/8no4mTJiAffv2wWQyOQVAcrDvcDX2HT5p/+/4qEBccUEWzpmRCI2ajf6IiGjspcSFYM1vZ6K6bgJ2f1+FPQdPoq65ExYrcKSkHkdK6u33xkUGIjEmCFFhfogKD0BMuD/Sk0IRHx3k1jXK5t1cr9f3G3zExsYCAFpaWgZ8LADEx8f3+VpcXJz9sYPdZzQa0dXVheDgkZ0ris/T1dXldGw2Wl09Jqjq6qHTaZASF4xItR/ydh1E3i6XPQUREdGopPkAYf7dqKzRo66pAx1dRvvXagAc7ucxC2enIDig/1SU0bjjjjug0WjkE+QYDAbodLo+18VrBsPpt7vEr2k0fY9stFqt/es9PT32a/3dN9jzDEas5Orp6cHLL7884u8zkO/d8l2JiIjG3rul7vm+t912m7yCHJ1OB7O5bydFsVfO6ZKOgd4AxWq19pnTZDab7Y8V77NY+k5VFZ97oOcZTHJyMiZPngydTofp09mMj4iISAripodsgpzQ0FA0Nzf3uS5eCwgIGPCx4r0RERF9Hh8UJJz5hYWFOX3P/p7Hz2/kGeGZmZl4//33R/x4IiIich3ZVFdNnz4dxcXFfRr/HT16FEDfpGJHM2bMAAAUFxc7Xdfr9aiqqkJ2drb9Ofq7T3yezMzMfo/MiIiIyPPIJsjJyclBR0cHDh92Tk3au3cvdDodZs2aNeBjxXsd7du3DwCQm5sLAEhJSUF0dDT27t3rFExVVFSgrKzMfh8RERF5PtkEOUuXLkVUVBTWrFmDvLw8NDc3Y/369di2bRtWrVqFkJAQ+7233HILrrnmGvt/x8bGYvHixXj11VexefNmtLW1YdeuXXjooYeQlZWFRYsWAQBUKhVWrlyJb775Bo8//jgaGxvx448/4uabb0ZAQABWrVo15j83ERERuYdsOh4DwI8//oj77rvPfkQFAMuWLcPf/vY3p4TgBQsWoL6+HkeOHLFf0+v1uOeee/DZZ5/Zr02YMAHPPvssxo0bZ79msViwdu1avPXWW/Zqq+joaDzxxBOYO3euO388IiIiGkOyCnIAoUKqqKgIbW1tyMjIQGRkZJ979Ho9rFZrv/1sqqurUVVVhcjISKSlpfWpthI1NzejpKQE/v7+mDRpUr/l50REROS5ZBfkEBEREbmCbHJyiIiIiFyJQQ4REREpEoMcIiIiUiQGOURERKRIDHKIiIhIkRjkEBERkSIxyCEiIiJFks0UciJAaAb5+OOPw8/PD3/605+kXo5iGY1GfPLJJ9i1axdaWloQExODJUuWYP78+adtoElDZzKZsGXLFnz55Zfo6enB5MmTsWrVKoSFhUm9NMXq7OzERx99hL1790Kv1yMpKQnLli2zzzYk93v11Vdx9OhR/OMf/5B6KXbcySFZ2bx5M15//XUcPHhQ6qUolsFgwLXXXos1a9bg1KlTiI+Px5EjR7B69Wo88MADYH/Q0bFarbj99ttx3333oaurC0FBQXj55ZexfPlyNDQ0SL08RWpra8Ovf/1r3H///Whra0NcXBz279+Pq6++Gs8995zUy/MK+/fvxz/+8Q/s2bNH6qU4sxLJRGlpqXXKlCnWrKws69VXXy31chTrvffes2ZlZVnfeOMN+zWz2Wy95557rFlZWdaDBw9KuDrP9/HHH1uzsrKsb775pv1aQUGBdfLkydY1a9ZIuDLlWr9+vTUrK8v6ySef2K8ZDAbr6tWrrVlZWdaKigoJV6d8LS0t1tzcXGtWVpZ1zpw5Ui/HCXdySBYMBgP+/Oc/Y9asWUhKSpJ6OYq2fft2BAUF4Te/+Y39mlqtxrXXXgsA2LVrl1RLU4T3338foaGhTn+/2dnZuPjii7F9+3bo9XoJV6dM27dvR0pKCi666CL7NZ1Oh5UrVwIAdu/eLdXSFM9qteLBBx9EUFAQZs+eLfVy+mCQQ7Lw3HPPoaqqCo8++qjUS1G8tWvX4t1334VOp3O63tXVBQDw8fGRYlmKYDQaceDAgX6H/k6ePBlGoxH5+fkSrU65XnvtNbz44ot98sn4mna/bdu2YceOHXjiiSfg6+sr9XL6YOIxSe7AgQN48cUXsW7dOsTExEi9HMWLiIhARESE0zWr1YqXXnoJALBw4UIplqUI7e3t6OrqQnp6ep+vjR8/HgBQVVU11stSvOjoaERHRztdM5vNePnll6HRaDB//nyJVqZsVVVVePjhh3HzzTdjypQpUi+nXwxyyOUmTJgw6D1Hjx4FILwprFmzBpdeeqnTVjMNz3D+zvvz2muv4dNPP8Uvf/lLZGdnu3JpXqWnpwcA4Ofn1+dr4rXu7u4xXZO3evLJJ3Hw4EHcdNNNiIuLk3o5imM2m/GXv/wFGRkZWL16tdTLOS0GOSSpRx55BFarFffff7/US/FKVqsVGzZswLp16zB//nw88MADUi/Jow2l/P7nx1jkWiaTCY899hjeeustXHbZZbj55pulXpIivfzyyygoKMC2bdug1co3lJDvyshjDbRj4Oizzz7D1q1bcffddztt4RsMBnR2dqKwsBARERGIjY1111IVY6h/544MBgPuuecefPjhh1iyZAkef/xx5i6MkpiT0N9ujZgf0t8uD7mGXq/H7bffjr179+K3v/0t/vrXv0KtZuqpqxUWFmLdunW46qqr7L+rAeHv32QyobCwEEFBQUhOTpZ4pQxySELff/89AOCxxx7r87W6ujosX74c1113Hf785z+P9dIUr62tDTfccAMOHjyIG264AbfddhvfDFwgLCwMsbGxOH78eJ+vlZaWAgDi4+PHelleoba2Fn/4wx9QXFyMe++9F7/97W+lXpJiHTlyBGazGW+++SbefPPNPl9fvnw5FixYgA0bNkiwOmcMckgyV1xxBebMmdPn+r333ouIiAjceeedSElJkWBlymYwGHDDDTfg0KFD+Mc//oHly5dLvSTFUKlUyMnJwf79+2EymZy28fPz8+Hj44MzzzxTwhUqU3t7O6699lpUVlbihRdewLnnniv1khQtNzcXGzdu7HP92WefxYkTJ7B27VpERkZKsLK+GOSQZDIzM5GZmdnnur+/P8LCwnD++edLsCrlW79+PQ4ePIg//vGPmDNnDmpqapy+HhAQgJCQEIlW5/kWLVqEjz/+GBs2bMDNN98MlUqFvLw8bN++HZdffjmPq9zg0UcfRUlJCe6//35MmDChz2s6KCgIQUFBEq1OeRISEpCQkNDn+ttvv41Tp07J6ne3ymplD3eSl4ULFyI+Ph5vvfWW1EtRHIPBgDlz5qCjo+O096xYsYKJ4KNgtVpx1113YevWrZg4cSLCw8Px9ddfIy0tDZs3b0ZoaKjUS1SUxsZG5ObmwmKxnPaeO+64A9dff/0Yrso7XXfddcjPz8fXX38t9VLsGOSQ7GzZsgUBAQEsKXeDjo4O/Oc//xnwnokTJ2LWrFljtCJlslqt+O677/Dpp5+ip6cH06ZNw9KlS7mb4AYNDQ3Yvn37gPdMnz5dtn1clGTnzp1obGzElVdeKfVS7BjkEBERkSKxnIKIiIgUiUEOERERKRKDHCIiIlIkBjlERESkSAxyiIiISJEY5BAREZEiMcghIiIiRWKQQ0RERIrEIIeIvNbJkyeRk5ODJUuWwGQy9fm62WzGrbfeihkzZuDRRx+VYIVENBoMcojIayUmJuLcc89FaWlpv6MBnnzySXz22WeYOnUq1qxZI8EKiWg0GOQQkVcTBze+8MILTkMeN23ahNdeew0ZGRl49tlnodPppFoiEY0Qgxwi8mpZWVlYuHAhSkpK8MUXXwAAdu/ejUceeQRRUVF48cUXERwcLPEqiWgkGOQQkde74YYbAAAbN25EYWEhbr/9dvj6+mLjxo1ITEyUeHVENFKcQk5EBGDlypX4+uuvERQUBL1ej+effx4LFy6UellENArcySEiAnDttdcCAPR6Pe69914GOEQKwCCHiLye0WjEG2+8Yf/vyZMnS7gaInIVBjlE5NWsVisefvhh7Nu3D5mZmQCESisi8nwMcojIq7344ot47733cOaZZ+K9995DVlYWdu/ejaKiIqmXRkSjxCCHiLzWhx9+iKeeegrJycnYsGED/P397ZVW3M0h8nysriIir5SXl4dVq1YhICAA7777LsaPHw9AGOWwePFiVFZW4tNPP0VqaqrEKyWikeJODhF5ndLSUtx4440AgOeff94e4ACARqPB6tWrYbVa8fLLL0u1RCJyAe7kEJFXaWxsxJVXXomqqio89dRTWLp0aZ97DAYDFi1ahIaGBuzcuRNxcXESrJSIRkvz0EMPPST1IoiIxsq2bdug1Wpx1VVX4bLLLuv3Ho1Gg8TERPj6+iIsLIxHVkQeijs5REREpEjMySEiIiJFYpBDREREisQgh4iIiBSJQQ4REREpEoMcIiIiUiQGOURERKRIDHKIiIhIkf4/b2dfcSg/QIgAAAAASUVORK5CYII=;" vertex="1" parent="1">
          <mxGeometry x="949.5" y="48.91999999999999" width="235" height="244.08" as="geometry" />
        </mxCell>
        <mxCell id="1XD5un0cPilmK_VXMZru-71" value="" style="shape=image;verticalLabelPosition=bottom;labelBackgroundColor=default;verticalAlign=top;aspect=fixed;imageAspect=0;image=data:image/png,iVBORw0KGgoAAAANSUhEUgAAArgAAALnCAYAAABiGDQNAAAgAElEQVR4nOzdeZxU9ZX//3ctvTd7s++LgiAIgogionFJXKJxYtwmYxaNMRmTyfxivjExmcxjMo+YGU1mNMmYfYwal2BCNK7jBgoiKIsoIDvSbE3TIL131/b7o/X25zaoVUXd+6mq+3o+Hj5St7uVk77FvafOPZ/zCaVSqZQAAACAIhG2HQAAAACQSyS4AAAAKCokuAAAACgqJLgAAAAoKiS4AAAAKCokuAAAACgqJLgAAAAoKiS4AAAAKCpR2wEUs5UrV+q5556TJB1//PGqrKy0HBEAAEDham5u1pYtWyRJF110kU488cSj/hwJrocWLFighQsX2g4DAACg6MTj8Q9McGlRAAAAQFGhguuh448/3nl96623aty4cRajAQAAKGzr16/XT37yE0nShAkTPvDnSHA91Lt3b+f1SSedpJNOOsliNAAAAIUtHO5uPujVq9cH/5wfwQAAAAB+IcEFAABAUSHBBQAAQFEhwQUAAEBRIcEFAABAUSHBBQAAQFEhwQUAAEBRIcEFAABAUSHBBQAAQFEhwQUAAEBRIcEFAABAUSHBBQAAQFEhwQUAAEBRIcEFAABAUSHBBQAAQFEhwQUAAEBRIcEFAABAUSHBBQAAQFEhwQUAAEBRIcEFAABAUSHBBQAAQFEhwQUAAEBRIcEFAABAUYnaDsBP9fX1uvfee/XMM8+ooaFBffr00cc+9jHdcMMNGjRokO3wAAAAkAOBqeBu27ZNl112mX7961+rsbFRU6dOVTwe13333acLLrhAb731lu0QAQAAkAOBqeD+27/9m+rr63XVVVfp1ltvVWlpqRKJhH7xi1/oF7/4hW6++WY9/vjjikYD8ysBPNUZS2hfQ4sOvNuuppZONbV0qrGlU02tnWpujamzM6HOeFIx55+EkomUUpJSqZRSKSmllCLhsM6YMUyfOe942/+XAAAFIhDZ3FtvvaVly5apX79++s53vqPS0lJJUiQS0T/+4z/qkUce0fbt27VmzRrNmjXLcrRAYUkmU9q+p1EbdxzU7v3N2lPfoj31zWo43KZUKjd/xkPPbNRp04ZqxOBeufkPAgCKWiAS3L59++pb3/qWKisrVV5e7vpeJBLRkCFDVFdXp6amJksRAoUjkUhq667DWretQeu3HtTb2xvU2hH3/M9tONxBggsASEsgEtwRI0bo+uuvP+r39u3bp/Xr1ysUCmnChAk+RwYUjs0739Wi12u1dM0eNbV2pvXvRCMh1fStVO/qUvWuLFWvqlL1ripVdVWpyksjKomG3/snomg0rGika1lAKCSFQiH9+29edf5byVyVgwEARS8QCW5PqVRKra2teu211/TjH/9YsVhM1113nUaOHGk7NCCv1B9q1aLXd+mllbu150DzB/5cJBzS+BF9NW5EHw0dWKVhA6s1fGCVavpVKhIOZf3njxzUS7X7u56sJJMkuACA9AQywb377rt15513OseXXXaZvvnNb1qMCMgvO/c16qFnNmv5m3uO+v1oJKzjRvXTlPH9NXlcjSaO6avy0txfTkJGckyCCwBIVyAT3JqaGn3xi1/U4cOH9fTTT2vhwoU6dOiQfvrTn6qqqsp2eIA1u/c36eH/26xX3th91AViU8bVaP6s4Tpt2lBVlpd4Hk/IKP7SogAASFcgE9wrrrjCeX3zzTfr2muv1aJFi/TjH/9YP/zhDy1GBthR19Cih57ZrCWra9WzUDp8YLXmzxqhM08eroH9Kn2NK0wFFwCQhUAmuKb+/fvrW9/6lm644QY98cQT+v73v++MEQOKXTKZ0l8XbdXDz2xUPJF0fW/k4F668uMTNWfqEIVC2ffRHouw8eemqOACANIUmAQ3mUwqFouprKzsiO+dcsopkqSWlhY1NDRo6NChfocH+G5vfbPuenCNNu085Pr68IHVuuL8iZo7fai1xPZ9EVcF12IgAICCEogE99e//rXuuusuXXXVVfre9753xPcbGhqc1/TgotilUik9sWS7HnjybXXEEs7X+/cu12cvOkHzZgx3tQbY5GpRoIILAEhTIBLcSZMmKRaL6dFHH9U3vvENVVdXu77/4IMPSpLmzZun3r172wgR8MWBQ22668E1WrftgOvr82eO1HWfmqKqCu8XjmXCbFGgBxcAkK6w7QD8MG/ePE2dOlWNjY3653/+Z+3du1eS1NzcrF/96lf63e9+p3A4rBtvvNFypIB3ttYe1v+782VXctunukzf/sJsff3q6XmX3EosMgMAZCcQFdxQKKSf/exnuu666/TSSy/prLPO0uDBg3Xo0CF1dnaqtLRUd9xxh2bNmmU7VMATr62r03/9caU6OrtbEk4/aZi+9HdT1bsqfxdVmj3AtCgAANIViARXkoYOHao///nPev755/XMM8/owIEDmjBhgs4880x98pOf1IABA2yHCHjiqaU79Pu/vumM/4qEQ7rx8pP0sdn5v3Nf2HjGxBQFAEC6ApPgSlJFRYUuvvhiXXzxxbZDATyXSqV07+Pr9djibc7XKsui+n9fOEVTJ9RYjCx9Zg9ughYFAECaApXgAkERTyT1X39crVfXdm+1W9O3Qt+7frZGDimchZQRenABAFkgwQWKTDKZ0p0PrHElt2OH99Gt181Wv97lFiPLXIgxYQCALJDgAkXmtwvf1Ctv7HaOT540WN/8h5NVXlZ4f90ZEwYAyEbh3fEAfKAHn96oZ5a94xxPP36Qvv2FWYpGCnMiYIidzAAAWSjMux6AIzzx8nY98twm5/j4Uf30rc/PLNjkVupRwaVFAQCQpsK98wFwvLRqt37/6FvO8cjBvXTr9bNVXlrYD2nMjR4YEwYASBcJLlDgVr9dr58/tNo5Hti3Qt+/4VRVV+bvBg7pYkwYACAbJLhAAatraNFP73vdSf56V5XqBzfO0YA+FZYjyw2zu4JFZgCAdJHgAgUqFk/qjntXqbUjLkmqKIvq+1+ao6E11ZYjyx12MgMAZIMEFyhQf/jbOm3b/a5z/JXPnKRxI/pYjCj3QowJAwBkgQQXKEDL1u7VU0t3OMcfP2205k4fZjEib4TZyQwAkAUSXKDA1DW06H8eXuMcjx3WR1+4dIrFiLxjLjKjQwEAkC4SXKCAxOIJ3f6HlU7fbWVZVN/63EyVRCOWI/NGmK16AQBZIMEFCsj/PrpO2/ccdo6/euV0DR5QZTEib0XCjAkDAGSOBBcoEK+vr3Ntw3vh3LE6bdpQixF5L8wiMwBAFkhwgQLQ3hHXb/7ypnM8fkRfXfvJyRYj8gctCgCAbJDgAgXgoWc26sC7bZKkaCSsf7pmukqixf/X1yjgUsEFAKSt+O+QQIHbuuuwnnh5m3N82ccmaPigXhYj8o9ZwWWjBwBAukhwgTyWSKZ094I39H7xclhNtT59znF2g/KRe6MHi4EAAAoKCS6Qx55asl3bd3dPTfjyZ6YFojXhfWHXFAWLgQAACkpw7pRAgTlwqE0PPv22c3z2KSN14vgBFiPyX4RFZgCALJDgAnnqNwvfUntnQpLUq7JUnwvA1ISeGBMGAMgGCS6Qh5at3avX1+9zjr9w6RT1qiy1GJEdrh5cKrgAgDSR4AJ5JhZP6J7H1jnHUycM1PyZIyxGZE/YuEKlqOACANJEggvkmadfecc18/bGy6dajsgeNnoAAGSDBBfII63tMf35uc3O8fmnjdaQmiqLEdll9uBSwQUApIsEF8gjjy3epqbWTklSRVlUl58bnJm3R+MeE0aCCwBIDwkukCcON3fo8Ze6dyy7+Mxx6lNdZjEi+xgTBgDIBgkukCceeW6z2jrikrrGgl0yf5zliOxjJzMAQDZIcIE8UH+wVf+37B3n+PJzj1NleYnFiPIDc3ABANkgwQXywIPPbFL8vb1oa/pW6OOnj7EcUX4we3BTtCgAANJEggtYtnNfo15aVescX/XxiSqJ8ldTYkwYACA73EUByx54cqPez91GDuoV2E0djoYWBQBANkhwAYs273xXrxlb8l594SRX1TLozJ3MGBMGAEgXCS5g0V9e2OK8Pn5UP5164hCL0eQf1xQFWhQAAGkiwQUs2XugWa+t2+scfzrgmzocjasHlwouACBNJLiAJY8t3ub03o4Y1EszTxhkN6A85Nqql/wWAJAmElzAgsPNHVr0WvfkhEvOGud6HI8urjFhVHABAGkiwQUseGrpDnXGu+be9q0u05knMznhaBgTBgDIBgku4LOOWEJPL93hHF84byxzbz+A2aLAFAUAQLq4qwI+e3FFrZpaOyVJ5aURdi37EBEWmQEAskCCC/gomUzpb4u3OcfnzB6l6ooSixHlN7MtmRYFAEC6SHABHy1/a5/2HWyR1NVf+sn54yxHlN9ci8xIcAEAaSLBBXz06ItbndenTxumgf0qLUaT/9xzcC0GAgAoKCS4gE/WbzuozbWHnONLzxpvMZrCYC4yowcXAJAuElzAJ48t6q7eTp1Qo3Ej+liMpjAwJgwAkA0SXMAHDYfbtHLDPuf4Eqq3aYkYVygSXABAukhwAR88v7xW7z9hH9K/SjMmDrQbUIEI0aIAAMgCCS7gsWQypedX7HSOz5kzim150xRmTBgAIAskuIDH1myq14F32yR1bVxw9ilsy5su15gwKrgAgDSR4AIee/bV7urtzMlD1K9XucVoCguLzAAA2SDBBTx0qKldK9d3Ly47b84oi9EUHsaEAQCyQYILeOjF13Yp8V5iVtO3QtOPZ3FZJtwVXIuBAAAKCgku4JFUKqXnjfaEc2aPciVs+Gg9F+NRxQUApIMEF/DIW1sbtO9gi6SuaQDnnDrSckSFp+cHAvpwAQDpIMEFPGIuLpsxabAG9KmwGE1hCveo4KZIcAEAaSDBBTzQ2NKp5W/udY7PPZXFZdnoWcFN0KIAAEgDCS7ggUWv1yqeSEqS+vUq18zJgy1HVJiOaFEgwQUApIEEF/DAc0Z7wsdmj1SExWVZ6flrI78FAKSDBBfIsbe3H9Lu+mbnmPaE7FHBBQBkgwQXyLHFq2qd19OOG6hB/SstRlPYei4yI8EFAKSDBBfIoUQiqWVvdC8umz9zuMVoCl/PCi5TFAAA6SDBBXJo7eYGNbV2SpJKomHNPnGI5YgK2xEVXBJcAEAaSHCBHFqyZrfzesakwaosL7EYTeGjBxcAkA0SXCBHYvGEVhizb+fNGGYxmuJh5rgkuACAdJDgAjmyckO9WjvikqSKsiizb3PErOLSogAASAcJLpAjS1Z3tyfMmjxEZSURi9EUj5DRh0sFFwCQjqjtAPzW1NSkl156SXv37lU0GtWMGTM0bdo0100UyFR7R1yrNtQ5x2fQnpAzrgouCS4AIA2BSXDj8bhuv/123X///YrH467vjRkzRrfffrumTZtmKToUuhXr6tQRS0iSqspLNH3iQMsRFQ9zkgIdCgCAdAQmwf3JT36ie+65R/369dP111+vmTNn6vDhw1qwYIGee+45ff7zn9df/vIXjRkzxnaoKEBLjfaEOdOGKhqh+ydX6MEFAGQqEHfhQ4cO6Y9//KPC4bDuu+8+XX/99ZoxY4bOOuss/fznP9dFF12klpYW3XPPPbZDRQFqbu3Umk37neN5J7O5Qy6ZFdxE0mIgAICCEYgE98UXX1RHR4fmzp2r4447zvW9UCikz33uc5KkRYsW2QgPBe7VN/cpnuiqLPatLtOUcQMsR1RcwiwyAwBkKBAtCjNnztRtt92mQYMGHfX7JSVdw/gTiYSfYaFImNMTTp8+7IjNCXBszPWftCgAANIRiAR39OjRGj169Ad+/6mnnpIkTZ482a+QUCQONbVr3dYDzvEZM2hPyDWmKAAAMhWIFoUPs3nzZv3hD3+QJF177bWWo0GhWfbGXr2fcw3qV6mJo/vZDagImQkuBVwAQDoCneDW19frhhtuUEdHhy6//HKdfvrptkNCgXnlje6teedOZ/atF+jBBQBkKrAJ7tatW3X11Vdrz549OvPMM/WDH/yAzR6QsX0HWpzX0ycevccbx8as4CZIcAEAaQhkgvvKK6/oyiuvVG1trc4991z97Gc/U2lpqe2wUIBi8e6FiZXlgWhp912EObgAgAwFLsF95JFHdP3116upqUmf//znddddd6m8vNx2WChQZkUxGuUJgBdCtCgAADIUqJLTb37zG91xxx0Kh8P613/9V1199dW2Q0KBMyu4JdHAfV70hWtMGAkuACANgUlwFy5cqDvuuEOlpaX6+c9/rvnz59sOCUXg/Q0eJLE9r0fcUxRIcAEAHy0Qd+Ta2lr94Ac/kCTdcccdJLfIiVjcvW9slAquJ8L04AIAMhSICu4999yjjo4OSdJ3v/tdffe73z3qz1VXV2vx4sV+hoYCFk+4E9wSKrieYEwYACBTgUhwly1bpnC4K/lobW39wJ97/2eAdFDB9YdrikLyQ34QAJCVjlhCDYfa1NgSU2NLh5paOtXY2qnmlk51xBKKxZOKxVOKxbteJxIpp2UsmUpJqa4FwTMnD9KFZ4y1/P+mSyAS3CeffNJ2CChCVHD9QYsCAORGa3tMG995V7vqmrSnvll761u0p75ZDYfbc/LfX7Npv44b1U/Hjeqbk//esQhEggt4IW5UcEMhKUKC6wnGhAFAdppaO7Vu60Ft2NagdVsb9M7ew/LyMhoJh9S/T5l3f0AGSHCBLJkJLhMUvGP24DJFAQA+XGNLp5au2aPFr+/S5tpDaf97kXBIvSpL1avq/X/K1LsyqvKyqEpLIopGwiqJdv0TjYSlUFcBIqSuIk84FNK042s0oE+Fd//nMkCCC2QpZrQo0J7gHVeLAhVcADhCLJ7U6+vrtPj1XVr1dt2Hbmveq7JU40f01bCBVRo6sErDBlZr+MAqDehb4breFjoSXCBL5iIz2hO8Y679pAcXALq1tsf0t5e26YmXtqulPXbUn+lbXabJ42s0ZVx/TRnfXyMG93K1fhUrElwgS/F4d7LFLmbeMVsUPqwqAQBB0dYR15NLtuvRF7ceNbHt16tcZ548XPNnjdDoob0tRGgfCS6QpViCbXr9EKFFAQAkSe2dcT21dIcefXGrmlo7Xd8rK43o1BOH6qxZIzR1Qk1RtRtkgwQXyJJZwWWRmXdcUxRoUQAQUKs31uvuP605YqRXZVlUF505TpfMH6fK8hJL0eUfElwgS7F4dwWXTR68E6KCCyDA2jri+sNj6/Ts8p2ur1eURXXhGWN1yfxxqq4stRRd/iLBBbJkbvRABdc75mM2CrgAgmTd1gb9/KE12n+oexfWaCSsi+aN1afOnqDeVSS2H4QEF8iSOQeXHlzvhNnoAUDAdMYSuv+JDXpiyXbX18cO66OvXzNdo4YEc+FYJkhwgSy55uCS4HqGrXoBBMnh5g7d9rvXXJs0RMIh/d05x+kz5x7HWMo0keACWYqxk5kvGBMGICj27G/Wv/92ueoOdrckjBzcS1+7eobGj+hjMbLCQ4ILZMnVg0sF1zOujR5IcAEUqfXbDuo//neFmtu659qef9poffHSKSqJRixGVphIcIEsxejB9YU5yjFFiwKAIrR0zR7d9eBqV+Hk2osn69KzxluMqrCR4AJZitOi4AumKAAoZgtf3KL7n9jgHJdEw/qna07WadOGWoyq8JHgAlmKuxaZBXvHGC+FmYMLoEg9umirK7ntVVmqW744W5PG9LMYVXEgwQWyRAXXH4wJA1CMXnytVvc+vt45HjKgSt//0qkaUlNlMariQYILZMndg8sCAK8wJgxAsVmxrk7/s+AN53hI/yr9+02nq1+vcotRFRfKTkCW3DuZ0aLglUiYMWEAisf6bQf10/ted55I9a0u0798+VSS2xwjwQWy5JqDSwXXM0aHAi0KAArajj2Hddvvljv3j6qKEv3Ll+do8ADaEnKNBBfIUizenWxRwfWO2YPLmDAAhWrfgRb926+Wq7UjLkkqK4nou188VaOHsu2uF0hwgSy5pyhQwfUKUxQAFLr2zrh+/L+v6XBLh6Su1qtvXjtLk8YyLcErJLhAllxTFBgT5hkWmQEodL/9y1uqrWtyjm+6aoZmnjDIYkTFjwQXyBIVXH+EXGPCLAYCAFl48bVavfh6rXN82dkTdObJwy1GFAwkuECWXGPCmIPrmbBrioLFQAAgQ7X7GvWbv7zpHE8a019XXzDJYkTBwV0ZyJJrTFiUv0pecW30QIsCgALR3hHXHfeuUkcsIalrl7L/7x9Odo0+hHe4KwNZcm/0wF8lr7DIDEAh+tWf39Ku/d19t/90zcka0KfCYkTBwl0ZyJKZ4EZoUfAMY8IAFJrnl+/US6u6+24/fc5xmjFpoMWIgoe7MpClRIIKrh/Cxq+WCi6AfLe3vlm/Xdjddzt57ABd+fGJFiMKJu7KQJZYZOYPxoQBKCR3L3hTne/dH3pXleqf6bu1grsykCX3Vr38VfKKq0WBCi6APPbia7Vat+2Ac3zjZ05S/97lFiMKLu7KQJZcc3Cp4HrGTHATJLgA8tTh5g7d89g653j2lKE69cQhFiMKNu7KQJbcGz3w+MkrtCgAKAT3PLZBzW0xSVJFWVTX/90UyxEFGwkukCXXHFwquJ4xE1zyWwD5aO3mA66pCVd/YhIjwSzjrgxkiTm4/nBt9ECLAoA80xlL6FePrHWOx4/oqwvmjrEYESQSXCAr8R57xkZIcD3DRg8A8tkjz23WvoYWSV3Xq69eMc113YId3JWBLMTj7gSXCq536MEFkK921TXp0UVbnONPzhunMcP6WIwI7+OuDGQh1qOCSw+ud8xCCBVcAPnktwvXKZ7oui4N7FuhKz5+vOWI8D7uykAWqOD6x6zgMiYMQL54Y1O93txS7xx/6dPTVF4atRgRTNyVgSz0THCp4HonFGKKAoD8kkqldP8TbzvHUycM1MwTBlmMCD1xVwaywIgw/9CDCyDfLFu7V9t2v+scf/aiSRajwdFwZwaywIgw/zAmDEA+SSSSeuCp7urtqVOHacLIvhYjwtFwZwayEEt0J1pUcL3l2uiBBBeAZS+8Vqu9B7rHgn32gomWI8LRcGcGsmBWcElwvUWLAoB80RlL6OFnNjnHZ88aqWGDqi1GhA/CnRnIgtmDS4uCt8wxYUxRAGDTE0u261BTuySpNBrWlYwFy1vcmYEs0IPrH1eLAhVcAJa0tMW08PnuTR0umDtWA/pUWIwIH4Y7M5AFc0xYhBYFT7HIDEA+WPjCFrW0xyRJlWVR/d05EyxHhA/DnRnIAi0K/qEHF4Bth5ra9eSS7c7xpWdPUHVlqcWI8FG4MwNZiLPIzDeuBDf5IT8IAB558uXt6oglJEl9qst08ZljLUeEj8KdGcgCPbj+oUUBgE3tHXE988o7zvGlZ41nS94CwJ0ZyAI7mfnHleDSogDAZ8+t2OnqvT1vzijLESEd3JmBLFDB9Q89uABsSSRTenzxNuf4vDmjVVleYjEipIs7M5AFM8GNkOB6Kmz8etnJDICflr2xV/XvtkmSIuGQLqL3tmBwZway4JqiQIuCp8yNHqjgAvDTXxd1z709Y8YI5t4WEO7MQBZcW/VGQx/ykzhW7ikKJLgA/PHmlgPavvuwc/yps8ZZjAaZIsEFspBgDq5v6MEFYMOjL251Xk8/fpBGDe1tMRpkijszkIUYc3B9w5gwAH7bua9Rqzfud44vPXu8xWiQDe7MQBbYycw/7jFhFgMBEBiPLuqenDB2WB9NO67GYjTIBndmIAuxeMJ5TQXXW6Gwu8c5RZsCAA81HG7TktW7nONLz6J6W4i4MwNZiMW7X0ep4Hoq3CPBpU0BgJeeWrJD8UTXdaamb4VOP2mo5YiQDe7MQBbiie4KLi0K3jJbFCQWmgHwTiye1HPLdzrHF585ThGe0hUkzhqQhXi8O8liDq63elZwE1RwAXhkxVv71NTaKUkqK43onNkjLUeEbHFnBrLg6sGlguspWhQA+OXZV7urt6dPG8a2vAWMOzOQhff7syQquF7rkd8ySQGAJ+oaWvTmlnrn+LzTRluMBseKOzOQBbOCSw+ut3r24DJFAYAXzOrtyMG9NHF0P4vR4FhxZwayYFZwaVHwFi0KALyWSCT1wmu1zvG5c0ZZjAa5wJ0ZyAJzcP1DggvAa6+t36/DzR2Sup7KnTVzhOWIcKy4MwNZiJtb9VLB9RRjwgB47blX33Fenzp1mKorSy1Gg1wI9J35lltu0bRp02yHgQLEVr3+oYILwEsHDrVpzab9zvF5tCcUhcDemR966CEtXLhQyWTyo38Y6CFmVnBpUfCcWcQlwQWQS8+t2Kn3HwwNranSieMH2A0IORG1HYDfksmkfvnLX+rOO++0HQoKGBVcf4VDISXeuwPRogAgV5LJlF5c0b247JxTqd4Wi0AluBs3btR//ud/asmSJerdu7caGxtth4QC5erBjYQ+5CeRC+FwyNnBLMVDFwA5snpjvQ4cbpPUdS3/2CnsXFYsAlN6ampq0iWXXKIlS5bolFNO0QMPPGA7JBQwKrj+MvtwqeACyJVnjcVls6YMVZ/qMovRIJcCU8FNpVIaO3asbrrpJl100UVqb2+3HRIKWCxBD66fzEkK9OACyIVDje1auaHOOT6P9oSiEpgEt7q6Wk899ZRCIR4n49gkkimZRUTGhHmPCi6AXFu6Zo/zgXlg3wqddHyN5YiQS4FJcMNhkhDkhrnJg0QF1w/mx9IEPbgAcuDl1Xuc12fOHEEBrMhwZwYyZG7TK9GD6wdXBZcWBQDHqK6hRVtqDznH82YMsxgNvMCdGchQzwouCa73zB7cFC0KAI7RkjXd1duRg3tp5JDeFqOBF7gzAxlKxN0JFi0K3nNXcC0GAqAovLxqt/P6jBnDLUYCr3BnBjIUS3RXcKOREH1bPmCRGYBcqd3XqNq6JueY9oTiRIILZCjONr2+Y0wYgFwxF5eNH9FXgwdUWYwGXuHuDGQoZrQokOD6w6zgJkhwARyDpUaCO+9k2hOKFYVUxAkAACAASURBVHdnIENs8uA/VwWXFgUAWdpS+672HWyRJIVC0uknDbUcEbzC3RnIkNmiwAQFf5gVXKYoAMjWktXdi8tOGDtAA/pUWIwGXgrMRg89RaNRffOb31QkErEdCgpMzOzBJcH1hbmOjx5cANlIpVJaaowHY3pCcQtsgltSUqIbbrjBdhgoQHFaFHzHRg8AjtX6bQd1sLFdkhQJh3TaNNoTihl3ZyBDVHD9x5gwAMdqyZru9oRpxw1U76pSi9HAa9ydgQwlEvTg+o0xYQCORSKR1LI39jrHtCcUP+7OQIZizMH1nTvBtRgIgIK0dnODmlo7JUml0bBmnzjYckTwGndnIENxKri+Y4oCgGOx1GhPmDFpsCrLSyxGAz9wdwYyZFZwS6jg+oIeXADHorau2Xk9c/Igi5HAL9ydgQyZCW4kypg5P9CDC+BYmE/eqipYXBYEJLhAhlwtCpHQh/wkcoUxYQCORcI13pHrdhCQ4AIZirGTme/Cxq+ZFgUAmTI/GEfCXLeDgLMMZCgepxLgN7NFIUEFF0CGzCdvEa7bgUCCC2TIPUWBHlw/0KIA4FgkXBVcEtwgIMEFMuTeyYwLpR/MCi4dCgAylUgYCS7TbwIhajsAoNBQwfVfiDFhyCOpVErNbTE1NXeqsTWmxpZONbd0qrU9ps54UrF4QvF4UrH3/kmmUlKq699LqetDWk3fCn389NHqU11m+/9OICSMHWKo4AYDCS6QoVi8O8FiJzN/0KIAG5rbYtqxp1F79jdrT32z9ta3aE99i/YfalE8cezvw7qDrfraVdNzECk+ilnB5bodDCS4QIbcLQpcKP3AHFz44XBzh9ZvO6j1Wxv01tYG1dY1etoSs23XYe/+43Axn/yQ3wYDCS6QIbbq9Z/5RJEWBeRSXUOLFq3cpWVv7FVtXVNG/24kHFJ1Zal6V5aqV1WpqipKVFISVjQSUWlJSCXRsEqiYYVDIYXe+5C26u39emdvoyQpxYc13ySYohA4JLhAhtxjwkhw/WC2KDAmDMequS2mV9bs0eKVu/T2joMf+rO9Kks1fFC1hg2s0rCB1Ro6sFrDB1ZqQN8KVZaXZPxnT5lQo3//zauS+LDmpzhzcAOHBBfIEBVc/5kJboqkAFnavb9JC57domVr97j+Hpv69y7X5HEDNGX8AE0Z31/DB/XKaQyumc456ONFelwbPVDBDQQSXCBDMSq4vnO1KBw9LwE+0L4DLXr4/zZpyepdOtoDgJGDe2n+zBE6bdpQDamp8jQWM7lK8Gb2RaLHh5kwUxQCgQQXyFCcrXp9RwUX2dh/sFV/+r9NWrxq1xGLE/tUlWneycM1f+YIjRvRx7eYXAsmeS/7omdbEy0KwUCCC2Qo5lqswIXSD4wJQyZi8aQWPLtJf31xyxHJzfCB1bri/Ik67aShVuahuiq4tCj4omc7ClusBwMJLpChBBVc3zEmDOnaseew7nxgjXbua3R9fciAKl15/vE6Y8Zwq4+oqeD6r+c1gxaFYCDBBTJED67/SArwURKJpP78/BY98twmV9V2YN8KXXH+RM2fNSIvdrAyY6CC64+em3Jw3Q4GElwgQ0xR8B8tCvgwu+qadOcDa7Rt97uur184d6z+/qJJKi/Nn1ud2aJAP7k/ei7my4cPOvBe/vytBwpEjBYF35lrQqjgwvTqm/t01wOr1BFLOF8b2LdC/3jVdE2dUGMxsqMzc6sE72VfJHtUcFk7EQwkuECG4kkzwaUS4Ad6cHE0j7+0Tff8bZ1rO91zZo/S5y+ZnNUmDH4wV/DzXvaH2bJC/21wkOACGWInM//RogBTMpnS/z62Tk8u2e58raqiRP90zcmaecIgi5F9NHbl85/ZVhYlwQ0MElwgQzF6cH3nSnB5rBtoHbGE/vv+1Vqxbq/ztUH9KnXr9bM1YnBudx3zQoQPa75z72LGNTsoSHCBDCSTKS6WFoRcLQoWA4FVh5s79KPfvaYttYecr40f0Vffue4U9etVbjGy9IV6VBCTyRSPzT1mTlEw251Q3EhwgQzEegwMp4LrD/OmlCDBDaTmtph+cPcy1dY1OV+bNXmI/vmzM/JqSsJH6bmCP0GC67mEqyjB7zooCueqAOQBs/9WogfXL2zVG2wdsYR+9NsVruT2grlj9MVLTyy45LBnvLTceM+V4LJNb2CQ4AIZiMWp4NpAD25wJRJJ3X7P69r4zkHna58+5zhdc8Eki1Fl74gKbiIplUQsRRMMCdf26oX1gQjZ4+4MZKDnnuYkuP5gTFgwpVIp/eyhN7R6437na+fPGV2wya10tAqupUACxKzgRqngBgZnGsiA2aIQDodci5/gHddGD2QEgfH7R9fp5dW7nOM504bpS3831WJEx65ngpugqdxz5pbIVHCDgwQXyADb9NrhquDSohAIC57d5JpzO+24gfrGNTMKrue2p549oLyfvWdu1Vvo7x+kjzs0kIFY3HjUxQIz37gWmVHBLXrL1u7VQ89sdI7Hj+irb39+VlF8qDyiRYH3s+fiCUY7BhFnGsiAa0ccLpS+cVdwLQYCz+070KJfPLzGOR4+sFrf+9KpKi8rjjXRPReZkeB6L2lUcHv+/lG8uEMDGTCnKJSQ4PqGrXqDIRZP6I57V6qtIy5JqiyL6tbrZ6t3VanlyHLLzLF4P3uPHtxg4g4NZMBMcKNF8Li0UDAmLBj+99F12r7nsHP81Suna/CAKosReSNs9OGayRe8wRzcYOJMAxlwLTKjgusbxoQVv6Vr9uiZZe84xxfOHavTpg21GJF3Inxg81XC1VpGBTcouEMDGaCCawctCsVtb32z7l7whnM8fkRfXfvJyRYj8pb5fk7wfvac+TtmikJwcIcGMmDOwWWRmX9cPYtUvIpKZyyh//xDd99tVUWJbr52ZlFMTPgg7icSFgMJCBYHBxNnGsgAc3DtoAe3eP3hb+u1c1+jc/yPV07XoP6VFiPynruCS4brtSQV3EDiDg1kgBYFO9wtChYDQU69veOQnn5lh3P8yTPH6dQTh1iMyB8RWm58xRzcYOJMAxmggmtHiEVmRSeeSOqXRt/tqCG99dmLTrAYkX/owfVXgjm4gcQdGshALJ5wXlMJ8A8tCsXn0UVbVVvXJEkKhaSvfGZaYPojqeD6yzUHlzFhgcGZBjLg2uiBCq5vGBNWXPYdaNEjz25yjj9+2hgdP7qfxYj8RQXXX645uBGLgcBX3KGBDLAa1w4zIUiREBS8X/35TXW+92GxX69y/f2FkyxH5C+zikiC6z1zq94oLQqBwR0ayEDcVcHlQukXVwWXFoWC9tLKXVq7ud45vu6yE1VZXmIxIv8x19lfCRaZBRJnGsgAFVw7zLY5EtzC1dTaqd8/us45njV5SNHuVvZhaFHwl3urXgoTQcEdGsgAPbh2UPEqDvf+bb2aWjslSeWlEX3pshMtR2QHi8z8ZRYmImzVGxjcoYEMxElwrWCRWeF7e8chvfBarXN81ScmqaZfhcWI7HF/YGOws9eSSaYoBBFnGshAjF4uKxgTVvjue3y983rs8D668IyxFqOxK8LGJb6ightM3KGBDFDBtcO90YPFQJCVlRv26+0dB53jL156YqB7Iang+svIb6ngBghnGsiAa6teKri+oWexcKVSKd3/xAbneMbEQZo8rr/FiOzjiYS/ElRwA4k7NJCBBFv1WsGYsML18uo92rmv0Tn+7EXBmnl7NOYHNnOEFbxhTlEIB/jJQdBwhwYywBQFO5iiUJjiiaQeevpt53ju9OEaM6yPxYjyA2PC/GV+iODJW3BwpoEMxKjgWmG2zaWo4BaMZ1/dqbqDrZK6qpbXfGKi5YjyA1NB/GX2OQe59ztouEMDGYjTg2uFeU+iRaEwtHfGteDZTc7xOaeO0pCaKosR5Q9zAgsVXO/FmX4TSJxpIANmBTdKBdc3ISpeBefxl7brcHOHJKmsJKIrzjveckT5g0Vm/mIns2DiDg1kgAquHRESgoLS1NqpR1/c4hxfeMZY9etdbjGi/BJmkZmvEq4t1klwg4I7NJABFpnZ4a54WQwEaVn4wha1dsQlSVXlJbrsYxMsR5Rf+MDmL/cUBa7bQcGZBjIQT1DBtYFFOYWjuS2mZ17Z4Rxf9rEJqqoosRhR/jHfz2Z1Ed6IU8ENJO7QQAao4NoR6tE3xySF/PXMKzvU3pmQJPWqLNWF84K7Je8HMTcboILrvSRzcAOJOzSQAXpw7eh5U6KKm59i8aSefHm7c/yJuWNUVhKxGFF+ck0F4b3sObOCy1a9wcGZBjIQT5oVXCoBfjEf6UpUvfLVS6t26d33JieURsO6YO4YyxHlJ3Yy85f5IYKteoODBBfIgKuCS4uCb3rkt8wOzUOpVEqPLdrmHJ91ykj1qS6zGFH+YkyYv9xjwrhuBwVnGkhTKpVyXShLIjx69UvP2ZXkBPln1dv12rW/SVLXB5JL5o+zHFH+MpMsWhS8Zy7ko4IbHFHbAfitublZixcv1vbt21VZWak5c+Zo8uTJtsNCAYj3WO0coUXBN/Tg5r+/GnNvT5kyVENrqi1Gk99cc3B5L3vO/B1HqeAGRqAS3GeffVbf/va31dLS4vr6xRdfrB/96EcqK+NxGj6YOUFBkkqiVHD9Qg9ufttS+67Wb2twjj919niL0eQ/1xxcElzPJRL04AZRYD7KbN68Wd/4xjfU2dmpm266SQsXLtR///d/a9SoUXr88cd122232Q4Ree7IBDcwf32so4Kb3x5dtNV5PXF0f00c3c9iNPkvTILrq0TSnKJAghsUgblD/+hHP1I8Htctt9yir33ta5o8ebIuuOACPfTQQ+rfv78efPBBvf3227bDRB7r2aLAmDD/kODmr7qGFr26do9zfCnV24/kblFgowevJZiiEEiBuEPv379fr7zyisrLy3XVVVe5vjdgwABdc801kqS//e1vNsJDgTAnKIRDVAL8FKJFIW/97aVtzvbJw2qqNXvKYLsBFQB3BddiIAHhGhPGdTswApHgrlq1SpI0ceJERaNHth2/v8hsxYoVvsaFwhJjkwdret6UqODmh+bWTr3wWq1z/Mn54474MIIjscjMX3GmKARSIO7Su3fvliRNmjTpqN+fOHGiJGnTpk2+xYTC497PPBB/dfKKmTdRwM0Pz6+oVcd72/L2rirVWbNGWI6oMERIcH3FHNxgCsSZ3rdvnyRp0KBBR/3+wIEDJUnt7e2Kx+O+xYXCEosbo2ZYYOY7c5ICFdz88Pzync7r8+aMVinb8qaFRWb+6fkBggpucATiLt3Z2SlJKikpOer3zbaFjo4OX2JC4TEruExQ8B9JQX5Zv+2gdtc3S+qqrp936ijLERUOKrj+SfZocu65YBXFKxB36chH7DiVSpmVuUCNBkYG6MG1i+1N88uzr3ZXb6cdN1AD+1dajKawmO/lFAmup+IJ9++Xa3dwBOJMl5aWSuqu5PYUi8WO+FmgJzPBZZMH/9GikD+a22J6de1u5/i8OaMtRlN4zD5QKrjeOqJFgQpuYAQiwR06dKik7sVmPdXWdq0Crq6uZgUwPhArce0yf+NUcO16aeUudb73ga9PVZlOYTRYRtjJzD+JnlusU8ENjECc6VmzZknq2s3saN6fnjB9+nTfYkLhiVPBtYrZofnDbE84+5QRPPbNEGPC/EMFN7gCcVWaNGmSqqqqtGnTJjU2Nh7x/ZUrV0qS5syZ43doKCDuMWFcJP1GD25+2LzzXe3c130dPXcOi8syRQXXPz0ruHwYC45AnOlIJKKzzz5bnZ2d+o//+A/Xqsq1a9dqwYIFqqio0CWXXGIxSuQ7enDtogc3Pzz76g7n9ZRxNRpaU20xmsLEVr3+Ma8VFG+DJTAjA2655RYtX75cjzzyiDZt2qQLLrhAO3fu1IIFCxSPx/Wd73xHgwfTR4YPFo9TwbWJFgX72jriWrpmj3N8HtXbrFDB9U/CmKJA/22wBCbBHThwoO677z7dddddevrpp7V27VpJ0pAhQ/TVr35VV155peUIke9iCSq4NtGiYN/Lq3ar/b2dy6orSjRn2hDLERUmenD9Ezc+DdN/GyyBSXAlaezYsfqv//ovff/739f+/ftVVlamMWPGMDkBaXFVcKO8Z/xGi4J95uKys2aN5INelti0xD/m75cKbrAEKsF9X//+/dW/f3/bYaDAuDd64MbuN1eCSwXXd9t3N2rb7nedY9oTsme+l6ngesvc6CFMMStQ+DgDpMm9VS8XSr9R9bLLXFw2cXR/jRjcy2I0hc2sJLKTmbfMDxBMUAgWzjaQJvccXP7q+I0eXHviiaSWrGZxWa7wXvaPa5EZPbiBwl0aSJN7kRl/dfxmPl2kguuvNRvr1dLetaV5WUlEp00bajmiwuZqUUjwXvaSOYaNHSiDhbs0kCb3mDD+6viNFgV7XjaqtzMnD1Z5WSCXb+SMmWhRwfVW3FXB5bodJJxtIE1mBTdKBdd3LDKzoyOW0Ovr9jrHc6cPtxhNcXAvMmOos5dcUxRoUQgU7tJAmmJxFivYRAXXjpXr65zZt5VlUc08YaDliAqfq4JLfuspc3FwmBaFQOEuDaQpxiIzq8yqFwVc/5jtCbOnDmX2bQ5QwfWPu4LLdTtIONtAmhIJenBtooLrv9b2mFa/XeccnzGD9oRcMB+Vs8jMW+7rNhXcIOEuDaQpFk84r6ng+o/RSv5b8dY+58lFr8pSTTuuxnJExcEsJKZ4L3vKnIMbpgc3ULhLA2mK04NrFVv1+u/lVd3tCaefNJRFOjniquCS4HoqzpO3wOJsA2mKJajg2mRWvUhwvXe4uUNrt9Q7x2fMGGExmuJi9oLyXvYWUxSCi7s0kCZXBZcE13eMCfPXsrV7neRgQJ9ynTC2n+WIiof5qDxBgusp1xxcKriBwtkG0mT24PKoy3/uHlyLgQTE0tVme8IwhUJUv3IlwoJJ37h2MqOCGyjcpYE0maudqeD6jykK/mk43KYNOxqc43m0J+RUqEeixfvZO+Z1O0xhIlA420CamKJgF4vM/LN0zR5n1vCQAVUaP7KP3YCKTM9KIi033knQgxtY3KWBNJm9XLQo+C/EmDDfLDHaE86YMcxiJMWp57gq+nC9wxzc4OIuDaSJCq5dISq4vqhraNHWXe86x/PY3CHnelYSzSQMuUUFN7gyukvv3LnTqziAvGdeKEuoBPguwpgwX2ypPey8HlZTrRGDe1mMpjj1rODydvaOa0wY1+1AySjB/fKXv6wXXnjBq1iAvEYF1y7GhPmjtT3uvK7pV2ExkuJ1RIsCFVzPmBs9UMENlozu0m1tbfrqV7+q+++/36t4gLwVZ4qCVUxR8Ed7Z3eCW14atRhJ8TI3epD4wOYldwWX63aQZHS2zzrrLKVSKf3whz/UbbfdpoSxsxNQzGJxd4WFRWb+C7PIzBdtRgW3vCxiMZLidUSLAh/YPEMFN7gyukv/4Ac/0De+8Q1J0j333KOvf/3ramtr8yQwIJ/EezxCpEXBf+a9KckTXc+4KrgkuJ44YkwYCa5nWGQWXBndpUOhkL7yla/o9ttvV0lJiZ577jn9wz/8gxoaGj76XwYKGBVc+8yqV4oKrmfaO7oT3ApaFDzj/sDG+9krZn8zLQrBktXZvuSSS/T73/9evXv31ptvvqkrrrhCW7duzXVsQN4wF5hJVHBtYKMHf7R1dCcEZVRwPRM2+nB5P3vHfPjWszUExS3ru/Ts2bP10EMPacSIEdq1a5euuuoqvfbaa7mMDcgb5naPoRCVABvowfUHi8z8YT4uZ6MH77BBT3Ad09keP368/vSnP2nq1KlqbGzUF77wBf3pT39SY2NjruID8oJZweUiaQcVXH90mC0KZSS4XgmT4PoimWSRWVAd8516wIABuu+++3TyyScrFovp+9//vk455RSdc845uummm3T33Xdr8eLFqq+vz0W8gBVUAexjTJg/2lyLzEhwveJ+P1sMpMiZ1242egiWY7p6pVIpLV26VL/97W+1atUq1/d27dqlXbt26dlnn3W+VlNTo8mTJ+vmm2/WxIkTj+WPBnxlLjIjwbXDHB1Ki4J32ju6n1aUl9KD6xXziUSCDNczrjm4Ya7dQZJVgtvZ2aknn3xSv/vd77Rp0ybn61OmTNHnPvc5tbS0aP369Vq/fr02bdqkWCwmSTpw4IBeeuklXX311SS4KCjxOBVc22hR8Ic5RYEKrnciPJHwhXuKAhXcIMno6tXY2KiHH35Y9957r/bv3+98fdasWfrKV76iuXPnKhRyv4E6Ozu1detWrV+/XuvWrdOGDRtUVlaWm+gBn8QSbNNrW4gE1xfmIjN6cL1DD64/ElRwAyujq9fll1+ud955xzmeN2+ebrzxRs2aNesD/53S0lKdcMIJOuGEE/TpT386+0gBi8wKLgmuHUxR8EdHZ/eHuQrGhHmGCq4/zE16olRwAyWjBLezs1OSdP755+vGG2/UlClTPAkKyDfmFAVGhNnhTnAtBlLEksmUOmJmDy4VXK9QwfVHkp3MAiujq9fFF1+sT33qU5owYYJX8QB5yawCUMG1w92DazGQIma2J0hs1eulCBs9+CLhmqLAtTtIMkpwb775Zq/iAPJaPE6CaxtjwrzX3unesY9FZt6hguuPuPFpmJ3MgoU7NZCG5raY85oE1w56cL3X3t5dwY1GQkwM8RAJrj+o4AYXZxtIw8r13VNDhg+qthhJcJkDWqjgeqPNqOCWlVC99RJPJPxBD25wkeACH+Fwc4fWbuneiW/u9OEWowku5uB6r51ten3jnqJAU7lXzE00mKIQLCS4wEdYtnavk1AN6FOuE8b2sxxRMJkJAR0K3jB7cOm/9VaErXp94WpRYA5uoHC2gY+wdPUe5/XpJw07YjMT+IMeXO+ZFdwytun1VJgKri/MCi47mQULCS7wIRoOt2nDjgbneN6MERajCTZaFLxHi4J/+MDmj3iCHtygIsEFPsTSNXucx+FDBlRp/Mg+dgMKMBbleK/NmINLi4K3zGTLfIyO3EqyVW9gcbaBD7HEaE84Y8Ywi5GAipf32jvMXcxoUfAS72d/JBJmi4LFQOA7ElzgA+w70KKtu951jufNYHqCTYwJ857ZosAuZt4yW26o4HonkaJFIahIcIEP8PLq3c7rUUN6a8TgXhajQYSKl+fMrXrpwfWWuekAGz14x6zgsnFJsHC2gQ+wdA3tCfmERWbec7UokOB6yvV+5gObZ8wPD2zVGywkuMBR7NzXqNq6Juf4jOkkuLbRs+g9cyez8lISXC+FI7QoeC2ZTLlmZrNVb7BwtoGjMBeXTRjZT4MHVFmMBlLPKQoWAyliHfTg+oYKrvd6tn7QgxssJLjAUSwx+m/n0Z6QF0K0KHiujTm4vnGPCeMTmxd6/l6p4AYLZxvoYfPOd1V3sFVS18r902lPyAshKl6ea3PtZEaC6yVzVy3ez96gghtsJLhAD0vXdFdvJ4+tUf/e5RajwfvY6MF7HcYiswpaFDwVZuyd545IcNmqN1BIcAFDIpHUy6u6E1ymJ+QPs/qSouLlCXYy80+ED2yeO6JFgZ3MAoWzDRhe37Bf7zZ3SOqamXjaSUMtR4T3MSbMex3mHFx2MvOU+USCObje6Pl7jVLBDRQSXMDw3Ks7nddzpg5Vr8pSi9HAZBZf6FnMvVQqpY4Yc3D9YlYT+cDmDbOCGwq5+/hR/EhwgfcceLdNazbWOcfnzRltMRr0RA+utzo6E66ZoWVUcD1FBdd75nWC9oTg4YwD73l+xU69fz0cMqBKJ04YYDcguDAmzFtm/63EmDCv0YPrvbhRwWWBWfCQ4ALqusG8sLzWOT731FEWo8HRMBjfW+YEhXA4pNISKrhe4omE98zKeIT2hMAhwQUkrd5YrwOH2yR1VVbOPmWk5YjQEzuZeavdnKBAcus5d4sCb2gvJLo/s7HJQwBxxgG5F5fNmjJUfXuVWYwGR+N6pEsFN+faOlhg5ic+sHnP/OAQZpOHwCHBReAdamzX6xv2OcfnzaE9IR8xJsxb7a5NHkhwvcYiM+/FE92/V0aEBQ8JLgLvhddqnYRpYN8KTT++xnJEOBp6Fr1ltiiwTa/3WGTmPaYoBBtnHIGWSqX0/PLu9oRzTh3FrMQ8Zd6f2Mks99razV3M6MH1GhVc7zFFIdhIcBFoazc3qO5gq6SuveE/NpvFZfnK/NxBD27umRVcWhS8FyHB9VyCCm6gccYRaM8tf8d5ffIJQzSgT4XFaPBhzB5c8tvca+ugRcFPZgU3RYLrCXMnMxaZBQ8JLgLrcHOHVry11zlm9m1+o+LlrY5Oc5EZtwavmRVF3s/ecFVwaVEIHK5iCKznlu90Vtn2712uk08YZDkifJgwY8I8ZVZwy6ngeo5Fk95LmFMUaFEIHM44AikWT+iJl7c7x+fNGe2qECL/MCbMW+1mgksPrud4IuG9ZJJFZkEW6AQ3mUwqFovZDgMWLF65W4ebOyRJZSURfWLuGMsR4aOEenwAYZJCbrV3stGDnxgT5j1zDi6LzIIn0Gf8W9/6lqZPn247DPgslUrpsUVbneOzZo1Q76pSixEhHT2nt5EU5Ja50UN5KWPCvMZWvd6jBzfYApvg3nvvvXr88cdthwELXl+/X7vrmyV1JU2XzB9vOSKko+cqaPLb3DJbFBgT5j22nvae+cGBFrTgCdxVLJlM6s4779Qvf/lL26HAkkeN6u3sE4dpSE2VxWiQrnCoZ4JLUpBLbZ304PrJVcFN8F72gvl7jUQCW88LrEBdxd58803dfvvtWr58ufr166dDhw7ZDgk+27zzXW3Y3uAcX3Y21dtC0bMCQ4tCbnV00IPrJ6aCeI8KbrAF5iNNc3OzLr/8ci1fvlxz587VQw89ZDskWPBXo3o7aUx/HTeqr8VokIkjWhRIcHPKHBNWwZgwz5lPJKjgesNdwSXBDZrAXMVSqZQmTpyor33tazr33HPV0dFhWqvhogAAIABJREFUOyT4rK6hRSve3OMcX3r2BIvRIFO0KHirw9WiEJjahzXmI3N2MvMGW/UGW2AS3Orqaj366KMK9VyKjcB4bPE2Z2HS8IHVOmUyGzsUkp5jwqjg5lZ7J4vM/OSa68yHNU/EE8zBDbKCu4pNnDgx7Z/duHGj85rENtgaWzr14mu1zvEn54/nPVFgjqjgkuDmTEcs4ZpKUUaLgudYZOa9pKuCy/U+aKjZIxCeXrpDHbGuRTR9qst01qzhliNCpo4cE0ZSkCvmiDBJKi9jDq7XzIoi72VvJKjgBlrBfUw3q7JAOlrbY3ri5W3O8QVzx6gkyg280PSswKSYjZ8zZoIbCknlVHA951pkxkYPnkhQwQ00Krgoen99caua27q2ZK4oi+oCtuUtWGaXAlWv3HFt00ty6wtXBZf81hNm60eUObiBwxlHUTvU1K7HjertJfPHq7qSbXkLlWthDj24OdNmzMAtK+Hphh+o4HrP/L32bHFC8SPBRVF75NnN6nivOtWnqkyXzB9nOSIcixAJrifMFgU2efCHa6te3sueiFPBDTTOOIpWXUOLnn31Hef48vOO4+Zd4CLs/uSJdrbp9Z05lpUE1xvm75UKbvCQ4KJoPfD0JmeRwaB+lTr/tNGWI8KxYntTb7Sb2/SW0qLgB/PDWoL3sifMCi6LzIKHBBdFaceew1q6ZpdzfNUnJvKIqgiYtyiqXrljtiiwyYM/wrQoeM41RYHrf+AE9koWjUZ16623Ksz2fUXpj09u1PtFkVFDemveDObeFgN3UmAxkCLTRouC78ytYxMkuJ5wzcGlghs4gb2SRaNRXXvttbbDgAfWbzuoVW/XOcfXXDCJ/qsiQYuCN1wtCmzy4AsWmXnPtZMZGz0EDuVLFJ37n9jgvJ40pr9OmTLYYjTIJcaEeaPDqOBWMAfXF6GeO/Pxfs45szIe5Wlt4HDGUVSWrd2rje8cdI7//sITLEaDXHOPCbMYSJFpc40Jo4Lrh56PzHkikXts1RtsJLgoGq3tMf1u4VvO8cwTBmvyuP4WI0KuMSbMG22uFgUquH7o2TZFH27uubfqJd0JGs44isYfn3xbh5raJUkl0bC+cOlkyxEh1+jB9UaHWcGlRcEXR1RwSXBzLk4FN9BIcFEUNu98V88s2+EcX37u8RpaU20xIniBHlxvtLHIzHdUcL2XpIIbaJxxFLxEIqn/+dMbzliwkYN66VNnj7cbFDzB7FBvmDuZMQfXH0ckuAmaynPNtdEDFdzAIcFFwXvspW3aua/ROf7yZ6axqUORokXBG+ZGD2W0KPiCRWbeSySZgxtkZAEoaPsPtmrB/21yjs87dZROGMvCsmJldChQwc0hKrj+67nJEO/n3Esm2MksyDjjKGi/euRNdcS6+gf7VJfpsxezsKyYhejB9UR7p9GDW0oPrh9YZOY9s6+ZzX6ChwQXBWvJ6j1as2m/c/zFS09UdUWJxYjgNfeYMIuBFBmzRaGCRWa+CfNEwlPmFIUoPbiBQ4KLgnTgUJt+85e1zvGMiYN0xoxhFiOCH8wqTIqexZyIxZOuSlcZLQq+MdsUSHBzjykKwcYZR8FJJJL6yX0r1dwWkySVlUZ0w6enWo4KfmBMWO6Z/bcSPbh+Mp9IMCYs95iDG2wkuCg49z+5QZt2HnKOb/z0NA3qX2kxIviFMWG5Z7YnSPTg+on3s7fcO5mR4AYNCS4Kyop1dXps8Tbn+JzZo3TmzBEWI4KfXFMUaFHICfeIsIhrIR+8FXZVcC0GUqQS9OAGGgkuCkb9wVb9/KHVzvGoIb11/WUnWowIfqPilXvtnd1JQHkJ7Ql+MltuzJmtyA3zQzBTFIKHBBcFIZ5I6o77Vqnlvb7birKo/t/nZqq0hMepQRJho4eca23vruCyTa+/+MDmLXMnsyiLzAKHM46CcN/jG7Sl1ui7vXyahg6sthgRbHAvMrMYSBExF5mxi5m/WGTmrWSSRWZBRoKLvPfCilo9/nJ33+35c0brjBnDLUYEW9iqN/c6OtjFzJYIFVzPpFIp16xsxoQFD2cceW3FW/t094I1zvGYYX30xU9NsRgRbOKRbu61mbuY0aLgqzAVXM/0/H2GqeAGDgku8ta6rQ366f0rnU/h/XqV69ufn6WSKDfhoGIObu6ZUxTKaVHwVYSNHjzTM8FlTFjwkOAiL23f3ajbfr9CsXhXD1VVRYn+5cunMu824MwRVrQo5EabmeDSouArKrjeSfSYuxaJkO4EDWcceWfvgWb98NevOjfespKIvnvdqRo1pLflyGBbiBaFnOvoNHtweTriJ1puvNPzA0OUCm7gkOAirxxsbNe//Wq5Drd0SOp6rHTz52Zp0ph+liNDPjCLMFRwc6O9w+jBZRczX1HB9U78iAouCW7Q8DwKeWNvfbN++Jvl2n+o1fna166aoZMnDbIYFfIJPbi512YkuGW0KPjKPUWBuXe51PP6wBSF4OFqhrywYftB/fj3K9T83kYOknTdp07UvJMZB4ZuPNLNPXMObiUJrq+Y6+ydRKLHFAVaFAKHqxmsW7pmj+56cLXrkdK1F0/WhWeMtRgV8hFzcHPP1aJAgusr87E5FdzcMrc+jtKeEEhczWDVwhe26P4nNzjHJdGwvn71DJ1+0jCLUSFfGQUvKl45wpgwe8JMBfGMWcGlPSGYuJrBilg8od8tfEvPLt/pfK1XZalu+cJsTRrLgjIcnZkQpEgIcsJsUWCjB3+ZFdyej9RxbMxFe7QnBBMJLny3dddh/eyB1ard3+R8bUj/Kn3vhtkaWlNtMTLkO7Y2zT3m4NpDy4134q4KLgluEHE1g2/iiaQWPLtZf3lhsys5OX50P93yhVPUp7rMYnQoBCQEuWe2KFTQouAr84kEFdzcMu8xtCgEE1cz+GLn3kbd+eAa7dhz2PlaKCRddMY4/f2Fk1RawqNRfDTGhOVee6e5yIxEwE/m7lp8YMstc9EyM3CDiQQXnmps6dSjL27R4y9vcz0yGtSvUl+7eoYmj+tvMToUGsaE5VYikXQlArQo+MtVweX9nFOJJC0KQcfVDJ5obovpsUVb9eSS7a4eP0k6/7TR+tzFk7mZImOuKQpUvI5Zm1G9lZii4Lcwi8w8k3BVcHkyEURczZBTre0x/e2lbXp88Ta19khsB/Qp11evmK7pEwdaig6FjgpubrX3+DvKh05/MSbMO1RwwdUMxyyVSumtrQ1a9PouLX9z7xEV216Vpbr0rPG64IwxVIhwTNxjwiwGUiTMBLckGiYR8Jn5+zYrjjh2rikKVHADiWwDWdtV16RFr+/Sy6t268DhtiO+X1VRok+eOU4XnzlOFVSGkANmBZeexWPnWmDGh0/fMRXEO+bOcHxwCyauaEjb3vpmvbX1oNZtbdCGbQ1HTWqlrv3sLzpznC6ZP06V5SU+R4liRkKQW65tekuZZOI3s7BIy01uucaEUcENJBJcHOFgY7v21Ldob32z9tQ3a099q7bsPKR3mzs+8N8Jh0OaMXGQzpo1QrMmD2bsFzzhHhNmMZAiwSYPdrFxiXfY6AFc0YrIgXfbtH5rg7qukymlUl19iimlFE+kFIslFIsnFYt3jQZq64irsSWmppYONbZ0qrmlU42tnerosbL6w4wb3lfzZw3XvBnD2agBnnNNUSAhOGYdxja9tBH5j5Yb77haFJiDG0hc0YpEXUOLbvqPFz2/6Y8a0ltTxvfX5HEDNHncAPXtRVIL/9CikFttZosCCa7vzB22+MCWW+4KLi0KQcQVrUjsPdCa0wtkn6oyDR1YpWEDqzRsYLVGDO6lSWP7qVdlac7+DCBTZoKbIsE9Zu1GBZdFZv6jgusd8/cZpYIbSFzRisS042p01ccn6o1NByR1PcoNKdT1vyEpGgkrGg2rJBpWNBJRSTSk8tKIqqtK1buyVL2rS9WrqlS9q0o1sF8Fi8OQl9w7P1kMpEi0tZs9uPTN+40eXO+4NnqgBzeQSHCLRDgc0mfOO16fOe9426EAnjFvVCkSgmPmquCS4PqOjUu8Y1Zww0xRCCTOOoCCQQ9ubpkbPVTQouA7d4sCjyRyKU4FN/BIcAEUDPeYMBLcY9XW0Z0ElFHB9Z27gmsxkCKUZKvewCPBBVAwQjzSzSkWmdnFIjPvuCq4tCgEEmcdQMEwK7hMUTh2HR3MwbWJRWbecVdwLQYCazjtAAqGOc6SHtxj19bJTmY2UcH1TiJhjgkj1QkizjqAghEhIcipltaY87q8lB5cv1HB9Y65aC9MD24gkeACKBgsMsud/Qdbtbu+2TkeNrDKYjTBxJgw78Sp4AYeZx1AwWBMWO4sWbPHeT1yUC+NGNzLYjTB5Nqql/dzTjFFASS4AApGKMRYpVx5edVu5/XpM4ZZjCS4XD24CRLcXHJPUSDBDSISXAAFg0e6ubGrrkk79zU6x/NIcK2gp9w7rp3MwqQ6QcRZB1AwQowJy4mXV3e3J4wb3ldDa6otRhNc9JR7J5Hofk0FN5hIcAEUDMYq5cbSNd3tCWdQvbXGTLzYqje3zN8nPbjBRIILoGCYNyoquNnZuuuw9h5ocY7nTifBtSXCoknPmB+AmaIQTJx1AAWDR7rHbunq7urtpDH9VdO3wmI0wcYiM+8kElRwg44EF0DBMPJbKl5ZSKVSWmqMB5s3Y7jFaMDYO++4xoRRwQ0kzjqAgsEUhWPz9o5DOnC4TVLX7/K0k4ZajijYzCcSVHBzK04FN/BIcAEUjLCrB9diIAVqidGeMHVCjfpUl1mMBmZlkZ7y3HJXcElwg4gEF0DBoAc3e4lkSq+80d2ecMZ02hNs4/3sHXOr3ghzcAOJsw6gYDAmLHtvbj6gxpZOSV2ryk+dOsRyRGCRmXcYEwYSXAAFg7FK2VtizL6dMWmQqipKLEYDifezl8wPDLQoBBMJLoCCwSPd7MTiSS1fu9c5ZnpCfnA/kWCjh1xiq15w1gEUDNeYMBLctK3cUKfWjrgkqbw0opmTB1mOCJK7skh+m1vmHNwoFdxAIsEFUDDMQgyrztP33Ks7ndenTBmq8tKoxWjwPteYMDLcnHJNUaCCG0icdQAFwzUmzGIchaT+UKvWbNrvHJ83Z5TFaGCKMNfZM645uFRwAylwH+Pr6ur0/PPPa+/evYpGo5o+fbpOP/10lZSw4ALId/TgZu75FbXOzOBhNdWaMn6A3YDgMAuLvJ9zK+Gq4JLgBlFgEtzOzk79y7/8ixYuXHjE9wYMGKA77rhDp59+uoXIAKQrwpiwjCSTKb2wors94ZxTqd7mE6YoeMc9RYGH1UEUmLN+2223aeHChRoyZIh++MMf6qmnntLDDz+syy+/XA0NDfryl7+sjRs32g4TwIcIkxBkZPXGejUcbpfUtdDm7FNGWI4IJuY6e4c5uAhEBbe+vl4LFixQNBrV/fffr5EjRzrfmz59ukKhkBYsWKB77rlHt912m8VIAXyYEC0KGXl22TvO61lThrI1b54xFz+R4OaW+fuMUsENpECc9cWLFysWi2nu3Lmu5PZ9V199tSRpyZIlfocGIANmDy4+3MHGdq18u845Po/2hLwTZpGZZ9xTFCwGAmsCUcGdN2+efvGLX6hv375H/X6S8SxAQQj1uFElkikeP36AF1bUOjf5Qf0qddLxNZYjQk/hHu/dZDJ1xNeQncT/396dh0dVnn0c/81MNhK2BMK+CEIgYECQRZFdECsiICDue0GwUi240PdVay1arUvV1wVcUKFVUVS0CIhWdgEhrMoqCAEDARK2hIRk5rx/IMNMEmSb5Jkz5/u5Lq9rzpyp3k0C85s79/M87KLgeI4IuDVr1lTNmjVPen/69OmSpFatWpVXSQDOQmmBgIBbkmVZ+mZJ8OIyF93vsFP8Z9dnWXKL71MoFLEPruM5/ru+evVqTZ48WZJ0++23G64GwG8pPqLAQrPSrd60V1k5eZKOfSjo2aHkaBbMK/6BjTnc0AkaUaCD60i26+A2a9bstF97ql0Rdu7cqREjRqiwsFC33nqr2rVrd67lAShDJTpeBIJSfRVwctlFzWsqqXKcwWpwMvw8l43A8QSp5AcJOINjO7hr167Vddddp7179+rKK6/UQw89ZLokAKdQ/NfsBIKSDhwu0LIfMv3XvTi5LGzRwS0bxb+O7KLgTLbr4IZir9rZs2drzJgxys/P18CBA/XEE0/I4/GEoDoAZanEDC4jCiV8+/0OFf26yX1S5Ti1aV7DcEU4mdJmynHuiop1cJnTdybbBdxzYVmWJk6cqKefflqSNGrUKI0cOZLFF4BNEAh+m89n6avvfvZf9+zQgDf3MFb8e+NlR5+QKP73AieZOZOjAu7zzz+vCRMmKDo6Wk8//bT69u1ruiQAZ4BFZr9tydpd2p19YnEZe9+GN3ex1f18YAuNIm+xgMuHPEdyTMCdPHmyJkyYoISEBE2YMIEFZYAN0cH9bZ99+5P/cadWdVQ9sYLBanAqLDIrG8U74QRcZ3JEwP3pp5/8R/C+8MILatu27UkPdyj+iRpA+Cj+RmXxG12/H7dka3NGjv+6f/fzDVaD0+V2ScdzLQE3NHzFO7iMKDiSIwLuu+++q6KiIknSsGHDTvq6hIQEpaenl1dZAM4RIwonTJtzonub1qS6GterYrAanC632y3fr4uiCLihEbiLAluEOZcjAu6GDRuUmJh4ytclJCSUQzUAzoXb7fIHAQLBMTuzDmnZj7v81/27NzFYDc6Ex+1SkffYY7YJC43AXRSiCLiO5YiA++GHH5ouAUCIuF0u+XQsCFh0cCVJ0+Zs8T9uUKuy2jRPNlgNzkRgh5EPbKERfIoZ4wlOxXcegK0EzuHS8ZJyDuVr7vId/uv+3RsbrAZnyh3082ywkAgSuItC8Z1X4BwEXAC2EtTxooOrGQt+9v9KNqlynDq3qWu4IpyJwABGBzc0vEEdXAKuUxFwAdhK4NuV0wNBfkGRZi48cbBD3y6NOZbUZoI7uLRwQ8Eb0MH1sDOSY/GdB2ArwTOLBgsJA98szVBufqEkqUJslC6/hIMd7IaRm9AL/KBAB9e5CLgAbCXwaG0njyh4fZb+M+/E4rLeFzdQfFy0wYpwNlhkFnqBHxSi6OA6Ft95ALYSGAgcnG81P32nsnKOHcvrcbvUtwuLy+yIDm7oBY0o0MF1LAIuAFsJXJTj1EBQWOTTBzPX+6+7tK2n6lU5lteO6OCGXuCIAgc9OBcBF4CteAgEmvXdz9qz/4gkKcrj0tDLUwxXhLMVuAjKqR/YQq3Iyz64IOACsBmnbxN2pKBIU7/e5L/ufXFD1UiKN1gRzgUd3NDzBS4yo4PrWARcALbi9H1DP5/7kw7mHpUkxcV4NLgX3Vs7czODG3LM4EIi4AKwGVfA31pOC7gHDhfoi7kndk64qmtjVa0Ua7AinCtP0KJJZ/08lxV2UYBEwAVgM24HbxP2yTebdaSgSJJUKT5G/bufb7ginKugRZNeZ/08lxWvl31wQcAFYDNO3SZsb84RzVx04tSygT2bsO9tBAgMYD6nn1wSIoEdXHZRcC4CLgBbcTl0m7APZm1Q0a+dqWpV4nRl5/MMV4RQcPJvJMpKUUAHl6OrnYvvPABbceI2YRm7Dmru8gz/9dDLmyk6ymOwIoRKYAeXEYXQ8NHBhQi4AGzG7cBFOZOnr9fx9+y6yRXVvX19swUhZOjghh774EIi4AKwGZfDtglbvCZTy9bt9l/fcGVz9vaMIEHbhNHBDQkv++BCBFwANuN20DZhefmFevOTtf7rtCbVdXFabYMVIdQCO4x0cEMjaB9ctglzLL7zAGwl8Fe6kT6i8O8Z65VzKF+SFB3l1vDBaYYrQqi5HbposiwFfh09jKo7FgEXgK045ajeTdv3B20LNuiypqpdvaLBilAW3B5njdyUh8B9cKMYUXAsAi4AW/E44GhTr9enV6es8u/zW79GJQ3s2cRsUSgTdHBDz+djkRkIuABsJmjVeYTui//FvK3avuug/3r4kFbs5xmhgj6weSP0B7qcBe6DyyIz5+JvTAC2EukjClnZeZry1Qb/de+ODZTaKMlgRShLkf7zbELwDC4B16kIuABsJdK3CZswdY0KCr2SpCoVY3XTVS0MV4Sy5HHQriDlJWhEgV0UHIvvPABbieSDHmYv3q4VG7L813f0v0AVK0QbrAhlze3Ak/nKWtCIAh1cxyLgArAVd4R2cH/+5YDe+myN/7pNsxrq3KaOwYpQHpywaLK8BY4y08F1Lr7zAGzFFYGBIC+/UM++t1yFRcfemaskxOqeoa0NV4XyEBjAIukDm0leOrgQAReAzQTNLEbIiMJrH61R5t5cSZLLJd13U1slVo4zXBXKgzsCP7CZ5mUGFyLgArCZSBtRmLnoZy1atdN/PbhXilo1rW6wIpQnDzO4IRd0VC8dXMci4AKwlUjaRWHLjgOaOO0H/3Vak2Rd2zvFYEUobywyCz2fj31wQcAFYDORsm/osbnbZf4V31Urxuq+G9sE/f9D5GNEIfSKvJxkBgIuAJsJHKmza771+iy9+K8V2p2dJ0lyu6T7b7pIVSvFGq4M5Y0ObugFz+DygdGpCLgAbMXuM7iWZenVKau0bN1u/3NDLm+mC5pUM1gVTKGDG3qBuyhEMYPrWARcALZi90U5737xo+Ysy/Bfd7igtgZf1tRgRTDJ7j/P4Sjwg4KbXRQci+88AFux8wzu1G826Yt5W/zXLRtX159uYu7Wyejghl4RHVyIgAvAZgImFGzV8Zq9eLv+PWO9/7pR3Sp6+I52io7yGKwKptHBDT1fUAeXgOtUBFwAtmLHGdzvVmdqwtRV/us61Svqkd93VHxctMGqEA5YZBZ6gR1cDnpwrijTBQDAmQgMBHaYUFiwYqde/mCljmeXpMpxenR4R1WpyI4JKHZUrx1+oG0g8IMCBz04FwEXgK3YaQZ36jebgsYSKlaI1mPDL1ZyYrzBqhBOgmZwveH982wXQSeZ0cF1LAIuAFuxw4iC12dpwtTV+nrJdv9zleJj9L+/76h6NSsZrAzhxmOjD2x24Q08yYwOrmMRcAHYSrivOj9SUKTn3luuFRuy/M/Vrp6gR37fUTWrJRisDOEo8AMbHdzQCPx7IYoOrmMRcAHYissVvh2vfQeO6Mm3vtfPvxzwP9f8vCQ9fEd7VYqPMVgZwlVghzGw84izFzSiQAfXsQi4AGwlsCETTnlg7vIdeuuztco9Uuh/rlPrOhp1/YVsBYaTcofxBza7ChpRYJswxyLgArCVwEBghUEg2H+oQOM/XqOlP2QGPT+g+/m6qW9qUMcZKC6og8uIQkh42UUBIuACsJlw2jf0u9WZGv/xah3KO+p/Lj42SncOTFP3dvUMVga7sNOuIHYRtE0YHVzHIuACsJVwCAS79uZq8pfr9d3qX4Keb9U0Wfdc21rVEysYqQv2wyKz0As66IEOrmMRcAHYSlAgKOcZ3KzsPE35aqPmpu8I6hLFxXh081UtdEWn88q3INiex3NiqDwcRm4iAbsoQCLgArCZwF85WuU0orA354g++nqjvv0+o8TWZKmNqune61qzBRjOih32dbaT4n8+3XRwHYuAC8BWymubMK/Xp/T1ezR3+Q59/0Omior9+rh29QRd2ztFXdrWZSEZzlq47+tsN75iW6u4mcF1LAIuAFsJfMMqi1/pbs7Yr7nLdmj+ip1Bi8eOq5EYryG9U9StXT0WsOCcecJo0WQkKP5BNMrDiIJTEXAB2Eqod1HYvS9Xa3/apx9+yta6LfuUlZNX6uuqV6mgwb1T1LN9vaC5SeBcBHdww2hjZ5sq3gXnQ6hzEXAB2MrZzizmFxTplz25v/5zWBm7D2v91n3KPph/0v9NdJRb7VvWUreL6qlNs2SCLUIu+AObwUIihLfYylP+zDoXAReArQQuil61aY++W52pwiKfCou8Kiz06VDeUR3OK9TB3KM6lHtUB3OPKvtAvnIOnTzIFteiUTV1a1dPnVrXVnxcdBn8vwCO8dDBDSk6uDiOgAvAVoq/YT373rJz/nfWq1FJLc5PUsvG1dTi/GpKqhx3zv9O4HQwgxtaxTu4zOA6FwEXgK0kVj77QxRioz2qWS1BtZMrqm5yvBrXq6oWjZNUpWJsCCsETl/gbyQIuOcu8GtI89bZCLgAbKVV02rq17Wx0tdlye12KSrKrZgoj6Kj3IqOciu+QrQqxUerUkKMKv/6T5VKsapdLUHVqsaxpRfCiicMTuaLJMGnmNG9dTICLgBbcblcuu3qlrrt6pamSwHOGfvghlbg15D5W2fj4w0AAIZ4AmYUGFE4d4FfQzq4zsZ3HwAAQ+jghlbgQQ9uxpEcjYALAIAhxY+SpYt7bgI/JLCDgrPx3QcAwJASAZeFZufE62UGF8cQcAEAMKR4CGNM4dwEHpbh8RBwnYyACwCAIcUDLiMK5+ZoYUDAdRNxnIzvPgAAhhQfUaCDe27Wbdnnf1y1Mge4OBkBFwAAQ1hkFloLV/7if3xxWm2DlcA0Ai4AAIaUnMH1neSVOJWN23KUlZMn6dgxvZ0uJOA6GQEXAABD3MXmROngnr35K3b6H7c8v7oSK8UZrAamOTLger1e5eXlyWI7FgCAQSwyCw2fz9KigPGESy+sa7AahIMo0wWUpy1btuj111/X7NmzlZeXp+joaPXo0UOjRo1S06ZNTZcHAHAgt0s6nmsJuGfnhy37tP9wgSQpyuPSJa1qGa4Ipjmmg7tmzRoNHjxY06ZNU61atdS/f381b95cX331lQYMGKBFixaZLhEA4ECBC80IuGdnQcB4woUpNVQxPsZgNQgHjujgWpalxx9/XLm5ubrnnnt07733yvXrGdUffPCBHnvsMT388MOaPXu2YmPZVgQAUH48breKvF5JbBN2Noq8Pi1enem/vrQN4wlwSAd3xYoVWrNmjWrUqKERI0b4w60kDR06VPXr19fu3bu1fPlyg1UCAJyIDu65WbWv5ZfdAAAfGUlEQVRxrw4fKZQkxUZ71KFlTcMVIRw4ooPboEEDPfvss4qKilJ0dHTQPZfLpcTERGVkZKigoMBQhQAApwoMuF52CTtj89NPjCe0Ta2puFhHRBucgiN+CqpXr65+/fqVem/Lli1as2aNoqKilJqaWs6VAQCczu2ig3u2Cgq9WvbjLv91Z8YT8CtHBNzicnNzlZWVpe+//14vvviiLMvSH//4R9WqxapLAED5Cu7g0sI9E8t/3K0jBUWSpPjYKF2Ummy4IoQL2wXcZs2anfZrN2zYUOrzEydO1Msvv+y/7t+/v+64445zrg0AgDPlCZrBNViIDS1YcWLv2w5ptRUd5TFYDcKJIxaZFde4cWONHTtWI0eOVJ06dTRt2jQNHTpU2dnZpksDADgMHdyzk5dfqPT1u/3XnTncAQFs18E9WVf2TFx55ZX+x7///e91xx13aMWKFXriiSf0wgsvnPO/HwCA0+UJCrjM4J6upWt3qbDo2AeCSvExatW0muGKEE4c2cENFB8fr9GjR0uSvvnmG+Xn5xuuCADgJGwTdnbmBeye0Kl1bXk8jo80COCInwbLspSdnX3SEYQLLrhAklRQUMCYAgCgXHncJ96K6eCenj3ZeVq9aY//ukvbegarQThyRMB96aWXdMkll+j5558v9f4vvxwbUne5XKpcuXJ5lgYAcLiAXcLo4J6mr5dmyPr1S1U3uaJSGyWZLQhhxxEBt3PnzpKkL774otQO7TvvvCNJ6t27typWrFiutQEAnC3wV+t0cE/N67P036Xb/deXdWxgsBqEK0cE3IsuukidOnVSfn6+hg0bptWrV8uyLGVmZuqJJ57QlClTFBsbqxEjRpguFQDgMIGLzCyLgHsqK9ZnKfvgsfUyUR6XurdjPAEl2W4XhbP1z3/+UyNHjtSyZcs0ZMiQoHuJiYl66aWX1KJFC0PVAQCcKvAkM6+XgHsqXy8+0b3tcEFtVakYa7AahCvHBNwqVapo0qRJWrZsmWbNmqV9+/YpLi5OXbt21WWXXabYWP6AAADKn8cTsIsCHdzflH0wX8sD9r7t1bGhwWoQzhwTcCXJ7XarQ4cO6tChg+lSAACQFNzB9XHQw2/6Zsl2/0K8Gonx7H2Lk3LEDC4AAOEqsIPLiMLJWZal/y7N8F/3uriBXIFbUAABCLgAABgU1MFlROGkVm3cq6ycPEnHDsfo2b6+4YoQzgi4AAAYFHiSGR3ck5u95MTisotSayqxcpzBahDuCLgAABgUuE0YHdzSHThcoGU/ZPqve1/M4jL8NgIuAAAGuTmq95S+/X6Hin7tblerEqc2zZINV4RwR8AFAMAgd+A2YQTcUn0TMJ7Qs0ODoLEOoDQEXAAADAo66IGAW8LqTXv1y97DkiSXS+rVgaN5cWoEXAAADAqawSXglvD5nJ/8j9s0q6nqiRUMVgO7IOACAGBQ0C4KHPQQZHvmQa3YkOW/vrp7Y4PVwE4IuAAAGOQJeCcm3wb7bM4W/+NGdasorUl1g9XATgi4AAAY5HZzVG9p9h04ogUrdvivB3Q/32A1sBsCLgAABnncLDIrzfT5W/1fj+SqFXRJ6zqGK4KdEHABADDIzSKzEvLyCzX7u23+66u6NQ76IACcCgEXAACDPBz0UMLsxduVV1AkSUqoEM3WYDhjBFwAAAxim7BgXq9P0+efWFzW55KGiouNMlgR7IiACwCAQYwoBFuw8hftO5AvSYryuHVl50aGK4IdEXABADDIzSKzIJ99e+Jgh65t6yqxcpzBamBXBFwAAAyig3vCyg17tH3XQf91f7YGw1ki4AIAYFBwB9dgIWFg6jeb/I/bpdZUvZqVDFYDOyPgAgBgkIeDHiRJK9bv0Y9b9vmv+/doYrAa2B0BFwAAg5jBlSzL0r++XOe/bt00WS0aJxmsCHZHwAUAwCC3ixnchSsztfWXA/7rG/umGqwGkYCACwCAQR6PswOu1+vT+zPX+68vaVVH59erYrAiRAICLgAABgWeZOaznBdwv16aoV37ciUdG9e48XfNDFeESEDABQDAoKAZXK+zAm5BoVcffbXRf31Z+/qqnVzRYEWIFARcAAAMCtpFwWEd3Onztyrn0LFTy2Ki3Lq2D91bhAYBFwAAgwIXmTmpg3s476g++3az//rKzo2UxKllCBECLgAABgUtMnNQB/fT/25W7pFCSVJ8bJQG9mTfW4QOARcAAIOCOrgOOehh7/4j+nLBVv/1gJ5NVDE+xmBFiDQEXAAADArs4DplROHNT9fqaNGxMJ9YKU5XdW1suCJEGgIuAAAGuVzOGlFYvGaXvv9hl//6pr6pio32GKwIkYiACwCAQR4HbROWl1+otz5d479Oa1Jd3dvVM1gRIhUBFwAAgzyeE2/FVoR3cP89Y72yDx7bFiw6yq3hg9MMV4RIRcAFAMCgwEVmkXxU76bt+zVz0c/+60GXNVXt6hzqgLJBwAUAwKCgk8wiNOB6vT699tEqHW9Q169RiW3BUKYIuAAAGBR0klmEBtwv5m3VtsyD/uvhQ1opykMEQdnhpwsAAIPcER5ws7LzNOWrDf7r3h0bKLVRksGK4AQEXAAADIrkEQWfz9IrH65SQaFXklSlYqxuuqqF4argBARcAAAMCtomLMJOMpsye6PW/rTXf33ngAtUsUK0wYrgFARcAAAMitQRhVUb9+jjrzf6rztfWFeXXljHYEVwEgIuAAAGBa61ipSAm30wX//8V7p/14Q61Svq7iGtzBYFRyHgAgBgUNAuChFw0IPXZ+mFSek6mHtUkhQT5daYWy9Shdgow5XBSQi4AAAYFGmLzD6ctUE/bt3nv75zYJoa1q5ssCI4EQEXAACDPO4Tb8V2H1FYsX6Ppn6zyX/dtW099erYwGBFcCoCLgAABkVKB3fX3ly9+O90/3Xd5IoaPijNYEVwMgIuAAAGBQZcSbJsOIebczBfj49frEN5x+ZuY6M9GnPrRYpj7haGEHABADCoeMC1Wxf38JFC/XXCEmXl5PmfGzGktRrUYu4W5hBwAQAwyGPjgFtQ6NVTby3V9l0H/c/d3r+lurSta7AqgIALAIBRxTu4dllo5vX69Oy7y7X+52z/c4Mua6qrujQ2WBVwDAEXAACD7NjBtSxLL3+wSunrd/ufu/zihrrhd80NVgWcwPQ3AAAG2a2D6/X69PrHqzV/xQ7/cxe3qqPfX8OOCQgfBFwAAAwq2cH1Gark1PLyC/Xse8u1auMe/3OtmibrvhvalAjqgEkEXAAADHK7g6cFw7WDu+/AEf3tjeAFZamNqumh29opOoqJR4QXAi4AAAYV7+CGY8D9+ZcDGvfmUmUfzPc/16l1XY26vrWiozwGKwNKR8AFAMAwt0s6nmvDLeCu2LBHz723TEcKivzPDezRRDde2VwuF2MJCE8EXAAADHO7XfJ5jwXbcAm4hUVevT9jgz6f95OOH67mdrs07Jo09b64odnigFMg4AIAYJjH7VaR1yspPLYJ25yxXy+/v1I7sg75n4uL8Wj0Le3UtnkNg5UBp4eACwCAYYE7EJjs4BZ5ffpo9kZ98t/NQXXUTa6oP93cVufVqWKsNuBMEHABADAsMOB6De0Stm5rtt74ZI22ZZ7YJcHlkq7q0lg3/K65YqJZTAb7IOACAGCY22Wug7txW44+mLlBqzbtCXq+ZlK8/nBdG7VonFSu9QChQMAFAMCw4A5u+bRwf8o4oPdnrteKDVkl7vW5pKFuuaqF4mKJCbAnfnIBADDMEzSDW3b/naOFXi1du1tzlmWUGmybn5ekG69MpWsL2yPgAgBgWFl2cC3L0o9bsjVnWYYWr85UXsB+tsc1rZ+o665opgubJYf0vw2YQsAFAMCwoA6ude4zuHty8vTDT9n64ae9Wr1pr/buP1Lq6xrXrarrrmimi1LZ+guRhYALAIBhQR1c7+kHXJ/P0p6cPO3ck6vMPbnanHFAP245eaCVpAqxUbo4rba6t6uvC5pUO6e6gXBFwAUAwDCP2+1//NOO/YqPi1JhkU+FRT7lH/XqUO5RHco7qkO5BTqUW6iDuUe1a2+udmfnqeg09hVzu6TWKTXU7aJ66pBWS7Fs+YUIR8AFAMCwgF3C9O8Z60Py76xTvaJanJ+klo2rKS2luhIrxYXk3wvYgaMDbmFhod566y0lJCTo5ptvNl0OAMChqlSMVcbuQ6d+YSlcLql6lQqqk1xRdWtWVGqjJKU2TiLQwtEcHXBfffVVvfrqq2rUqBEBFwBgzDWXNdHenCPKPnhEUR63oqM8io5yKyrKrZhojyonxKhiQowqJ0SrckKMKsXHqHpiBdVJTlDt6gmKjmLkAAjk2ICbnp6u1157zXQZAACodUqyXvlzT9NlABHDfeqXRJ7Dhw/rgQcekMfDJ14AAIBI48iA++STT2rHjh267777TJcCAACAEHNcwP3qq680depUDRkyRN27dzddDgAAAELMUQE3KytLjzzyiOrVq6exY8eaLgcAAABlwDGLzCzL0tixY3XgwAG99tprSkhIMF0SAAAAyoDtAm6zZs1O+7UbNmzwP/7Xv/6lBQsWaPjw4Wrbtm1ZlAYAAIAw4IgRhc2bN+vpp59Wamqq/vCHP5guBwAAAGXIdh3cwK7s6Th69KjGjBkjy7L0j3/8QzExMWVUGQAAAMKB7QLumVqxYoXWrVun6Oho3XnnnUH3ioqKJEnbtm1T165dJUnTp09XpUqVyr1OAAAAhEbEB1yXy6Xo6GhJUnZ2dtA9y7IkST6fz3/v+HMAAACwp4gPuB06dNDatWtLvbdp0yZdddVVatSokWbOnFnOlQEAAKAsOGKRGQAAAJyDgAsAAICI4uiAGxUVpdq1a6tGjRqmSwEAAECIRPwM7m9p1KiR5syZY7oMAAAAhJCjO7gAAACIPARcAAAARBQCLgAAACIKARcAAAARhYALAACAiELABQAAQEQh4AIAACCiEHABAAAQUQi4AAAAiCgEXAAAAEQURx/VW9YKCgr8j3ft2qWqVasarAYAAMDedu/e7X8cmLOKI+CWoTVr1vgfjxo1ymAlAAAAkeXHH3/UwIEDS73HiAIAAAAiCh3cMtSjRw/t27dPktSiRQtVrFjRcEUAAAD2dfDgQa1fv16S1KVLl5O+zmVZllVeRQEAAABljREFAAAARBQCLgAAACIKARcAAAARhYALAACAiELABQAAQEQh4AIAACCiEHABAAAQUQi4AAAAiCgEXAAAAEQUAi4AAAAiCgEXAAAAEYWACwAAgIhCwAUAAEBEIeACAAAgohBwAQAAEFEIuAAAAIgoBNwIU1BQoOzsbB09etR0KbaQlZWljIwM5ebmmi7FVnJzc7V9+3b98ssv8nq9psuxHa/Xq61bt/JzV0xeXp62b9+uvXv3yrIs0+XYztGjR7V161b+/j9NlmVp165d2r59uw4dOmS6HFvZs2dP2L93EnAjiM/n01133aVLLrlE8+bNM11OWPvss8909dVXq0uXLurVq5fat2+v+++/Xzt37jRdWlhbvny5hg8fro4dO6p3797q0aOHunXrpr///e+8QZyBKVOm6IorrtD3339vupSwkJmZqXvuuUcdOnRQ7969demll2rgwIFasmSJ6dJs5ZVXXtEVV1yhLVu2mC4lrOXl5em5555Tz5491a1bN/Xu3VsdOnTQXXfdpUWLFpkuL6xNnz5dAwYMUOfOndWrVy+1a9dOo0aNUkZGhunSSogyXQBCZ+LEiVq6dKnpMsLe+PHj9fzzzys6Olq/+93vVKdOHS1ZskRffvml5s+fr6lTp6phw4amyww7c+fO1YgRI+T1epWWlqb27dvr0KFD+vrrrzVx4kQtWrRIkydPVuXKlU2XGtbmz5+vJ5980nQZYSMnJ0dDhw7V7t271bx5c3Xq1EmbNm3S/Pnzdcstt+jtt9/WpZdearrMsDdt2jSNHz/edBlhr6CgQLfeeqtWr16tSpUq6ZprrlFiYqJWrlyp+fPna8GCBXr22Wd11VVXmS417Lz99tt6+umnFR0drT59+qhevXr6/vvvNWvWLC1YsEAfffSRzj//fNNlnmAhIqxbt85q2bKllZKSYqWkpFizZ882XVJY2rlzp9WyZUurZcuW1urVq/3P+3w+6/HHH7dSUlKsu+66y2CF4cnr9VqXX365lZKSYk2cODHo3oEDB6yBAwdaKSkp1v/93/8ZqtAePvzww6A/p99++63pkox7+OGHrZSUFOvRRx+1vF6v//lp06ZZKSkpVrdu3awjR44YrDC8+Xw+6/XXX/f/TKWkpFjr1q0zXVbY+vDDD62UlBSrb9++VnZ2dqn3OnbsaOXn5xuqMDzt2rXLSktLs1JTU6309HT/8z6fz3rqqaeslJQU6+abbzZYYUmMKESAgoICjR49WrGxsWrWrJnpcsLaxx9/rMLCQvXt21dpaWn+510ul0aOHClJmjdvHjNsxSxevFg///yzGjRooFtvvTXoXuXKlTV69GhJ0ieffGKivLC3ceNGjRw5Uo888og8Ho9q1KhhuqSwsH//fn3++eeKi4vTmDFj5HafeEu6+uqr1aNHD2VmZmr27NkGqwxfK1eu1C233KLnn39eVatWVZUqVUyXFPbef/99SdKoUaOUmJgYdG/IkCFq3ry5cnJyNGfOHBPlha1PP/1UBQUF6tOnj9q0aeN/PvC9c8mSJTp8+LCpEksg4EaA5557Tps3b9Zjjz2mWrVqmS4nrA0dOlSvv/667rjjjhL34uLi/I9ZOBXM4/GoZ8+euvrqq+VyuUrcP++88yQd+3UzSvrb3/6mb775RmlpaZoyZYpSUlJMlxQWFi1apKKiIqWmpqpSpUol7nfs2FHSsfEYlPTggw9q6dKl6tSpk6ZOnark5GTTJYW9Fi1aqH379mrXrl2Jey6XS40aNZLE32XFXXPNNRo/fryGDRtW4l64vncyg2tzixYt0rvvvqsrrrhC/fr103/+8x/TJYW1mjVrqmbNmqXemzJliiQpLS1NFSpUKM+ywl7Hjh39YaM0y5YtkyTVqVOnvEqylZSUFA0aNEj9+vUL6lI63bZt2yRJzZs3L/X+8d9I/fjjj+VWk51ceOGFeuihh9SzZ89SP3iipHHjxp30ntfr1fLlyyVJtWvXLq+SbKFGjRon/c3T8ffOZs2ahdUaDAKuje3fv18PPfSQkpOT9Ze//IW/4M7Ctm3btGPHDv3nP//RJ598ovj4eP3tb38zXZatFBQUaMKECZKkAQMGGK4mPP3v//6v6RLC0vFdS062qPP481lZWeVWk50888wzpkuIKFOnTlVWVpaSk5N1ySWXmC4nrGVkZCgjI0MzZszQRx99pLi4OI0bNy6scggBNwycydzshg0bJB3bv++xxx5TVlaW3njjjRKzRE5wNl+34saOHev/xO5yuXT//fdH/BxzKL5ux/l8Pj388MPavHmzzjvvPF1//fXnWl5YC+XXDvLP6wX+ijNQbGysJDETjzKXnp6uv/71r5KOjX7ExMQYrii8Pfroo0Fbqo0aNUotW7Y0WFFJ/K7MpqZNm6aZM2fq+uuvV9euXU2XY1uDBg3SCy+8oFGjRql69eoaN26chg0bxhvqaSgqKtJf/vIXffnll0pMTNTrr7+uhIQE02XBRqxfD3M42djG8ed9Pl+51QTnSU9P14gRI1RYWKjhw4fr6quvNl1S2Ovfv79eeOEF3X///apZs6aeeeYZ3XHHHSooKDBdmh8d3DBwpp2eHTt26K9//asaNmyoBx98sIyqCn+h6JANGjTI//jaa6/VoEGDNG/ePE2ePLnUhWiRIBRft0OHDumPf/yjFi5cqKSkJE2cONG/OCOS0ZUNreMd2qKiolLvFxYWSjp5hxc4V1988YXGjh2rwsJC3Xbbbbr//vtNl2QLgeNo1157rQYPHqzvvvtOEydO1N13322wshPo4NrQuHHjlJubqxYtWmjy5MmaMGGC/5/t27dLkr766itNmDCBgx/OQHJysm6++WZJx75+KN2OHTs0dOhQLVy4UI0bN9aUKVNOukgI+C3Hd0442Yr1488TcBFqlmXp5Zdf1pgxY1RYWKg///nPGjt2bFjNkNpFUlKSbrvtNknh9d5JB9eG9uzZI0maMWOGZsyYUeprpk2bJkkaNmyYOnToUG61hbv9+/dr+/btatSoUanbEh3fvun41xjB1q1bpzvvvFP79u3TxRdfrJdeeom9N3HW2rRpo8mTJ2vz5s2l3j/eMQ+r05Fge16vV//zP/+jTz/9VHFxcXr22WfVu3dv02WFtQMHDmjbtm1q0KCBqlatWuJ+06ZNJYXXeycB14buvvtuZWdnl3pv0qRJ2rhxo2644QalpqbSWStmxIgRSk9P17hx4zR48OAS97du3SpJ7CdZip9//lm33367cnJyNGjQID3++OOKjo42XRZs7PhepOvXry/1/rp16ySJD+kIGcuy9Pjjj+vTTz9VtWrV9Oabb6pFixamywp7o0aN0uLFi/Xoo4/qxhtvLHE/HN87Cbg21KtXr5Pe+/rrr7Vx40Zdeumlv/k6p+rTp4/S09P17rvvasCAAYqKOvFH4PDhw5o8ebIklRp+naygoED33nuvcnJydM0114TddjCwp1q1aql+/fraunWr5s6dq27duvnvZWdn67PPPpN07M8tEAoff/yxPvzwQ1WuXFmTJk3itwOnqU+fPlq8eLEmTZqkIUOGBO0ykZubq0mTJkkKr/dOAi4cZejQoXrnnXf8R6eOHDlS9erV05o1a/Tiiy8qIyNDLVq0UL9+/UyXGlY+++wzbdy4UZKUn5+vsWPHlvo6j8fzmxupA8U9+OCDuvfeezV69Gg9+OCD6tGjhzZt2qSnnnpKOTk5uv7669WkSRPTZSICFBQU6Pnnn5d07OCCN95446Sv7du3r7p06VJepYW9wYMH6+2339bWrVt199136w9/+IMaNmyotWvX6uWXX9aWLVvUrFmzsNoLnYALR6lQoYImTZqkkSNHau7cuSWOAO3atav+8Y9/+Fd345jPP//c//jLL7886esIuDhTl19+ucaMGaOXX35ZjzzySNC9Hj16OHqnGITWokWL/ON9mzdvPunst3Rsz2sC7gkxMTF67733NHLkSC1cuFALFy4Mut+pUyc999xzio+PN1RhSS7r+EaEiAirVq3Svn37lJaWFlazMOHG5/Np+fLlmjdvno4cOaJq1arpiiuucMRWV2djyZIlys3NPeXrXC6XevToUQ4V2dvKlSuVnZ2tVq1aqXr16qbLCQvZ2dn6/PPPlZWVpYSEBHXu3FmtWrViFOYMHP9z2r59+1IX0TpdZmamf677VJo2bar69euXcUX2Y1mW0tPTNXfuXOXl5SkpKUl9+vQJy1EPAi4AAAAiCvvgAgAAIKIQcAEAABBRCLgAAACIKARcAAAARBQCLgAAACIKARcAAAARhYALAACAiELABQAAQEQh4AIAACCiEHABAAAQUaJMFwAAKF9r1qzRG2+8IUl64IEHVL9+/ZO+9ssvv9TMmTMlSTfddJM6dOhQLjUCwLmggwsADtOsWTOtXLlSs2bN0ptvvnnS1y1dulQPPPCAZs2apejoaLVv374cqwSAs0fABQCHiYmJ0V133SVJmjp1qrKyskq8ZsuWLbrnnntUVFSkiy66SE899ZRcLld5lwoAZ4WACwAONGTIECUmJqqwsFDvvPNO0L3s7GwNGzZMBw8eVMOGDfXKK68oJibGUKUAcOYIuADgQBUqVNDtt98uSXr//fd14MABSVJBQYHuueceZWRkqGrVqpowYYISExNNlgoAZ4yACwAOdcMNNyghIUF5eXmaPHmyLMvS2LFjlZ6erujoaL3yyis677zzTJcJAGeMXRQAwKEqVaqkm266SePHj9d7772nw4cPa/r06ZKkv//972rXrp3hCgHg7Lgsy7JMFwEAMCM7O1vdu3dXQUGB/7n77rtPI0aMMFgVAJwbRhQAwMGSkpLUr18///U111yju+++22BFAHDuCLgA4GCbNm3SjBkz/NetW7dmOzAAtseIAgA41J49ezRkyBBlZmbK5XLJsizVq1dPs2bNUlQUSzQA2BcdXABwoLy8PA0fPlyZmZmqUaOG3n77bUnSjh07/EfzAoBdEXABwGG8Xq/+9Kc/6YcfflB8fLwmTJigTp066fLLL5ckjR8/XvxyD4CdEXABwGGefPJJffvtt3K73frnP/+p1NRUSfLvnLBx40bNmTPHZIkAcE4IuADgIO+++64mT54sSXrsscfUrVs3/70WLVqoa9eukqTXXnuNLi4A2yLgAoBDzJ49W08++aQk6c4779R1111X4jXDhw+XJK1atUpLly4t1/oAIFQIuADgAKtXr9bo0aMlSX369NGYMWNKfV27du38J5iNHz++3OoDgFAi4AJAhMvIyNDw4cNVUFCgCy+8UM8884zc7pP/9X/8oIeFCxdq7dq15VUmAIQMGx0CQIRbvny5Bg8eLEm6/fbbFRcX95uv79y5s+677z7l5eVpz5495VEiAIQUBz0AAAAgojCiAAAAgIhCwAUAAEBEIeACAAAgohBwAQAAEFEIuAAAAIgoBFwAAABEFAIuAAAAIgoBFwAAABGFgAsAAICIQsAFAABARPl//9GVFxKVjnIAAAAASUVORK5CYII=;" vertex="1" parent="1">
          <mxGeometry x="534" y="62" width="181.73" height="194" as="geometry" />
        </mxCell>
      </root>
    </mxGraphModel>
  </diagram>
</mxfile>
